<?xml version="1.0" encoding="UTF-8" standalone="no"?>
<svg
   xmlns:dc="http://purl.org/dc/elements/1.1/"
   xmlns:cc="http://creativecommons.org/ns#"
   xmlns:rdf="http://www.w3.org/1999/02/22-rdf-syntax-ns#"
   xmlns:svg="http://www.w3.org/2000/svg"
   xmlns="http://www.w3.org/2000/svg"
   xmlns:sodipodi="http://sodipodi.sourceforge.net/DTD/sodipodi-0.dtd"
   xmlns:inkscape="http://www.inkscape.org/namespaces/inkscape"
   version="1.1"
   id="svg2"
   xml:space="preserve"
   width="3062.6667"
   height="2613.3333"
   viewBox="0 0 3062.6667 2613.3333"
   sodipodi:docname="56604.eps"><metadata
     id="metadata8"><rdf:RDF><cc:Work
         rdf:about=""><dc:format>image/svg+xml</dc:format><dc:type
           rdf:resource="http://purl.org/dc/dcmitype/StillImage" /></cc:Work></rdf:RDF></metadata><defs
     id="defs6"><clipPath
       clipPathUnits="userSpaceOnUse"
       id="clipPath184"><path
         d="m 11828.3,11339.4 c -22.3,9.4 -40.2,15.3 -58.3,15.3 -0.4,0 -0.9,0 -1.3,0 -0.5,0 -1,0 -1.5,0 -18,0 -36.4,-6.3 -60,-12.7 10.1,22.7 34,39.2 61.6,39.3 27.3,0 52.5,-17.7 59.5,-41.9"
         id="path182" /></clipPath></defs><sodipodi:namedview
     pagecolor="#ffffff"
     bordercolor="#666666"
     borderopacity="1"
     objecttolerance="10"
     gridtolerance="10"
     guidetolerance="10"
     inkscape:pageopacity="0"
     inkscape:pageshadow="2"
     inkscape:window-width="640"
     inkscape:window-height="480"
     id="namedview4" /><g
     id="g10"
     inkscape:groupmode="layer"
     inkscape:label="ink_ext_XXXXXX"
     transform="matrix(1.3333333,0,0,-1.3333333,0,2613.3333)"><g
       id="g12"
       transform="scale(0.1)"><path
         d="M 0,5.69922 H 22965.8 V 19599.999 H 0 Z"
         style="fill:#c2ebeb;fill-opacity:1;fill-rule:nonzero;stroke:none"
         id="path14" /><path
         d="M 0,5.69922 H 22965.8 V 4709.1992 H 0 Z"
         style="fill:#8fdae9;fill-opacity:1;fill-rule:nonzero;stroke:none"
         id="path16" /><path
         d="m 11579.3,1436.8 c -4971.51,0 -9001.76,469.9 -9001.76,1049.5 0,579.6 4030.25,1049.5 9001.76,1049.5 4971.6,0 9001.8,-469.9 9001.8,-1049.5 0,-579.6 -4030.2,-1049.5 -9001.8,-1049.5"
         style="fill:#6dcfe8;fill-opacity:1;fill-rule:nonzero;stroke:none"
         id="path18" /><path
         d="m 16216.4,14704.4 c 0,1441.6 -1015.3,2631.2 -2457.1,2631.2 -1061.2,0 -1952.6,-636.8 -2136.5,-1712.2 -240.5,1075.4 -1146.1,1698 -2007.25,1691.5 -1441.69,-11 -2610.42,-1168.9 -2610.42,-2610.5 0,-604.2 205.24,-1160.4 549.85,-1602.8 244.8,-334.5 1743.57,-2336.2 3926.32,-4260.6 0,0 2962.1,2622.4 4234.4,4320.3 h -4.2 c 317.3,432.3 504.9,965.7 504.9,1543.1"
         style="fill:#f037a5;fill-opacity:1;fill-rule:nonzero;stroke:none"
         id="path20" /><path
         d="m 6946.93,13567.5 h 3294.97 c 16.9,0 31.9,10.7 37.5,26.6 l 260.7,743.4 286.8,-1742.5 c 3,-18.1 18.1,-31.8 36.4,-33.2 18.3,-1.3 35.2,10.1 40.8,27.6 l 407.2,1282.1 288.2,-1055.1 c 4.8,-17.3 20.7,-29.4 38.7,-29.2 18,0.1 33.7,12.3 38.2,29.7 l 389.5,1502.2 357.7,-1174.3 c 5,-16.2 19.5,-27.4 36.4,-28.1 16.9,-0.8 32.3,9.2 38.6,24.9 l 261.9,654.8 202.7,-1046.4 c 3.5,-18.1 18.8,-31.3 37.1,-32.2 18.4,-0.9 34.8,10.9 40.1,28.5 l 339.7,1149.8 187.2,-886.6 c 3.7,-17.8 19,-30.7 37.1,-31.6 18.1,-0.8 34.4,10.7 39.8,28.1 l 336.1,1089.6 315.3,-1513.8 c 3.8,-18.6 20.3,-31.8 39.2,-31.7 19,0.2 35.2,13.7 38.8,32.3 l 190.4,996.7 h 1921 c 21.9,0 39.7,17.8 39.7,39.8 0,21.9 -17.8,39.7 -39.7,39.7 h -1953.9 c -19,0 -35.4,-13.5 -39,-32.3 l -159.3,-833.3 -306.1,1469.8 c -3.7,17.8 -19,30.8 -37.1,31.6 -18.1,0.9 -34.5,-10.6 -39.9,-28 l -336.3,-1090.4 -187.9,890.4 c -3.8,17.9 -19.1,30.8 -37.4,31.5 -18.2,0.8 -34.5,-10.9 -39.7,-28.4 l -338.1,-1144.4 -197.5,1019.2 c -3.3,17.4 -17.7,30.4 -35.3,32.1 -17.6,1.6 -34.1,-8.5 -40.7,-24.9 l -270.1,-675.3 -365.8,1201.1 c -5.2,17 -21.1,28.6 -38.9,28.2 -17.8,-0.4 -33.2,-12.6 -37.7,-29.8 l -387.4,-1494.2 -284.3,1040.9 c -4.7,17 -19.9,28.9 -37.6,29.3 -17.6,0.4 -33.3,-10.9 -38.7,-27.7 l -397.8,-1252.4 -285.2,1732.4 c -3,17.9 -17.7,31.5 -35.8,33.1 -18.1,1.6 -35,-9.3 -41,-26.4 l -302.8,-863.6 H 6946.93 c -21.96,0 -39.77,-17.8 -39.77,-39.8 0,-22 17.81,-39.8 39.77,-39.8"
         style="fill:#ffffff;fill-opacity:1;fill-rule:nonzero;stroke:none"
         id="path22" /><path
         d="m 12989.1,10237.1 h -0.1 c 781.2,748.8 1709.7,1681.2 2381.9,2489.4 -672.3,-808.3 -1600.6,-1740.6 -2381.8,-2489.4 m 2382.6,2490.5 c 0.5,0.6 0.8,0.8 1.2,1.4 -0.4,-0.5 -0.8,-0.9 -1.2,-1.4 m 2.3,2.8 c 0.3,0.3 0.6,0.6 0.9,1 -0.3,-0.3 -0.6,-0.7 -0.9,-1 m 2.1,2.5 c 0.3,0.3 0.6,0.7 0.9,1 -0.4,-0.4 -0.5,-0.6 -0.9,-1 m 2.3,2.7 c 0.1,0.1 0.1,0.1 0.2,0.2 l -0.2,-0.2 m 330.6,416.7 c 0.1,0.2 0.2,0.4 0.4,0.6 -0.1,-0.2 -0.3,-0.4 -0.4,-0.6 m 1.6,2.2 c 0.2,0.3 0.4,0.5 0.6,0.8 -0.2,-0.2 -0.4,-0.5 -0.6,-0.8 m 1.7,2.2 c 0.3,0.5 0.6,0.9 0.9,1.3 -0.3,-0.4 -0.6,-0.8 -0.9,-1.3 m 1.7,2.3 c 0.6,0.8 1.1,1.5 1.7,2.3 v 0 c -0.6,-0.8 -1.1,-1.5 -1.7,-2.3 m -4091.2,2464.4 c -0.4,1.8 -0.8,3.6 -1.2,5.4 0.4,-1.8 0.8,-3.6 1.2,-5.4"
         style="fill:#acbbb5;fill-opacity:1;fill-rule:nonzero;stroke:none"
         id="path24" /><path
         d="m 12989,10237.1 h -404.2 l -78.5,165 -110.6,45.3 c 17,61.1 39.6,131.7 69.3,214.2 162.1,450.6 128,1143.1 -5.1,1591.9 -98.7,332.9 -317.1,408.2 -665.8,408.2 -71.5,0 -135.6,-2 -193.6,-7 v 158.8 c 5.6,-15.7 20.5,-26.3 37.4,-26.3 0.1,0 0.2,0 0.3,0 18,0.1 33.7,12.3 38.2,29.7 l 389.5,1502.2 357.7,-1174.3 c 5,-16.2 19.5,-27.4 36.4,-28.1 0.5,-0.1 1.1,-0.1 1.7,-0.1 16.2,0 30.8,9.8 36.9,25 l 261.9,654.8 202.7,-1046.4 c 3.5,-18.1 18.8,-31.3 37.1,-32.2 0.7,0 1.3,0 1.9,0 17.6,0 33.1,11.5 38.2,28.5 l 339.7,1149.8 187.2,-886.6 c 3.7,-17.8 19,-30.7 37.1,-31.6 0.6,0 1.2,0 1.8,0 17.4,0 32.8,11.3 38,28.1 l 336.1,1089.6 315.3,-1513.8 c 3.8,-18.5 20.1,-31.7 38.9,-31.7 0.1,0 0.2,0 0.3,0 19,0.2 35.2,13.7 38.8,32.3 l 190.4,996.7 h 1397.9 c -70.6,-147.4 -154.6,-287.2 -250.4,-417.8 v 0 0 h 4.2 c -0.6,-0.8 -1.1,-1.5 -1.7,-2.3 -0.2,-0.3 -0.6,-0.7 -0.8,-1 -0.3,-0.4 -0.6,-0.8 -0.9,-1.3 -0.4,-0.4 -0.7,-0.9 -1.1,-1.4 -0.2,-0.3 -0.4,-0.5 -0.6,-0.8 -0.4,-0.6 -0.8,-1 -1.2,-1.6 -0.2,-0.2 -0.3,-0.4 -0.4,-0.6 -100.6,-133.7 -211.4,-273.1 -330.4,-416.5 -0.1,-0.1 -0.1,-0.1 -0.2,-0.2 -0.5,-0.6 -1,-1.1 -1.4,-1.7 -0.3,-0.3 -0.6,-0.7 -0.9,-1 -0.4,-0.5 -0.8,-1 -1.2,-1.5 -0.3,-0.4 -0.6,-0.7 -0.9,-1 -0.4,-0.5 -0.7,-0.9 -1.1,-1.4 -0.4,-0.6 -0.7,-0.8 -1.2,-1.4 -0.2,-0.3 -0.6,-0.8 -0.8,-1.1 -672.2,-808.2 -1600.7,-1740.6 -2381.9,-2489.4 m 1343.8,2555.9 -306.1,1469.8 c -3.7,17.8 -19,30.8 -37.1,31.6 -0.6,0.1 -1.3,0.1 -1.9,0.1 -17.3,0 -32.8,-11.3 -38,-28.1 l -336.3,-1090.4 -187.9,890.4 c -3.8,17.9 -19.1,30.8 -37.4,31.5 -0.5,0.1 -1,0.1 -1.6,0.1 -17.6,0 -33.1,-11.5 -38.1,-28.5 l -338.1,-1144.4 -197.5,1019.2 c -3.3,17.4 -17.7,30.4 -35.3,32.1 -1.2,0.1 -2.5,0.1 -3.8,0.1 -16.1,0 -30.8,-9.8 -36.9,-25 l -270.1,-675.3 -365.8,1201.1 c -5.1,16.8 -20.6,28.2 -38.1,28.2 -0.3,0 -0.5,0 -0.8,0 -17.8,-0.4 -33.2,-12.6 -37.7,-29.8 l -387.4,-1494.2 -36.4,133.4 v 2598.9 c 7.4,-28 14.6,-56.2 21.1,-85 0.4,-1.8 0.8,-3.6 1.2,-5.4 v 0 c 183.9,1075.4 1075.3,1712.2 2136.5,1712.2 1441.8,0 2457.1,-1189.6 2457.1,-2631.2 0,-372 -77.9,-725.6 -218.1,-1045.8 h -1467.2 c -19,0 -35.4,-13.5 -39,-32.3 l -159.3,-833.3"
         style="fill:#d52d82;fill-opacity:1;fill-rule:nonzero;stroke:none"
         id="path26" /><path
         d="m 14334.5,12550.1 c -18.8,0 -35.1,13.2 -38.9,31.7 l -315.3,1513.8 -336.1,-1089.6 c -5.2,-16.8 -20.6,-28.1 -38,-28.1 -0.6,0 -1.2,0 -1.8,0 -18.1,0.9 -33.4,13.8 -37.1,31.6 l -187.2,886.6 -339.7,-1149.8 c -5.1,-17 -20.6,-28.5 -38.2,-28.5 -0.6,0 -1.2,0 -1.9,0 -18.3,0.9 -33.6,14.1 -37.1,32.2 l -202.7,1046.4 -261.9,-654.8 c -6.1,-15.2 -20.7,-25 -36.9,-25 -0.6,0 -1.2,0 -1.7,0.1 -16.9,0.7 -31.4,11.9 -36.4,28.1 l -357.7,1174.3 -389.5,-1502.2 c -4.5,-17.4 -20.2,-29.6 -38.2,-29.7 -0.1,0 -0.2,0 -0.3,0 -16.9,0 -31.8,10.6 -37.4,26.3 v 301.4 l 36.4,-133.4 387.4,1494.2 c 4.5,17.2 19.9,29.4 37.7,29.8 0.3,0 0.5,0 0.8,0 17.5,0 33,-11.4 38.1,-28.2 l 365.8,-1201.1 270.1,675.3 c 6.1,15.2 20.8,25 36.9,25 1.3,0 2.6,0 3.8,-0.1 17.6,-1.7 32,-14.7 35.3,-32.1 l 197.5,-1019.2 338.1,1144.4 c 5,17 20.5,28.5 38.1,28.5 0.6,0 1.1,0 1.6,-0.1 18.3,-0.7 33.6,-13.6 37.4,-31.5 l 187.9,-890.4 336.3,1090.4 c 5.2,16.8 20.7,28.1 38,28.1 0.6,0 1.3,0 1.9,-0.1 18.1,-0.8 33.4,-13.8 37.1,-31.6 l 306.1,-1469.8 159.3,833.3 c 3.6,18.8 20,32.3 39,32.3 h 1467.2 c -11.7,-26.7 -23.8,-53.2 -36.4,-79.5 v 0 H 14564 l -190.4,-996.7 c -3.6,-18.6 -19.8,-32.1 -38.8,-32.3 -0.1,0 -0.2,0 -0.3,0"
         style="fill:#e1cac2;fill-opacity:1;fill-rule:nonzero;stroke:none"
         id="path28" /><path
         d="m 5527.13,8323.9 c 0,2.3 -0.28,3.6 -0.28,3.6 -14.72,183.3 -71.81,394.6 -71.81,394.6 l -1860.99,7.7 c 0,0 -70.45,-265.6 -81.59,-439.9 h -0.82 c 0,0 -56.31,-979.9 105.36,-2293 40.53,-330.6 223.63,-3134.7 223.63,-3134.7 h 483.1 c 0,0 40.66,2356.7 86.33,2916 73.65,898.7 2.65,2059.3 2.65,2059.3 l 64.89,169.4 c 31.48,0.5 62.95,1.2 94.35,2.3 l 173.79,-5147 h 472.78 c 0,0 -13.52,2177 133.34,3027.7 175.46,1015.7 178.37,2394.8 175.27,2434"
         style="fill:#69b1dc;fill-opacity:1;fill-rule:nonzero;stroke:none"
         id="path30" /><path
         d="m 3927.23,11566.9 h 1189.9 v 1840.63 h -1189.9 z"
         style="fill:#111228;fill-opacity:1;fill-rule:nonzero;stroke:none"
         id="path32" /><path
         d="m 3443.09,8127.2 2167.28,10.2 c 63.48,413.1 -233.96,1749.08 -91.56,2699.9 81.82,546.5 -161.52,844 -161.52,844 l -160.08,259.3 -247.42,114.4 h -774.27 l -236.77,-68.6 -221.23,-282.2 c 0,0 -232.41,-258.1 -156.29,-887.3 132.28,-1093.13 -156.31,-2262.5 -118.14,-2689.7"
         style="fill:#85cef2;fill-opacity:1;fill-rule:nonzero;stroke:none"
         id="path34" /><path
         d="m 4583.2,11925.4 h -91.5 V 8134.8 l 91.5,0.2 v 3790.4"
         style="fill:#63a8d8;fill-opacity:1;fill-rule:nonzero;stroke:none"
         id="path36" /><path
         d="m 5236.13,12982.3 c 0,-192 -436.54,-611.5 -552.55,-611.5 h -205.4 c -155.57,0 -577.5,430.5 -572.59,610.3 v 662.8 c 0,227 183.88,411 410.83,411 h 508.83 c 226.94,0 410.88,-184 410.88,-411 v -661.6"
         style="fill:#f35c4b;fill-opacity:1;fill-rule:nonzero;stroke:none"
         id="path38" /><path
         d="m 4802.5,12446.6 h -471.22 c 20.54,-111.2 45.42,-309.1 -16.81,-393.5 -9.92,-13.4 -21.1,-196.4 253.41,-196.4 251.17,0 260.76,185.8 253.31,196.4 -66.35,95.6 -40.78,285.6 -18.69,393.5"
         style="fill:#f35c4b;fill-opacity:1;fill-rule:nonzero;stroke:none"
         id="path40" /><path
         d="m 4404.35,13305 c -19.61,1.4 -37.53,3.6 -55.74,3.6 -17.91,0.4 -35.88,2.7 -54.13,1.3 -36.41,-3.1 -72.43,-15.1 -105.69,-33.2 l -1.56,0.4 0.29,1.5 c 29.82,23.8 65.42,41.8 104.35,49.4 19.22,4.1 39.51,7 59.26,3.3 19.47,-4.2 39.05,-10.4 54.18,-24.2 l 0.1,-1.7 -1.06,-0.4"
         style="fill:#1d2047;fill-opacity:1;fill-rule:nonzero;stroke:none"
         id="path42" /><path
         d="m 4731.89,13307.1 c 16.18,13.9 36.52,20 56.76,24.2 20.53,3.6 41.58,0.8 61.58,-3.2 40.48,-7.5 77.95,-25.5 109.63,-49.5 l 0.24,-1.7 -1.41,-0.3 c -35.06,18.4 -72.81,30.3 -110.88,33.3 -19.17,1.5 -37.96,-0.9 -56.74,-1.3 -19.08,0 -37.87,-2.2 -58.2,-3.6 l -1.36,1 0.38,1.1"
         style="fill:#1d2047;fill-opacity:1;fill-rule:nonzero;stroke:none"
         id="path44" /><path
         d="m 4627.79,12839.9 c -22.45,9.4 -40.59,15.4 -58.85,15.4 -0.35,0 -0.7,0 -1.06,0 -0.53,0 -1.06,0 -1.59,0 -17.97,0 -36.43,-6.3 -60.17,-12.7 10.22,22.7 34.23,39.3 61.92,39.5 27.47,-0.1 52.68,-18 59.75,-42.2"
         style="fill:#e14d3d;fill-opacity:1;fill-rule:nonzero;stroke:none"
         id="path46" /><path
         d="m 4367.16,13089.6 c 0,-53.6 -29.39,-97 -65.7,-97 -36.18,0 -65.56,43.4 -65.56,97 0,53.5 29.38,96.9 65.56,96.9 36.31,0 65.7,-43.4 65.7,-96.9"
         style="fill:#1d2047;fill-opacity:1;fill-rule:nonzero;stroke:none"
         id="path48" /><path
         d="m 4873.67,13089.6 c 0,-53.6 -29.33,-97 -65.56,-97 -36.31,0 -65.65,43.4 -65.65,97 0,53.5 29.34,96.9 65.65,96.9 36.23,0 65.56,-43.4 65.56,-96.9"
         style="fill:#1d2047;fill-opacity:1;fill-rule:nonzero;stroke:none"
         id="path50" /><path
         d="m 4288.87,12773.4 c -66.02,0 -119.5,35.1 -119.5,78.4 0,43.3 53.48,78.4 119.5,78.4 65.95,0 119.49,-35.1 119.49,-78.4 0,-43.3 -53.54,-78.4 -119.49,-78.4"
         style="fill:#f14c43;fill-opacity:1;fill-rule:nonzero;stroke:none"
         id="path52" /><path
         d="m 4843.55,12773.4 c -65.99,0 -119.49,35.1 -119.49,78.4 0,43.3 53.5,78.4 119.49,78.4 66,0 119.59,-35.1 119.59,-78.4 0,-43.3 -53.59,-78.4 -119.59,-78.4"
         style="fill:#f14c43;fill-opacity:1;fill-rule:nonzero;stroke:none"
         id="path54" /><path
         d="m 4573.23,12534.6 c -18.83,0.1 -35.93,12.3 -40.72,28.9 15.42,-6.5 27.94,-10.6 40.43,-10.6 0.15,0 0.29,0 0.44,0 0.38,-0.1 0.76,-0.1 1.14,-0.1 12.19,0 24.93,4.3 41.08,8.6 -6.98,-15.4 -23.53,-26.8 -42.37,-26.8"
         style="fill:#e14d3d;fill-opacity:1;fill-rule:nonzero;stroke:none"
         id="path56" /><path
         d="m 4692.35,12683.6 c -15.28,-14 -33.96,-28.3 -55.01,-38.9 -21.07,-10.6 -44.41,-17.6 -69.46,-17.6 -25.04,0 -48.89,6.5 -70.65,16.3 -21.75,9.9 -41.33,23.1 -57.57,36.2 -4.91,4 -12.12,3.2 -16.08,-1.7 -3.97,-4.9 -3.2,-12.1 1.72,-16.1 17.36,-14 38.44,-28.3 62.48,-39.2 24.02,-10.9 51.08,-18.4 80.1,-18.4 29.36,0 56.27,8.2 79.77,20.1 23.52,11.8 43.75,27.4 60.18,42.5 4.65,4.2 4.96,11.5 0.68,16.1 -4.27,4.7 -11.51,5 -16.16,0.7"
         style="fill:#111228;fill-opacity:1;fill-rule:nonzero;stroke:none"
         id="path58" /><path
         d="m 3717.71,9180.6 v -461.2 c 0,-89 72.15,-161.3 161.24,-161.3 l 294.78,-16.8 c 89.08,0 161.33,72.3 161.33,161.3 v 461.2 l -617.35,16.8"
         style="fill:#63a8d8;fill-opacity:1;fill-rule:nonzero;stroke:none"
         id="path60" /><path
         d="m 5377.64,9165.4 v -461.3 c 0,-89 -72.24,-161.3 -161.25,-161.3 l -294.79,-16.7 c -89.14,0 -161.33,72.2 -161.33,161.3 v 461.2 l 617.37,16.8"
         style="fill:#63a8d8;fill-opacity:1;fill-rule:nonzero;stroke:none"
         id="path62" /><path
         d="m 5863.46,8746.6 c 0,0 10.74,-119.5 -93.17,-396.8 -28.28,-75.5 -141.38,-232.4 -263.3,-224.7 -16.66,1 -55.58,20.4 -57.71,36.3 -2.82,20.7 6.15,33.9 46.68,58.2 74.85,45.1 103.42,91.4 122.01,141 30.12,80.5 38.89,168.8 8.81,180 -28.91,10.8 -74.86,-58.3 -96.55,-74.6 -71.07,-53.7 -120.12,20.5 -55.78,79.7 173.44,159.8 212.43,267.1 212.43,267.1 l 176.58,-66.2"
         style="fill:#f35c4b;fill-opacity:1;fill-rule:nonzero;stroke:none"
         id="path64" /><path
         d="m 5862.68,8743.2 565.48,1338.8 c 17.72,48 15.47,101.1 -6.34,147.4 l -554.89,1219.9 c -44.78,95.4 -149.31,146.3 -244.61,101.4 -95.19,-44.8 -140.75,-150.7 -95.77,-245.9 L 6075.53,10141 5685.86,8808.8 c -16.9,-64.6 151.93,-132.9 176.82,-65.6"
         style="fill:#f35c4b;fill-opacity:1;fill-rule:nonzero;stroke:none"
         id="path66" /><path
         d="m 5622.23,10998 c 0,0 -166.96,233 -180.45,283.7 -132.63,499.2 -324.61,707.7 -324.61,707.7 130.78,52.8 471.19,-3.3 655.21,-299.3 72.78,-116.9 262.96,-484.4 262.96,-484.4 L 5622.23,10998"
         style="fill:#85cef2;fill-opacity:1;fill-rule:nonzero;stroke:none"
         id="path68" /><path
         d="m 3222.68,8746.6 c 0,0 -10.75,-119.5 93.16,-396.8 28.22,-75.5 141.29,-232.4 263.3,-224.7 16.56,1 55.59,20.4 57.72,36.3 2.71,20.7 -6.11,33.9 -46.59,58.2 -75.05,45.1 -103.51,91.4 -122.2,141 -30.12,80.5 -38.83,168.8 -8.81,180 28.94,10.8 74.9,-58.3 96.54,-74.6 71.08,-53.7 120.18,20.5 55.88,79.7 -173.4,159.8 -212.42,267.1 -212.42,267.1 l -176.58,-66.2"
         style="fill:#f35c4b;fill-opacity:1;fill-rule:nonzero;stroke:none"
         id="path70" /><path
         d="M 3223.4,8743.2 2658.01,10082 c -17.81,48 -15.57,101.1 6.31,147.4 l 554.78,1219.9 c 44.83,95.4 149.37,146.3 244.61,101.4 95.24,-44.8 140.61,-150.7 95.82,-245.9 L 3010.61,10141 3400.37,8808.8 c 16.78,-64.6 -151.98,-132.9 -176.97,-65.6"
         style="fill:#f35c4b;fill-opacity:1;fill-rule:nonzero;stroke:none"
         id="path72" /><path
         d="m 3463.91,10998 c 0,0 166.84,233 180.41,283.7 132.61,499.2 324.59,707.7 324.59,707.7 -130.82,52.8 -471.12,-3.3 -655.2,-299.3 -72.73,-116.9 -263.02,-484.4 -263.02,-484.4 l 413.22,-207.7"
         style="fill:#85cef2;fill-opacity:1;fill-rule:nonzero;stroke:none"
         id="path74" /><path
         d="m 4822.15,13629 c 0,0 -330.45,-248.9 -701.58,-185.3 0,0 -30.56,-74.2 -71.25,-132.4 -40.61,-58.2 -86.41,-137.7 -45.74,-233 40.78,-95.3 5.13,-275.3 -20.34,-397.1 -25.47,-121.8 20.34,-279.3 73.79,-354.8 53.36,-75.4 188.11,-54.2 149.9,-232.9 -38.1,-178.7 175.48,-638.1 -99.15,-463.3 -45.09,28.7 -106.06,10.8 -168.23,-7.1 -66.24,-19.1 -133.84,-38.2 -185.04,-0.9 -50.84,37.1 -181.85,255.5 -35.63,611.6 42.9,104.5 -28.09,373 -56.56,519.5 -36.22,186.7 -9.53,359.5 59.08,490.5 68.66,131 43.19,290.1 76.26,398 40.72,132.7 101.68,241.4 208.53,323.6 96.87,74.5 207.05,114.2 437.23,138.7 289.74,30.7 535.37,-22.2 668.67,-146.5 87.68,-81.7 183.03,-179.3 160.07,-459.3 -11.71,-142.9 52.19,-217.5 86.44,-348.5 34.37,-131 71.21,-354.8 0,-534.8 -77.92,-197.2 -142.31,-325.6 -96.51,-468.6 45.7,-143 95.2,-321.7 -45.8,-444.7 -64.93,-56.7 -113.71,-43.8 -160.59,-31 -55,15.1 -107.37,30.2 -180.08,-67 -100.97,-134.8 -218.09,228.5 -58.5,352.1 109.23,84.7 15.21,268.8 133.45,356.1 118.23,87.3 199.63,345.5 125.84,546.7 -47.11,128.8 17.86,317.7 -10.12,389.1 -43.11,110.3 -203.42,151 -244.14,381.3"
         style="fill:#1d2047;fill-opacity:1;fill-rule:nonzero;stroke:none"
         id="path76" /><path
         d="m 4072.63,12999 c 0,-101.5 66.77,-183.7 -34.67,-183.7 -101.49,0 -183.61,82.2 -183.61,183.7 0,101.4 82.12,183.7 183.61,183.7 101.44,0 34.67,-82.3 34.67,-183.7"
         style="fill:#f35c4b;fill-opacity:1;fill-rule:nonzero;stroke:none"
         id="path78" /><path
         d="m 4010.94,12893.3 c -58.34,0 -105.74,47.3 -105.74,105.7 0,58.3 47.4,105.7 105.74,105.7 58.34,0 19.85,-47.4 19.85,-105.7 0,-58.4 38.49,-105.7 -19.85,-105.7"
         style="fill:#f14c43;fill-opacity:1;fill-rule:nonzero;stroke:none"
         id="path80" /><path
         d="m 5043.57,12999 c 0,-101.5 -66.86,-183.7 34.62,-183.7 101.49,0 183.7,82.2 183.7,183.7 0,101.4 -82.21,183.7 -183.7,183.7 -101.48,0 -34.62,-82.3 -34.62,-183.7"
         style="fill:#f35c4b;fill-opacity:1;fill-rule:nonzero;stroke:none"
         id="path82" /><path
         d="m 5105.26,12893.3 c -58.35,0 -20,47.3 -20,105.7 0,58.3 -38.35,105.7 20,105.7 58.39,0 105.7,-47.4 105.7,-105.7 0,-58.4 -47.31,-105.7 -105.7,-105.7"
         style="fill:#f14c43;fill-opacity:1;fill-rule:nonzero;stroke:none"
         id="path84" /><path
         d="m 3843.9,2866.7 c -23.54,-36.1 -90.6,-106.7 -174.9,-152.6 -214.2,-116.7 -402.79,-344 -322.81,-429.6 106.77,-114.4 289.85,-86.5 419.45,30.5 178.38,160.9 281.14,285.8 442.37,354.6 93.25,39.8 115.23,169.9 118.91,197.1 H 3843.9"
         style="fill:#f35c4b;fill-opacity:1;fill-rule:nonzero;stroke:none"
         id="path86" /><path
         d="m 4304.06,2866.7 c -30.5,-60.2 -78.34,-108.2 -141.85,-146.6 -55.49,-33.4 -114.28,-60.4 -170.06,-93.3 -62.21,-36.7 -108.56,-82.7 -159.49,-133 -76.99,-76.1 -171.12,-143.7 -284.8,-138.9 -87.73,3.7 -150.54,24.8 -173.63,100.8 -46.77,-69.9 -62.8,-133.9 -28.04,-171.2 106.77,-114.4 289.85,-86.5 419.45,30.5 178.38,160.9 281.14,285.8 442.37,354.6 93.25,39.8 115.23,169.9 118.91,197.1 h -22.86"
         style="fill:#1d2047;fill-opacity:1;fill-rule:nonzero;stroke:none"
         id="path88" /><path
         d="m 5218.85,2867.6 c 23.48,-35.9 100.47,-106.6 184.67,-152.5 214.25,-116.9 402.85,-344 322.91,-429.7 -106.82,-114.3 -289.94,-86.4 -419.55,30.5 -178.42,161 -280.98,285.9 -442.31,354.7 -93.2,39.8 -115.14,169.8 -118.83,197 h 473.11"
         style="fill:#f35c4b;fill-opacity:1;fill-rule:nonzero;stroke:none"
         id="path90" /><path
         d="m 4768.51,2867.6 c 30.59,-60.1 78.27,-108.1 141.96,-146.5 55.44,-33.4 114.22,-60.5 169.85,-93.3 62.37,-36.7 108.65,-82.8 159.49,-133 77.18,-76.1 171.22,-143.7 284.9,-139 87.74,3.7 150.49,24.8 173.63,100.9 46.73,-70 62.85,-134 28.09,-171.3 -106.82,-114.3 -289.94,-86.4 -419.55,30.5 -178.42,161 -280.98,285.9 -442.31,354.7 -93.2,39.8 -115.14,169.8 -118.83,197 h 22.77"
         style="fill:#1d2047;fill-opacity:1;fill-rule:nonzero;stroke:none"
         id="path92" /><path
         d="m 19738.3,8529.6 h -1863.4 c 0,0 -116.5,-1276.3 35.4,-2511.8 40.8,-330.5 223.8,-3134.6 223.8,-3134.6 h 483.1 c 0,0 40.6,2356.7 86.4,2916 73.5,898.7 -5.1,1789.7 -5.1,1789.7 l 99.4,259.4 h 57.4 l 183.9,-4965.1 h 472.8 c 0,0 7.6,2173.6 133.3,3027.6 172.8,1173.6 93,2618.8 93,2618.8"
         style="fill:#3758b0;fill-opacity:1;fill-rule:nonzero;stroke:none"
         id="path94" /><path
         d="m 18134.1,2901 c 0,0 -58.5,-111.7 -175.4,-175.4 -214.3,-116.8 -402.8,-343.9 -322.9,-429.7 106.8,-114.4 289.9,-86.4 419.5,30.6 178.5,160.9 283.7,280.2 442.4,354.6 122,57.2 120.7,219.9 120.7,219.9 h -484.3"
         style="fill:#1d2047;fill-opacity:1;fill-rule:nonzero;stroke:none"
         id="path96" /><path
         d="m 19508.5,2889.6 c 0,0 58.6,-111.7 175.4,-175.5 214.4,-116.7 402.9,-343.9 323,-429.6 -106.9,-114.4 -289.9,-86.5 -419.5,30.6 -178.4,160.8 -284.2,279 -442.4,354.5 -119.8,57.2 -105.8,223.2 -105.8,223.2 l 469.3,-3.2"
         style="fill:#1d2047;fill-opacity:1;fill-rule:nonzero;stroke:none"
         id="path98" /><path
         d="m 19840,8200.9 76.3,3148.1 -267,560.5 -406.1,166.5 H 18469 l -455.6,-158.9 -293.6,-564.3 19.3,-3151.9 H 19840"
         style="fill:#85cef2;fill-opacity:1;fill-rule:nonzero;stroke:none"
         id="path100" /><path
         d="m 19649.3,11909.5 -379.1,155.5 c -62.7,-195.2 -431,-1261.6 -436.8,-1241 -66.9,235.8 -388.5,1240 -388.6,1243.5 l -431.4,-150.4 -293.6,-564.3 30.1,-4914.1 h 2047.5 l 118.9,4910.3 -267,560.5"
         style="fill:#e7e3e2;fill-opacity:1;fill-rule:nonzero;stroke:none"
         id="path102" /><path
         d="m 18833.4,10824 c -10.4,36.7 -27.1,92 -47.6,159.2 V 6438.7 h 95.4 v 4504.5 c -28.3,-77.3 -46.6,-123.6 -47.8,-119.2"
         style="fill:#d1cac8;fill-opacity:1;fill-rule:nonzero;stroke:none"
         id="path104" /><path
         d="m 19554.4,12976.4 c 0,-199.1 -452.5,-633.9 -572.7,-633.9 h -213 c -161.2,0 -598.7,446.3 -593.6,632.6 v 767.1 c 0,235.3 190.5,426 425.9,426 h 527.5 c 235.2,0 425.9,-190.7 425.9,-426 v -765.8"
         style="fill:#f35c4b;fill-opacity:1;fill-rule:nonzero;stroke:none"
         id="path106" /><path
         d="m 19095.9,12467.6 h -471.1 c 20.5,-111.2 45.4,-309.1 -16.8,-393.5 -9.8,-13.4 -21.2,-196.4 253.3,-196.4 251.3,0 260.7,185.8 253.4,196.4 -66.4,95.6 -40.8,285.7 -18.8,393.5"
         style="fill:#f35c4b;fill-opacity:1;fill-rule:nonzero;stroke:none"
         id="path108" /><path
         d="m 18389.1,13808.5 c 0,0 39.6,-140.4 -6.6,-256.6 -31,-78.4 -118.4,-105.3 -122.8,-313.8 -0.8,-41.9 -35.4,-142.3 -85.9,-148.8 0,0 -66.6,243.4 9.5,745.5 l 205.8,-26.3"
         style="fill:#1d2047;fill-opacity:1;fill-rule:nonzero;stroke:none"
         id="path110" /><path
         d="m 19345.5,13793.2 c 0,0 -39.6,-140.3 6.5,-256.6 31.1,-78.3 118.5,-105.3 122.9,-313.7 0.9,-41.9 35.5,-142.3 85.9,-148.9 0,0 66.6,243.5 -9.5,745.5 l -205.8,-26.3"
         style="fill:#1d2047;fill-opacity:1;fill-rule:nonzero;stroke:none"
         id="path112" /><path
         d="m 18244.9,13068.3 c 0,-103.7 68.2,-187.7 -35.5,-187.7 -103.7,0 -187.7,84 -187.7,187.7 0,103.6 84,187.6 187.7,187.6 103.7,0 35.5,-84 35.5,-187.6"
         style="fill:#f35c4b;fill-opacity:1;fill-rule:nonzero;stroke:none"
         id="path114" /><path
         d="m 18181.7,12960.3 c -59.6,0 -107.9,48.3 -107.9,108 0,59.7 48.3,108 107.9,108 59.7,0 20.4,-48.3 20.4,-108 0,-59.7 39.3,-108 -20.4,-108"
         style="fill:#f14c43;fill-opacity:1;fill-rule:nonzero;stroke:none"
         id="path116" /><path
         d="m 19461.7,13068.3 c 0,-103.7 -68.3,-187.7 35.4,-187.7 103.7,0 187.7,84 187.7,187.7 0,103.6 -84,187.6 -187.7,187.6 -103.7,0 -35.4,-84 -35.4,-187.6"
         style="fill:#f35c4b;fill-opacity:1;fill-rule:nonzero;stroke:none"
         id="path118" /><path
         d="m 19524.8,12960.3 c -59.7,0 -20.3,48.3 -20.3,108 0,59.7 -39.4,108 20.3,108 59.6,0 107.9,-48.3 107.9,-108 0,-59.7 -48.3,-108 -107.9,-108"
         style="fill:#f14c43;fill-opacity:1;fill-rule:nonzero;stroke:none"
         id="path120" /><path
         d="m 18676.2,13383.3 16.4,42.1 c 0,0 -114.3,14.7 -254,-46.7 -112.5,-49.3 140.9,12.6 237.6,4.6"
         style="fill:#1d2047;fill-opacity:1;fill-rule:nonzero;stroke:none"
         id="path122" /><path
         d="m 19017,13383.3 -16.3,42.1 c 0,0 114.3,14.7 254,-46.7 112.4,-49.3 -140.9,12.6 -237.7,4.6"
         style="fill:#1d2047;fill-opacity:1;fill-rule:nonzero;stroke:none"
         id="path124" /><path
         d="m 18916.9,12886.7 c -24.6,10.2 -44.5,16.7 -64.4,16.7 -0.4,0 -0.9,0 -1.4,0 -0.6,0 -1.2,0 -1.9,0 -19.7,0 -39.8,-6.9 -65.7,-13.9 11,24.9 37.6,43.2 67.7,43.3 30.2,0 57.8,-19.5 65.7,-46.1"
         style="fill:#e14d3d;fill-opacity:1;fill-rule:nonzero;stroke:none"
         id="path126" /><path
         d="m 18631.1,13160.3 c 0,-58.7 -32.2,-106.3 -71.9,-106.3 -39.8,0 -71.9,47.6 -71.9,106.3 0,58.7 32.1,106.3 71.9,106.3 39.7,0 71.9,-47.6 71.9,-106.3"
         style="fill:#1d2047;fill-opacity:1;fill-rule:nonzero;stroke:none"
         id="path128" /><path
         d="m 19186.3,13160.3 c 0,-58.7 -32.2,-106.3 -71.9,-106.3 -39.7,0 -72,47.6 -72,106.3 0,58.7 32.3,106.3 72,106.3 39.7,0 71.9,-47.6 71.9,-106.3"
         style="fill:#1d2047;fill-opacity:1;fill-rule:nonzero;stroke:none"
         id="path130" /><path
         d="m 18456.9,12781.4 c -91,0 -164.7,48.4 -164.7,108.1 0,59.7 73.7,108 164.7,108 91,0 164.8,-48.3 164.8,-108 0,-59.7 -73.8,-108.1 -164.8,-108.1"
         style="fill:#f14c43;fill-opacity:1;fill-rule:nonzero;stroke:none"
         id="path132" /><path
         d="m 19221.3,12781.4 c -91,0 -164.7,48.4 -164.7,108.1 0,59.7 73.7,108 164.7,108 91,0 164.7,-48.3 164.7,-108 0,-59.7 -73.7,-108.1 -164.7,-108.1"
         style="fill:#f14c43;fill-opacity:1;fill-rule:nonzero;stroke:none"
         id="path134" /><path
         d="m 18853.8,12546.1 c -18.8,0.1 -36,12.3 -40.7,28.8 15.3,-6.5 27.8,-10.6 40.3,-10.6 0.2,0 0.3,0 0.4,0 0.5,0 0.9,0 1.4,0 12.2,0 24.8,4.3 40.9,8.5 -7,-15.4 -23.5,-26.7 -42.3,-26.7"
         style="fill:#e14d3d;fill-opacity:1;fill-rule:nonzero;stroke:none"
         id="path136" /><path
         d="m 18973,12695 c -15.3,-14 -34,-28.2 -55.1,-38.9 -21,-10.6 -44.4,-17.6 -69.5,-17.6 -25,0 -48.9,6.5 -70.7,16.4 -21.7,9.8 -41.3,23.1 -57.6,36.2 -4.9,4 -12.1,3.2 -16.1,-1.7 -3.9,-5 -3.1,-12.2 1.8,-16.1 17.4,-14 38.5,-28.4 62.5,-39.3 24,-10.9 51.1,-18.4 80.1,-18.4 29.4,0 56.3,8.3 79.8,20.1 23.6,11.9 43.8,27.4 60.2,42.5 4.7,4.2 5,11.5 0.7,16.1 -4.2,4.7 -11.5,5 -16.1,0.7"
         style="fill:#111228;fill-opacity:1;fill-rule:nonzero;stroke:none"
         id="path138" /><path
         d="m 19270.2,12065 107.2,-520.9 -178.1,-140 9.6,-254.4 -375.5,-325.7 436.8,1241"
         style="fill:#d1cac8;fill-opacity:1;fill-rule:nonzero;stroke:none"
         id="path140" /><path
         d="m 18446.3,12068.2 -137.5,-495.4 158.9,-89.1 -44.4,-232.2 410.1,-427.5 -387.1,1244.2"
         style="fill:#d1cac8;fill-opacity:1;fill-rule:nonzero;stroke:none"
         id="path142" /><path
         d="m 18394.5,13751.2 c 0,0 64.8,18.9 117.4,-20.9 50.2,-38.1 135.2,-91.6 221,-46.6 86,45 203.6,90 286.4,57.8 82.7,-32.1 183.2,-114.1 316.8,-78.7 133.7,35.3 185.5,41 224.7,61.8 42.9,22.9 71.1,194.4 -12.4,235.4 -65.9,32.3 -91.4,85.1 -93,142.1 -1.5,55.5 -92.6,100.5 -148.7,90.8 -53.4,-9.1 -116.1,16.1 -151.1,41.8 -35,25.7 -107.3,66.7 -199.5,36.1 -110.9,-36.7 -160.3,-49.4 -315.8,4 -79.5,27.4 -209.1,3.2 -279.1,-73.8 -69.9,-77.2 -30,-149.7 -135.2,-184.8 -77.2,-25.7 -120.2,-178 -59.7,-312.4 6.1,-13.3 55.6,-82.7 133.6,-51.4 50.6,20.4 94.6,98.8 94.6,98.8"
         style="fill:#1d2047;fill-opacity:1;fill-rule:nonzero;stroke:none"
         id="path144" /><path
         d="m 17948.2,8371.9 v -458.6 c 0,-88.5 71.8,-160.3 160.3,-160.3 l 293.1,-16.6 c 88.6,0 160.3,71.7 160.3,160.3 v 458.5 l -613.7,16.7"
         style="fill:#85cef2;fill-opacity:1;fill-rule:nonzero;stroke:none"
         id="path146" /><path
         d="m 19665.7,8371.9 v -458.5 c 0,-88.5 -71.9,-160.4 -160.4,-160.4 l -293,-16.6 c -88.6,0 -160.5,71.7 -160.5,160.3 v 458.5 l 613.9,16.7"
         style="fill:#85cef2;fill-opacity:1;fill-rule:nonzero;stroke:none"
         id="path148" /><path
         d="m 17772.7,8598.9 c 0,0 7.5,-119.7 152.1,-378.2 39.3,-70.3 174.7,-208.4 294.2,-182.4 16.3,3.6 51.9,28.6 51.6,44.6 -0.3,21 -11.2,32.6 -54.9,50.5 -80.9,33.2 -116.1,74.7 -141.9,121 -42,74.9 -63.9,160.9 -36.1,176.6 27,15.1 82.9,-46.3 106.8,-59.2 78.4,-42.3 115.8,38.4 43.2,87.3 -195.6,131.6 -250.3,231.9 -250.3,231.9 l -164.7,-92.1"
         style="fill:#f35c4b;fill-opacity:1;fill-rule:nonzero;stroke:none"
         id="path150" /><path
         d="M 17774.1,8595.7 17013,9833.75 c -24.9,44.79 -30.6,97.6 -16,146.62 l 364.2,1289.73 c 30,101 125.6,167.1 226.7,137.2 100.8,-30 161.8,-127.8 131.9,-228.7 L 17352.6,9945.26 17939,8687.2 c 26.4,-61.4 -130.1,-154.3 -164.9,-91.5"
         style="fill:#f35c4b;fill-opacity:1;fill-rule:nonzero;stroke:none"
         id="path152" /><path
         d="m 17671.4,10860.8 c 0,0 129.8,255.7 135.5,307.8 55.9,513.5 214,748.5 214,748.5 -137.1,32.5 -465.1,-74.3 -602.4,-394.6 -54.3,-126.7 -186.8,-518.7 -186.8,-518.7 l 439.7,-143"
         style="fill:#e7e3e2;fill-opacity:1;fill-rule:nonzero;stroke:none"
         id="path154" /><path
         d="m 19874.1,8593.8 c 0,0 -7.5,-119.7 -152,-378.2 -39.5,-70.3 -174.8,-208.5 -294.1,-182.4 -16.4,3.6 -51.9,28.6 -51.8,44.7 0.4,20.9 11.3,32.5 55,50.5 81,33.2 116.1,74.6 141.9,120.9 41.9,74.9 64,161 35.9,176.6 -26.9,15.1 -82.7,-46.3 -106.7,-59.2 -78.2,-42.3 -115.7,38.4 -43.1,87.3 195.6,131.7 250.3,231.9 250.3,231.9 l 164.6,-92.1"
         style="fill:#f35c4b;fill-opacity:1;fill-rule:nonzero;stroke:none"
         id="path156" /><path
         d="m 19872.7,8590.6 761.1,1238.02 c 24.9,44.8 30.6,97.67 16.1,146.66 l -364.3,1289.82 c -30,100.9 -125.6,167 -226.5,137.1 -101.1,-29.9 -161.9,-127.8 -131.9,-228.7 l 367,-1233.29 -586.4,-1258.11 c -26.3,-61.4 130.2,-154.4 164.9,-91.5"
         style="fill:#f35c4b;fill-opacity:1;fill-rule:nonzero;stroke:none"
         id="path158" /><path
         d="m 19975.4,10855.8 c 0,0 -129.7,255.6 -135.4,307.7 -56,513.5 -214.1,748.6 -214.1,748.6 137.3,32.4 465.2,-74.4 602.4,-394.7 54.4,-126.7 187,-518.6 187,-518.6 l -439.9,-143"
         style="fill:#e7e3e2;fill-opacity:1;fill-rule:nonzero;stroke:none"
         id="path160" /><path
         d="m 11140,2620.8 c -22.3,-34.2 -85.9,-101.2 -165.9,-144.9 -203.5,-110.8 -382.4,-326.4 -306.5,-407.8 101.4,-108.6 275.1,-82 398.2,29 169.3,152.8 266.8,271.3 419.9,336.6 88.4,37.8 109.3,161.2 112.8,187.1 H 11140"
         style="fill:#f35c4b;fill-opacity:1;fill-rule:nonzero;stroke:none"
         id="path162" /><path
         d="m 11576.9,2620.8 c -29.1,-57.1 -74.3,-102.6 -134.8,-139.1 -52.5,-31.7 -108.4,-57.4 -161.2,-88.6 -59.2,-34.8 -103.2,-78.6 -151.5,-126.3 -73.1,-72.2 -162.4,-136.4 -270.4,-131.8 -83.2,3.4 -142.9,23.5 -164.8,95.7 -44.4,-66.5 -59.6,-127.2 -26.6,-162.6 101.4,-108.6 275.1,-82 398.2,29 169.3,152.8 266.8,271.3 419.9,336.6 88.4,37.8 109.3,161.2 112.8,187.1 h -21.6"
         style="fill:#1d2047;fill-opacity:1;fill-rule:nonzero;stroke:none"
         id="path164" /><path
         d="m 12255.4,2623.1 c 22.9,-34.9 97.4,-103.4 179.2,-148 207.7,-113.2 390.5,-333.5 313,-416.5 -103.5,-111 -281,-83.9 -406.8,29.5 -173,156.1 -272.5,277.2 -429,344 -90.3,38.5 -111.7,164.6 -115.3,191 h 458.9"
         style="fill:#f35c4b;fill-opacity:1;fill-rule:nonzero;stroke:none"
         id="path166" /><path
         d="m 11818.6,2623.1 c 29.7,-58.3 75.9,-104.8 137.7,-142.1 53.8,-32.4 110.8,-58.6 164.8,-90.5 60.5,-35.5 105.3,-80.3 154.7,-129 74.7,-73.8 166,-139.3 276.3,-134.7 85.1,3.5 145.9,24 168.4,97.8 45.3,-67.9 60.9,-130 27.1,-166 -103.5,-111 -281,-83.9 -406.8,29.5 -173,156.1 -272.5,277.2 -429,344 -90.3,38.5 -111.7,164.6 -115.3,191 h 22.1"
         style="fill:#1d2047;fill-opacity:1;fill-rule:nonzero;stroke:none"
         id="path168" /><path
         d="m 11151,10456.4 h 1184.8 v 1833.04 H 11151 Z"
         style="fill:#111228;fill-opacity:1;fill-rule:nonzero;stroke:none"
         id="path170" /><path
         d="m 12434.1,11481.2 c 0,-191.2 -434.8,-609 -550.2,-609 h -204.6 c -154.9,0 -575,428.8 -570.2,607.8 v 736.8 c 0,226 183.2,409.2 409.2,409.2 h 506.7 c 226,0 409.1,-183.2 409.1,-409.2 v -735.6"
         style="fill:#f35c4b;fill-opacity:1;fill-rule:nonzero;stroke:none"
         id="path172" /><path
         d="m 11605.9,11802.6 c -19.5,1.3 -37.4,3.5 -55.5,3.5 -17.9,0.4 -35.8,2.8 -54,1.3 -36.2,-3.1 -72.1,-15 -105.3,-33 l -1.5,0.4 0.3,1.4 c 29.6,23.8 65.2,41.7 103.9,49.3 19.2,4 39.4,6.9 59.1,3.3 19.3,-4.3 38.8,-10.4 53.9,-24.2 l 0.1,-1.7 -1,-0.3"
         style="fill:#1d2047;fill-opacity:1;fill-rule:nonzero;stroke:none"
         id="path174" /><path
         d="m 11932,11804.6 c 16.1,13.9 36.4,19.9 56.5,24.2 20.4,3.5 41.4,0.8 61.4,-3.3 40.2,-7.4 77.5,-25.3 109.1,-49.2 l 0.2,-1.6 -1.5,-0.4 c -34.8,18.3 -72.4,30.1 -110.3,33.2 -19,1.4 -37.8,-1 -56.5,-1.4 -18.9,0 -37.7,-2.2 -57.9,-3.6 l -1.4,1 0.4,1.1"
         style="fill:#1d2047;fill-opacity:1;fill-rule:nonzero;stroke:none"
         id="path176" /><g
         id="g178"><g
           id="g180"
           clip-path="url(#clipPath184)"><path
             d="m 11707.2,11339.4 h 121.102 v 41.898 H 11707.2 Z"
             style="fill:#e14d3d;fill-opacity:1;fill-rule:nonzero;stroke:none"
             id="path186" /></g></g><path
         d="m 11568.8,11588 c 0,-53.3 -29.3,-96.5 -65.4,-96.5 -36.1,0 -65.4,43.2 -65.4,96.5 0,53.4 29.3,96.6 65.4,96.6 36.1,0 65.4,-43.2 65.4,-96.6"
         style="fill:#1d2047;fill-opacity:1;fill-rule:nonzero;stroke:none"
         id="path188" /><path
         d="m 12073.2,11588 c 0,-53.3 -29.2,-96.5 -65.4,-96.5 -36,0 -65.3,43.2 -65.3,96.5 0,53.4 29.3,96.6 65.3,96.6 36.2,0 65.4,-43.2 65.4,-96.6"
         style="fill:#1d2047;fill-opacity:1;fill-rule:nonzero;stroke:none"
         id="path190" /><path
         d="m 11490.8,11273.1 c -65.8,0 -119.1,35 -119.1,78.1 0,43.2 53.3,78.1 119.1,78.1 65.7,0 119,-34.9 119,-78.1 0,-43.1 -53.3,-78.1 -119,-78.1"
         style="fill:#f14c43;fill-opacity:1;fill-rule:nonzero;stroke:none"
         id="path192" /><path
         d="m 12043.2,11273.1 c -65.7,0 -119,35 -119,78.1 0,43.2 53.3,78.1 119,78.1 65.7,0 119,-34.9 119,-78.1 0,-43.1 -53.3,-78.1 -119,-78.1"
         style="fill:#f14c43;fill-opacity:1;fill-rule:nonzero;stroke:none"
         id="path194" /><path
         d="m 11584.5,11183.7 c 0,0 227.8,-62.6 363,8.9 0,0 -73.4,-147.6 -177.6,-147.6 -104.4,0 -185.4,138.7 -185.4,138.7"
         style="fill:#ffffff;fill-opacity:1;fill-rule:nonzero;stroke:none"
         id="path196" /><path
         d="m 11348.2,5511.1 v -1073 h 640.5 v 1073 h -640.5"
         style="fill:#272c60;fill-opacity:1;fill-rule:nonzero;stroke:none"
         id="path198" /><path
         d="m 11910.2,3668.3 v 919.1 h -483.4 v -919.1 h 483.4"
         style="fill:#272c60;fill-opacity:1;fill-rule:nonzero;stroke:none"
         id="path200" /><path
         d="m 13189.2,3700.5 h -3069.7 l -0.6,-869.8 h 338.5 v 534.2 h 2391.5 v -534.2 h 338.5 l 1.8,869.8"
         style="fill:#272c60;fill-opacity:1;fill-rule:nonzero;stroke:none"
         id="path202" /><path
         d="m 10692.2,2782.5 c 0,-229.6 -186.1,-415.7 -415.7,-415.7 -229.5,0 -415.66,186.1 -415.66,415.7 0,229.5 186.16,415.6 415.66,415.6 229.6,0 415.7,-186.1 415.7,-415.6"
         style="fill:#69b1dc;fill-opacity:1;fill-rule:nonzero;stroke:none"
         id="path204" /><path
         d="m 10518.6,2782.5 c 0,-133.7 -108.4,-242.1 -242.1,-242.1 -133.6,0 -242,108.4 -242,242.1 0,133.7 108.4,242.1 242,242.1 133.7,0 242.1,-108.4 242.1,-242.1"
         style="fill:#272c60;fill-opacity:1;fill-rule:nonzero;stroke:none"
         id="path206" /><path
         d="m 13453.7,2782.5 c 0,-229.6 -186.2,-415.7 -415.7,-415.7 -229.5,0 -415.7,186.1 -415.7,415.7 0,229.5 186.2,415.6 415.7,415.6 229.5,0 415.7,-186.1 415.7,-415.6"
         style="fill:#69b1dc;fill-opacity:1;fill-rule:nonzero;stroke:none"
         id="path208" /><path
         d="m 13280.1,2782.5 c 0,-133.7 -108.4,-242.1 -242.1,-242.1 -133.6,0 -242.1,108.4 -242.1,242.1 0,133.7 108.5,242.1 242.1,242.1 133.7,0 242.1,-108.4 242.1,-242.1"
         style="fill:#272c60;fill-opacity:1;fill-rule:nonzero;stroke:none"
         id="path210" /><path
         d="m 12680.4,6332.8 h -1884.5 v 603.5 h 1884.5 v -603.5"
         style="fill:#272c60;fill-opacity:1;fill-rule:nonzero;stroke:none"
         id="path212" /><path
         d="m 13062.2,6844 c 0,-102.1 -82.7,-184.8 -184.8,-184.8 h -2340.1 c -102,0 -184.7,82.7 -184.7,184.8 l -232.5,3208.4 c 0,102.1 82.7,184.7 184.7,184.7 h 2752.8 c 102,0 184.7,-82.6 184.7,-184.7 L 13062.2,6844"
         style="fill:#7fd3c6;fill-opacity:1;fill-rule:nonzero;stroke:none"
         id="path214" /><path
         d="m 13430.2,5618.5 c 0,-81.6 -60.2,-147.8 -134.5,-147.8 h -3228.9 c -74.36,0 -134.59,66.2 -134.59,147.8 v 714.3 c 0,81.7 60.23,147.9 134.59,147.9 h 3228.9 c 74.3,0 134.5,-66.2 134.5,-147.9 v -714.3"
         style="fill:#7fd3c6;fill-opacity:1;fill-rule:nonzero;stroke:none"
         id="path216" /><path
         d="m 12584.4,7185 -1722,7.1 -141.6,2694.84 271.7,522.16 421.6,147 h 716.3 l 375.9,-154 247,-518.74 L 12584.4,7185"
         style="fill:#85cef2;fill-opacity:1;fill-rule:nonzero;stroke:none"
         id="path218" /><path
         d="m 12761.4,6474.8 -2107.7,10.2 -17.2,859 h 2137 l -12.1,-869.2"
         style="fill:#2b458b;fill-opacity:1;fill-rule:nonzero;stroke:none"
         id="path220" /><path
         d="M 12002.2,10947.7 H 11533 c 20.5,-110.8 45.3,-307.8 -16.7,-391.9 -9.8,-13.3 -20.9,-195.5 252.3,-195.5 250.2,0 259.6,185 252.3,195.5 -66,95.2 -40.6,284.5 -18.7,391.9"
         style="fill:#f35c4b;fill-opacity:1;fill-rule:nonzero;stroke:none"
         id="path222" /><path
         d="m 9230.54,8046.4 c 0,-15.5 -12.61,-27.9 -28.16,-27.9 H 7083.42 c -15.49,0 -28.09,12.4 -28.09,27.9 l -196.42,1557.68 c 0,15.59 12.54,28.09 28.12,28.09 h 2118.92 c 15.5,0 28.07,-12.5 28.07,-28.09 L 9230.54,8046.4"
         style="fill:#1d2047;fill-opacity:1;fill-rule:nonzero;stroke:none"
         id="path224" /><path
         d="M 9659.71,7888.5 H 7051.86 V 8071 h 2607.85 v -182.5"
         style="fill:#3758b0;fill-opacity:1;fill-rule:nonzero;stroke:none"
         id="path226" /><path
         d="m 8358.71,8818.3 c 0,-179.6 -145.58,-325.1 -325.12,-325.1 -179.53,0 -325.13,145.5 -325.13,325.1 0,179.5 145.6,325.1 325.13,325.1 179.54,0 325.12,-145.6 325.12,-325.1"
         style="fill:#ffffff;fill-opacity:1;fill-rule:nonzero;stroke:none"
         id="path228" /><path
         d="m 14367.5,9323.1 v -949.9 c 0,-154.3 82.4,-222.8 184,-222.8 101.7,0 184.1,45 184.1,222.8 v 949.9 h -368.1"
         style="fill:#69b1dc;fill-opacity:1;fill-rule:nonzero;stroke:none"
         id="path230" /><path
         d="m 14367.5,9193.6 h 186.199 v 44.3008 H 14367.5 Z"
         style="fill:#589fcb;fill-opacity:1;fill-rule:nonzero;stroke:none"
         id="path232" /><path
         d="m 14367.5,8946 v -572.8 c 0,-154.3 82.4,-222.8 184,-222.8 101.7,0 184.1,45 184.1,222.8 V 8946 h -368.1"
         style="fill:#3758b0;fill-opacity:1;fill-rule:nonzero;stroke:none"
         id="path234" /><path
         d="m 14771.8,9248.3 c 0,-5.8 -4.6,-10.4 -10.1,-10.4 h -420.4 c -5.6,0 -10.1,4.6 -10.1,10.4 v 101.6 c 0,5.8 4.5,10.5 10.1,10.5 h 420.4 c 5.5,0 10.1,-4.7 10.1,-10.5 v -101.6"
         style="fill:#69b1dc;fill-opacity:1;fill-rule:nonzero;stroke:none"
         id="path236" /><path
         d="m 14729.8,8299.7 c 0,0 0.1,0 0.1,0.1 0,-0.1 -0.1,-0.1 -0.1,-0.1 m 0.2,0.8 v 0 0 m 0.1,0.8 v 0.1 -0.1 m 0.2,0.8 c 0,0.1 0,0.1 0,0.1 v -0.1 m 0.1,0.8 c 0,0.1 0,0.1 0,0.1 0,0 0,0 0,-0.1 m 0.1,0.9 v 0 0 m 0.2,0.8 c 0,0 0,0 0,0.1 0,-0.1 0,-0.1 0,-0.1 m 0.1,0.8 v 0.1 -0.1 m 0.1,0.8 c 0,0 0,0.1 0,0.2 0,-0.1 0,-0.2 0,-0.2 m 0.1,0.8 c 0,0.1 0,0.1 0.1,0.2 -0.1,-0.1 -0.1,-0.1 -0.1,-0.2 m 0.2,0.8 c 0,0.1 0,0.2 0,0.2 0,0 0,-0.1 0,-0.2 m 0.1,0.9 c 0,0 0,0.1 0,0.2 0,-0.1 0,-0.2 0,-0.2 m 0.1,0.8 c 0,0.1 0,0.1 0,0.2 0,-0.1 0,-0.1 0,-0.2 m 0.1,0.9 c 0,0 0,0.1 0,0.2 0,-0.1 0,-0.2 0,-0.2 m 0.1,0.8 c 0,0.1 0.1,0.1 0.1,0.2 0,-0.1 -0.1,-0.1 -0.1,-0.2 m 0.2,0.8 c 0,0.1 0,0.2 0,0.2 0,0 0,-0.1 0,-0.2 m 0.1,0.9 c 0,0.1 0,0.1 0,0.2 0,-0.1 0,-0.1 0,-0.2 m 0.1,0.8 c 0,0.1 0,0.2 0,0.3 0,-0.1 0,-0.2 0,-0.3 m 0.1,0.9 c 0,0.1 0,0.2 0,0.2 0,0 0,-0.1 0,-0.2 m 0.1,0.8 c 0,0.1 0,0.2 0,0.3 0,-0.1 0,-0.2 0,-0.3 m 0.1,0.9 c 0,0.1 0,0.2 0,0.3 0,-0.1 0,-0.2 0,-0.3 m 0.1,0.9 c 0,0.1 0,0.1 0,0.2 0,-0.1 0,-0.1 0,-0.2 m 0.1,0.8 c 0,0.1 0,0.2 0,0.3 0,-0.1 0,-0.2 0,-0.3 m 0.1,0.9 c 0,0.1 0,0.2 0.1,0.3 -0.1,-0.1 -0.1,-0.2 -0.1,-0.3 m 0.1,0.9 c 0,0.1 0,0.2 0.1,0.3 -0.1,-0.1 -0.1,-0.2 -0.1,-0.3 m 0.1,0.8 c 0,0.1 0,0.2 0.1,0.3 -0.1,-0.1 -0.1,-0.2 -0.1,-0.3 m 0.1,0.9 c 0,0.1 0,0.2 0,0.3 0,-0.1 0,-0.2 0,-0.3 m 0.1,0.9 c 0,0.1 0,0.2 0,0.3 0,-0.1 0,-0.2 0,-0.3 m 0.1,0.9 c 0,0.1 0,0.2 0,0.3 0,-0.1 0,-0.2 0,-0.3 m 0.1,0.9 c 0,0.1 0,0.2 0,0.3 0,-0.1 0,-0.2 0,-0.3 m 0.1,0.9 c 0,0.1 0,0.2 0,0.3 0,-0.1 0,-0.2 0,-0.3 m 0.1,0.9 c 0,0.1 0,0.1 0,0.2 0,-0.1 0,-0.1 0,-0.2 m 0.1,0.8 c 0,0.2 0,0.3 0,0.4 0,-0.1 0,-0.2 0,-0.4 m 0,0.9 c 0.1,0.2 0.1,0.3 0.1,0.4 0,-0.1 0,-0.3 -0.1,-0.4 m 0.1,0.9 c 0,0.1 0.1,0.3 0.1,0.4 0,-0.1 -0.1,-0.2 -0.1,-0.4 m 0.1,0.9 c 0,0.2 0,0.3 0,0.4 0,-0.1 0,-0.2 0,-0.4 m 0.1,0.9 c 0,0.2 0,0.3 0,0.4 0,-0.1 0,-0.2 0,-0.4 m 0.1,0.9 c 0,0.2 0,0.3 0,0.4 0,-0.1 0,-0.2 0,-0.4 m 0.1,1 c 0,0.1 0,0.2 0,0.4 0,-0.2 0,-0.3 0,-0.4 m 0,0.9 c 0,0.1 0,0.2 0.1,0.3 -0.1,-0.1 -0.1,-0.2 -0.1,-0.3 m 0.1,0.9 c 0,0.1 0,0.3 0,0.4 0,-0.1 0,-0.3 0,-0.4 m 0.1,0.9 c 0,0.1 0,0.3 0,0.4 0,-0.1 0,-0.3 0,-0.4 m 0,1 c 0.1,0.1 0.1,0.2 0.1,0.3 0,-0.1 0,-0.2 -0.1,-0.3 m 0.1,0.9 c 0,0.1 0,0.2 0,0.3 0,-0.1 0,-0.2 0,-0.3 m 0.1,0.9 c 0,0.1 0,0.3 0,0.4 0,-0.1 0,-0.3 0,-0.4 m 0,0.9 c 0.1,0.2 0.1,0.3 0.1,0.4 0,-0.1 0,-0.2 -0.1,-0.4 m 0.1,1 c 0,0.1 0,0.2 0,0.4 0,-0.2 0,-0.3 0,-0.4 m 0.1,0.9 c 0,0.1 0,0.3 0,0.4 0,-0.1 0,-0.3 0,-0.4 m 0,0.9 c 0,0.2 0,0.3 0.1,0.5 -0.1,-0.2 -0.1,-0.3 -0.1,-0.5 m 0.1,1 c 0,0.1 0,0.3 0,0.4 0,-0.1 0,-0.3 0,-0.4 m 0,0.9 c 0,0.2 0.1,0.3 0.1,0.5 0,-0.2 -0.1,-0.3 -0.1,-0.5 m 0.1,1 c 0,0.1 0,0.3 0,0.4 0,-0.1 0,-0.3 0,-0.4 m 0,0.9 c 0.1,0.2 0.1,0.3 0.1,0.5 0,-0.2 0,-0.3 -0.1,-0.5 m 0.1,1 c 0,0.1 0,0.3 0,0.4 0,-0.1 0,-0.3 0,-0.4 m 0,1 c 0,0.1 0.1,0.2 0.1,0.3 0,-0.1 -0.1,-0.2 -0.1,-0.3 m 0.1,0.9 c 0,0.1 0,0.3 0,0.4 0,-0.1 0,-0.3 0,-0.4 m 0,1 c 0,0.1 0,0.3 0.1,0.4 -0.1,-0.1 -0.1,-0.3 -0.1,-0.4 m 0.1,0.9 c 0,0.2 0,0.3 0,0.5 0,-0.2 0,-0.3 0,-0.5 m 0,1 c 0,0.1 0,0.3 0,0.4 0,-0.1 0,-0.2 0,-0.4 m 0.1,1 c 0,0.1 0,0.2 0,0.4 0,-0.2 0,-0.3 0,-0.4 m 0,1 c 0,0.1 0,0.3 0,0.4 0,-0.1 0,-0.3 0,-0.4 m 0,0.9 c 0,0.2 0,0.3 0,0.5 0,-0.2 0,-0.3 0,-0.5 m 0.1,1 c 0,0.2 0,0.3 0,0.4 0,-0.1 0,-0.2 0,-0.4 m 0,1 c 0,0.1 0,0.3 0,0.4 0,-0.1 0,-0.3 0,-0.4 m 0,1 c 0,0.1 0,0.2 0,0.4 0,-0.1 0,-0.3 0,-0.4 m 0.1,1 c 0,0.1 0,0.2 0,0.3 0,-0.1 0,-0.2 0,-0.3 m 0,1 c 0,0.1 0,0.2 0,0.4 0,-0.2 0,-0.3 0,-0.4 m 0,1 c 0,0.1 0,0.2 0,0.3 0,-0.1 0,-0.2 0,-0.3 m 0,1 c 0,0.1 0,0.3 0,0.4 0,-0.1 0,-0.3 0,-0.4 m 0.1,1 c 0,0.1 0,0.2 0,0.3 0,-0.1 0,-0.2 0,-0.3 m 0,1 c 0,0.2 0,0.3 0,0.5 0,-0.2 0,-0.3 0,-0.5 m 0,1 c 0,0.2 0,0.3 0,0.5 0,-0.2 0,-0.3 0,-0.5 m 0,1 c 0,0.1 0,0.3 0,0.4 0,-0.1 0,-0.3 0,-0.4 m 0,1 c 0,0.2 0,0.3 0,0.4 0,-0.1 0,-0.2 0,-0.4 m 0,1.1 c 0,0.1 0,0.2 0,0.4 0,-0.2 0,-0.3 0,-0.4 m 0,1 c 0,0.1 0,0.2 0,0.3 0,-0.1 0,-0.2 0,-0.3 m 0.1,1 c 0,0.1 0,0.2 0,0.3 0,-0.1 0,-0.2 0,-0.3"
         style="fill:#86a9ae;fill-opacity:1;fill-rule:nonzero;stroke:none"
         id="path238" /><path
         d="m 14553.7,8946 h 181.902 v 247.602 H 14553.7 Z"
         style="fill:#4980a4;fill-opacity:1;fill-rule:nonzero;stroke:none"
         id="path240" /><path
         d="m 14553.7,9193.6 h 181.902 v 44.3008 H 14553.7 Z"
         style="fill:#3e7498;fill-opacity:1;fill-rule:nonzero;stroke:none"
         id="path242" /><path
         d="M 14553.7,8150.4 V 8946 h 181.9 v -572.8 c 0,-1.3 0,-2.6 0,-3.8 0,-0.1 0,-0.2 0,-0.3 0,-0.3 -0.1,-0.5 -0.1,-0.7 0,-0.1 0,-0.2 0,-0.3 0,-0.2 0,-0.4 0,-0.6 0,-0.2 0,-0.3 0,-0.4 0,-0.3 0,-0.5 0,-0.7 0,-0.1 0,-0.2 0,-0.4 0,-0.2 0,-0.4 0,-0.6 0,-0.1 0,-0.3 0,-0.4 0,-0.2 0,-0.3 0,-0.5 0,-0.2 0,-0.3 0,-0.5 0,-0.2 0,-0.4 0,-0.5 0,-0.2 0,-0.3 0,-0.5 0,-0.2 0,-0.4 0,-0.7 0,-0.1 0,-0.2 0,-0.3 0,-0.2 -0.1,-0.4 -0.1,-0.6 0,-0.1 0,-0.3 0,-0.4 0,-0.2 0,-0.4 0,-0.7 0,-0.1 0,-0.2 0,-0.3 0,-0.2 0,-0.4 0,-0.6 0,-0.2 0,-0.3 0,-0.4 0,-0.2 0,-0.5 0,-0.7 0,-0.1 0,-0.2 0,-0.3 0,-0.2 -0.1,-0.4 -0.1,-0.6 0,-0.2 0,-0.3 0,-0.4 0,-0.2 0,-0.4 0,-0.6 0,-0.1 0,-0.3 0,-0.4 0,-0.2 0,-0.4 0,-0.6 0,-0.1 0,-0.2 0,-0.4 0,-0.1 0,-0.3 -0.1,-0.5 0,-0.2 0,-0.3 0,-0.5 0,-0.1 0,-0.3 0,-0.5 0,-0.1 0,-0.3 0,-0.4 0,-0.2 0,-0.4 0,-0.6 0,-0.2 0,-0.3 0,-0.4 0,-0.2 -0.1,-0.4 -0.1,-0.6 0,-0.1 0,-0.3 0,-0.4 0,-0.2 0,-0.3 0,-0.5 0,-0.2 0,-0.3 0,-0.5 0,-0.1 0,-0.3 0,-0.5 -0.1,-0.1 -0.1,-0.3 -0.1,-0.4 0,-0.2 0,-0.4 0,-0.6 0,-0.1 0,-0.3 0,-0.4 0,-0.2 0,-0.4 0,-0.6 0,-0.1 -0.1,-0.2 -0.1,-0.3 0,-0.2 0,-0.4 0,-0.6 0,-0.1 0,-0.3 0,-0.4 0,-0.2 0,-0.4 0,-0.5 0,-0.2 0,-0.3 -0.1,-0.5 0,-0.1 0,-0.3 0,-0.5 0,-0.1 0,-0.3 0,-0.4 0,-0.2 0,-0.3 0,-0.5 0,-0.2 -0.1,-0.3 -0.1,-0.5 0,-0.1 0,-0.3 0,-0.5 0,-0.1 0,-0.3 0,-0.4 0,-0.2 0,-0.3 0,-0.5 -0.1,-0.2 -0.1,-0.3 -0.1,-0.5 0,-0.1 0,-0.3 0,-0.5 0,-0.1 0,-0.3 0,-0.4 0,-0.2 -0.1,-0.3 -0.1,-0.5 0,-0.2 0,-0.3 0,-0.4 0,-0.2 0,-0.4 0,-0.6 0,-0.1 0,-0.2 -0.1,-0.4 0,-0.2 0,-0.3 0,-0.5 0,-0.1 0,-0.3 0,-0.4 0,-0.2 -0.1,-0.4 -0.1,-0.6 0,-0.1 0,-0.2 0,-0.3 0,-0.2 0,-0.4 0,-0.6 0,-0.1 0,-0.2 -0.1,-0.3 0,-0.2 0,-0.4 0,-0.6 0,-0.1 0,-0.3 0,-0.4 0,-0.2 -0.1,-0.3 -0.1,-0.5 0,-0.1 0,-0.3 0,-0.4 0,-0.2 0,-0.4 0,-0.6 -0.1,-0.1 -0.1,-0.2 -0.1,-0.3 0,-0.2 0,-0.4 0,-0.5 0,-0.2 0,-0.3 0,-0.4 -0.1,-0.2 -0.1,-0.4 -0.1,-0.6 0,-0.1 0,-0.2 0,-0.4 0,-0.1 -0.1,-0.3 -0.1,-0.5 0,-0.1 0,-0.2 0,-0.4 0,-0.1 0,-0.3 -0.1,-0.5 0,-0.1 0,-0.2 0,-0.4 0,-0.1 0,-0.3 0,-0.5 0,-0.1 -0.1,-0.3 -0.1,-0.4 0,-0.2 0,-0.3 0,-0.5 0,-0.1 0,-0.2 -0.1,-0.4 0,-0.1 0,-0.3 0,-0.5 0,-0.1 0,-0.2 0,-0.4 -0.1,-0.2 -0.1,-0.4 -0.1,-0.6 0,-0.1 0,-0.1 0,-0.2 0,-0.2 -0.1,-0.4 -0.1,-0.6 0,-0.1 0,-0.2 0,-0.3 0,-0.2 -0.1,-0.4 -0.1,-0.6 0,-0.1 0,-0.2 0,-0.3 0,-0.2 0,-0.4 -0.1,-0.6 0,-0.1 0,-0.2 0,-0.3 0,-0.2 0,-0.4 -0.1,-0.6 0,-0.1 0,-0.2 0,-0.3 0,-0.2 0,-0.4 -0.1,-0.6 0,-0.1 0,-0.2 0,-0.3 0,-0.2 0,-0.4 0,-0.6 -0.1,-0.1 -0.1,-0.2 -0.1,-0.3 0,-0.2 0,-0.3 0,-0.5 -0.1,-0.1 -0.1,-0.2 -0.1,-0.3 0,-0.2 0,-0.4 0,-0.6 -0.1,-0.1 -0.1,-0.2 -0.1,-0.3 0,-0.2 0,-0.4 -0.1,-0.6 0,-0.1 0,-0.2 0,-0.3 0,-0.2 0,-0.4 -0.1,-0.6 0,-0.1 0,-0.1 0,-0.2 0,-0.2 0,-0.4 -0.1,-0.6 0,-0.1 0,-0.2 0,-0.3 0,-0.2 0,-0.4 -0.1,-0.6 0,-0.1 0,-0.2 0,-0.3 0,-0.2 -0.1,-0.4 -0.1,-0.6 0,0 0,-0.1 0,-0.2 0,-0.2 -0.1,-0.4 -0.1,-0.6 0,-0.1 0,-0.2 0,-0.3 0,-0.2 -0.1,-0.4 -0.1,-0.6 0,-0.1 0,-0.1 0,-0.2 -0.1,-0.2 -0.1,-0.4 -0.1,-0.7 0,0 0,-0.1 0,-0.2 -0.1,-0.2 -0.1,-0.4 -0.1,-0.6 0,-0.1 -0.1,-0.1 -0.1,-0.2 0,-0.2 0,-0.4 -0.1,-0.6 0,-0.1 0,-0.2 0,-0.2 0,-0.3 0,-0.5 -0.1,-0.7 0,-0.1 0,-0.1 0,-0.2 0,-0.2 -0.1,-0.4 -0.1,-0.6 0,-0.1 0,-0.2 0,-0.2 -0.1,-0.2 -0.1,-0.5 -0.1,-0.7 0,0 0,-0.1 0,-0.2 -0.1,-0.2 -0.1,-0.4 -0.1,-0.6 -0.1,-0.1 -0.1,-0.1 -0.1,-0.2 0,-0.2 0,-0.4 -0.1,-0.6 0,-0.1 0,-0.2 0,-0.2 0,-0.2 -0.1,-0.5 -0.1,-0.7 v -0.1 c -0.1,-0.3 -0.1,-0.5 -0.1,-0.7 0,-0.1 0,-0.1 0,-0.1 -0.1,-0.3 -0.1,-0.5 -0.2,-0.8 v 0 c 0,-0.3 -0.1,-0.5 -0.1,-0.8 0,0 0,0 0,-0.1 -0.1,-0.2 -0.1,-0.5 -0.1,-0.7 0,0 0,0 0,-0.1 -0.1,-0.2 -0.1,-0.5 -0.2,-0.7 v -0.1 c 0,-0.3 -0.1,-0.5 -0.1,-0.8 v 0 c -0.1,-0.2 -0.1,-0.5 -0.1,-0.7 0,-0.1 -0.1,-0.1 -0.1,-0.1 -20.1,-116.2 -91.2,-148.7 -176.1,-149.3"
         style="fill:#274080;fill-opacity:1;fill-rule:nonzero;stroke:none"
         id="path244" /><path
         d="m 14761.7,9237.9 h -208 v 122.5 h 208 c 5.5,0 10.1,-4.7 10.1,-10.5 v -101.6 c 0,-5.8 -4.6,-10.4 -10.1,-10.4"
         style="fill:#4980a4;fill-opacity:1;fill-rule:nonzero;stroke:none"
         id="path246" /><path
         d="m 15432.5,9323.1 v -949.9 c 0,-154.3 82.4,-222.8 184.1,-222.8 101.7,0 184.1,45 184.1,222.8 v 949.9 h -368.2"
         style="fill:#69b1dc;fill-opacity:1;fill-rule:nonzero;stroke:none"
         id="path248" /><path
         d="m 15432.5,9193.6 h 186.301 v 44.3008 H 15432.5 Z"
         style="fill:#589fcb;fill-opacity:1;fill-rule:nonzero;stroke:none"
         id="path250" /><path
         d="m 15432.6,8370.9 c 0.8,-152.7 82.9,-220.5 184,-220.5 101.2,0 183.3,44.6 184,220.5 h -368"
         style="fill:#f35c4b;fill-opacity:1;fill-rule:nonzero;stroke:none"
         id="path252" /><path
         d="m 15836.9,9248.3 c 0,-5.8 -4.5,-10.4 -10.2,-10.4 h -420.3 c -5.6,0 -10.1,4.6 -10.1,10.4 v 101.6 c 0,5.8 4.5,10.5 10.1,10.5 h 420.3 c 5.7,0 10.2,-4.7 10.2,-10.5 v -101.6"
         style="fill:#69b1dc;fill-opacity:1;fill-rule:nonzero;stroke:none"
         id="path254" /><path
         d="m 15797,8313 v 0 0 m 0.2,1.7 v 0 0 m 0.1,0.8 v 0.1 -0.1 m 0.1,0.9 v 0 0 m 0.1,0.9 h 0.1 c 0,0 0,0 -0.1,0 m 0.2,0.8 v 0.1 -0.1 m 0.1,0.9 c 0,0 0,0 0,0.1 0,-0.1 0,-0.1 0,-0.1 m 0.1,0.8 c 0,0.1 0,0.1 0,0.2 0,-0.1 0,-0.1 0,-0.2 m 0.1,0.9 c 0,0.1 0,0.1 0,0.1 v -0.1 m 0,0.9 c 0.1,0 0.1,0.1 0.1,0.1 0,0 0,-0.1 -0.1,-0.1 m 0.1,0.9 c 0,0 0.1,0 0.1,0.1 0,-0.1 -0.1,-0.1 -0.1,-0.1 m 0.1,0.8 c 0,0.1 0,0.2 0.1,0.2 -0.1,0 -0.1,-0.1 -0.1,-0.2 m 0.1,0.9 c 0,0.1 0,0.1 0,0.2 0,-0.1 0,-0.1 0,-0.2 m 0.1,0.9 c 0,0.1 0,0.1 0,0.2 0,-0.1 0,-0.1 0,-0.2 m 0.1,0.9 c 0,0.1 0,0.1 0,0.2 0,-0.1 0,-0.1 0,-0.2 m 0.1,0.9 c 0,0.1 0,0.1 0,0.2 0,-0.1 0,-0.1 0,-0.2 m 0.1,0.9 c 0,0 0,0.1 0,0.2 0,-0.1 0,-0.2 0,-0.2 m 0.1,0.9 c 0,0 0,0.1 0,0.2 0,-0.1 0,-0.1 0,-0.2 m 0,0.9 c 0.1,0.1 0.1,0.1 0.1,0.2 0,-0.1 0,-0.2 -0.1,-0.2 m 0.1,0.9 c 0,0.1 0,0.2 0,0.2 0,0 0,-0.1 0,-0.2 m 0.1,0.9 c 0,0.1 0,0.2 0,0.3 0,-0.1 0,-0.2 0,-0.3 m 0.1,0.9 c 0,0.1 0,0.2 0,0.3 0,-0.1 0,-0.2 0,-0.3 m 0.1,0.9 c 0,0.1 0,0.2 0,0.3 0,-0.1 0,-0.2 0,-0.3 m 0,0.9 c 0,0.1 0,0.2 0.1,0.4 -0.1,-0.1 -0.1,-0.3 -0.1,-0.4 m 0.1,0.9 c 0,0.1 0,0.3 0,0.4 0,-0.1 0,-0.3 0,-0.4 m 0.1,1 c 0,0.1 0,0.2 0,0.3 0,-0.1 0,-0.2 0,-0.3 m 0,0.9 c 0,0.1 0.1,0.2 0.1,0.3 0,-0.1 -0.1,-0.2 -0.1,-0.3 m 0.1,0.9 c 0,0.1 0,0.3 0,0.4 0,-0.1 0,-0.3 0,-0.4 m 0.1,0.9 c 0,0.2 0,0.3 0,0.4 0,-0.1 0,-0.2 0,-0.4 m 0,1 c 0,0.1 0,0.2 0.1,0.4 -0.1,-0.2 -0.1,-0.3 -0.1,-0.4 m 0.1,0.9 c 0,0.1 0,0.3 0,0.4 0,-0.2 0,-0.3 0,-0.4 m 0,0.9 c 0.1,0.2 0.1,0.3 0.1,0.5 0,-0.2 0,-0.3 -0.1,-0.5 m 0.1,1 c 0,0.1 0,0.3 0,0.4 0,-0.1 0,-0.3 0,-0.4 m 0.1,0.9 c 0,0.2 0,0.3 0,0.5 0,-0.2 0,-0.3 0,-0.5 m 0,1 c 0,0.1 0,0.3 0,0.4 0,-0.1 0,-0.3 0,-0.4 m 0.1,0.9 c 0,0.2 0,0.3 0,0.5 0,-0.2 0,-0.3 0,-0.5 m 0,1 c 0,0.1 0,0.3 0,0.4 0,-0.1 0,-0.3 0,-0.4 m 0.1,1 c 0,0.1 0,0.2 0,0.3 0,-0.1 0,-0.2 0,-0.3 m 0,0.9 c 0,0.1 0,0.3 0,0.4 0,-0.1 0,-0.3 0,-0.4 m 0.1,1 c 0,0.1 0,0.3 0,0.5 0,-0.2 0,-0.4 0,-0.5 m 0,0.9 c 0,0.2 0,0.4 0,0.6 0,-0.2 0,-0.4 0,-0.6 m 0,1 c 0.1,0.2 0.1,0.3 0.1,0.5 0,-0.2 0,-0.3 -0.1,-0.5 m 0.1,1 c 0,0.1 0,0.3 0,0.5 0,-0.2 0,-0.4 0,-0.5 m 0,1 c 0,0.1 0,0.3 0,0.5 0,-0.2 0,-0.4 0,-0.5 m 0.1,0.9 c 0,0.2 0,0.4 0,0.6 0,-0.2 0,-0.4 0,-0.6 m 0,1 c 0,0.2 0,0.4 0,0.5 0,-0.1 0,-0.3 0,-0.5 m 0,1 c 0,0.2 0,0.3 0,0.5 0,-0.2 0,-0.3 0,-0.5 m 0.1,1 c 0,0.2 0,0.3 0,0.5 0,-0.2 0,-0.3 0,-0.5 m 0,1 c 0,0.1 0,0.3 0,0.4 0,-0.1 0,-0.3 0,-0.4 m 0,1 c 0,0.2 0,0.4 0,0.6 0,-0.2 0,-0.4 0,-0.6 m 0,1 c 0,0.2 0,0.4 0.1,0.6 -0.1,-0.2 -0.1,-0.4 -0.1,-0.6 m 0.1,1 c 0,0.2 0,0.4 0,0.7 0,-0.3 0,-0.5 0,-0.7 m 0,1 c 0,0.2 0,0.4 0,0.7 0,-0.3 0,-0.5 0,-0.7 m 0,1 c 0,0.2 0,0.5 0,0.7 0,-0.2 0,-0.5 0,-0.7 m 0,1 c 0,0.2 0,0.4 0,0.6 0,-0.2 0,-0.4 0,-0.6 m 0,1 c 0,0.2 0,0.4 0,0.6 0,-0.2 0,-0.4 0,-0.6 m 0,1 c 0,0.3 0.1,0.5 0.1,0.7 0,-0.2 -0.1,-0.4 -0.1,-0.7 m 0.1,1 c 0,0.3 0,0.5 0,0.7 0,-0.2 0,-0.4 0,-0.7 m 0,1.1 c 0,0.1 0,0.3 0,0.5 0,-0.2 0,-0.4 0,-0.5 m 0,1 c 0,0.1 0,0.2 0,0.3 0,-0.1 0,-0.2 0,-0.3"
         style="fill:#86a9ae;fill-opacity:1;fill-rule:nonzero;stroke:none"
         id="path256" /><path
         d="m 15715.5,8171.7 c 50.8,27.8 84.7,86.6 85.1,199.2 h -181.8 v 822.7 h 181.9 v -820.4 0 c 0,-1.3 0,-2.6 0,-3.8 0,-0.1 0,-0.2 0,-0.3 0,-0.2 0,-0.3 0,-0.5 0,-0.2 0,-0.4 0,-0.5 0,-0.1 0,-0.3 0,-0.4 0,-0.2 0,-0.4 0,-0.7 0,-0.1 0,-0.2 0,-0.3 0,-0.2 -0.1,-0.4 -0.1,-0.7 0,-0.1 0,-0.3 0,-0.4 0,-0.2 0,-0.4 0,-0.6 0,-0.1 0,-0.2 0,-0.4 0,-0.2 0,-0.4 0,-0.6 0,-0.1 0,-0.2 0,-0.3 0,-0.2 0,-0.5 0,-0.7 0,-0.1 0,-0.2 0,-0.3 0,-0.3 0,-0.5 0,-0.7 0,-0.1 0,-0.2 0,-0.3 0,-0.3 0,-0.5 0,-0.7 0,-0.1 0,-0.3 0,-0.4 -0.1,-0.2 -0.1,-0.4 -0.1,-0.6 0,-0.2 0,-0.3 0,-0.4 0,-0.2 0,-0.4 0,-0.6 0,-0.2 0,-0.4 0,-0.6 0,-0.1 0,-0.3 0,-0.4 0,-0.2 0,-0.4 0,-0.5 0,-0.2 0,-0.3 0,-0.5 -0.1,-0.2 -0.1,-0.4 -0.1,-0.5 0,-0.2 0,-0.3 0,-0.5 0,-0.1 0,-0.3 0,-0.5 0,-0.1 0,-0.3 0,-0.5 0,-0.1 0,-0.3 0,-0.4 0,-0.2 0,-0.4 0,-0.6 0,-0.1 -0.1,-0.3 -0.1,-0.4 0,-0.2 0,-0.4 0,-0.5 0,-0.2 0,-0.4 0,-0.5 0,-0.2 0,-0.4 0,-0.5 0,-0.2 0,-0.3 0,-0.5 0,-0.2 0,-0.3 -0.1,-0.5 0,-0.1 0,-0.3 0,-0.4 0,-0.2 0,-0.4 0,-0.6 0,-0.1 0,-0.3 0,-0.4 0,-0.2 0,-0.4 0,-0.5 0,-0.2 -0.1,-0.4 -0.1,-0.6 0,-0.1 0,-0.3 0,-0.4 0,-0.2 0,-0.4 0,-0.6 0,-0.1 0,-0.2 0,-0.3 0,-0.2 -0.1,-0.4 -0.1,-0.6 0,-0.1 0,-0.3 0,-0.4 0,-0.2 0,-0.4 0,-0.5 0,-0.2 0,-0.3 0,-0.5 0,-0.1 -0.1,-0.3 -0.1,-0.5 0,-0.1 0,-0.3 0,-0.4 0,-0.2 0,-0.3 0,-0.5 0,-0.2 0,-0.3 0,-0.5 0,-0.1 -0.1,-0.3 -0.1,-0.5 0,-0.1 0,-0.3 0,-0.4 0,-0.2 0,-0.4 0,-0.5 0,-0.2 0,-0.3 -0.1,-0.5 0,-0.1 0,-0.3 0,-0.5 0,-0.1 0,-0.3 0,-0.4 0,-0.2 0,-0.4 0,-0.5 -0.1,-0.2 -0.1,-0.3 -0.1,-0.4 0,-0.2 0,-0.4 0,-0.6 0,-0.1 0,-0.2 0,-0.4 0,-0.2 -0.1,-0.3 -0.1,-0.5 0,-0.1 0,-0.3 0,-0.4 0,-0.2 0,-0.4 0,-0.6 0,-0.1 -0.1,-0.2 -0.1,-0.3 0,-0.2 0,-0.4 0,-0.6 0,-0.1 0,-0.2 0,-0.3 0,-0.2 -0.1,-0.4 -0.1,-0.6 0,-0.1 0,-0.3 0,-0.4 0,-0.2 0,-0.4 0,-0.5 -0.1,-0.2 -0.1,-0.3 -0.1,-0.4 0,-0.2 0,-0.4 0,-0.6 0,-0.1 0,-0.2 0,-0.3 -0.1,-0.2 -0.1,-0.4 -0.1,-0.6 0,-0.1 0,-0.2 0,-0.3 0,-0.2 -0.1,-0.4 -0.1,-0.6 0,-0.1 0,-0.2 0,-0.3 0,-0.2 0,-0.4 -0.1,-0.7 0,0 0,-0.1 0,-0.2 0,-0.2 0,-0.5 0,-0.7 0,-0.1 0,-0.1 -0.1,-0.2 0,-0.2 0,-0.5 0,-0.7 0,-0.1 0,-0.2 0,-0.2 -0.1,-0.3 -0.1,-0.5 -0.1,-0.7 0,-0.1 0,-0.2 0,-0.2 0,-0.3 -0.1,-0.5 -0.1,-0.7 0,-0.1 0,-0.1 0,-0.2 0,-0.3 -0.1,-0.5 -0.1,-0.7 0,-0.1 0,-0.1 0,-0.2 0,-0.2 0,-0.5 -0.1,-0.7 0,-0.1 0,-0.1 0,-0.2 0,-0.2 0,-0.5 -0.1,-0.7 0,-0.1 0,-0.1 0,-0.2 0,-0.2 0,-0.5 0,-0.7 -0.1,0 -0.1,-0.1 -0.1,-0.2 0,-0.2 0,-0.5 0,-0.7 0,-0.1 -0.1,-0.1 -0.1,-0.1 0,-0.3 0,-0.5 0,-0.8 0,0 0,-0.1 -0.1,-0.1 0,-0.3 0,-0.5 0,-0.8 0,0 0,0 0,-0.1 -0.1,-0.2 -0.1,-0.5 -0.1,-0.7 0,-0.1 0,-0.1 0,-0.2 -0.1,-0.2 -0.1,-0.5 -0.1,-0.7 0,-0.1 0,-0.1 0,-0.1 -0.1,-0.3 -0.1,-0.6 -0.1,-0.8 v -0.1 c -0.1,-0.3 -0.1,-0.5 -0.1,-0.8 h -0.1 c 0,-0.3 0,-0.6 -0.1,-0.9 v 0 c 0,-0.3 0,-0.6 -0.1,-0.8 v -0.1 c 0,-0.2 0,-0.5 -0.1,-0.8 v 0 c 0,-0.6 -0.1,-1.1 -0.2,-1.7 v 0 c -10.1,-75.7 -40.2,-118.8 -81.5,-141.3"
         style="fill:#4980a4;fill-opacity:1;fill-rule:nonzero;stroke:none"
         id="path258" /><path
         d="m 15618.8,9193.6 h 181.898 v 44.3008 H 15618.8 Z"
         style="fill:#3e7498;fill-opacity:1;fill-rule:nonzero;stroke:none"
         id="path260" /><path
         d="m 15618.8,8150.4 v 220.5 h 181.8 c -0.4,-112.6 -34.3,-171.4 -85.1,-199.2 -28,-15.2 -61.2,-21 -96.7,-21.3"
         style="fill:#a94338;fill-opacity:1;fill-rule:nonzero;stroke:none"
         id="path262" /><path
         d="m 15826.7,9237.9 h -207.9 v 122.5 h 207.9 c 5.7,0 10.2,-4.7 10.2,-10.5 v -101.6 c 0,-5.8 -4.5,-10.4 -10.2,-10.4"
         style="fill:#4980a4;fill-opacity:1;fill-rule:nonzero;stroke:none"
         id="path264" /><path
         d="m 14900,9323.1 v -949.9 c 0,-154.3 82.4,-222.8 184.1,-222.8 101.6,0 184,45 184,222.8 v 949.9 H 14900"
         style="fill:#69b1dc;fill-opacity:1;fill-rule:nonzero;stroke:none"
         id="path266" /><path
         d="m 14900,9193.6 h 186.199 v 44.3008 H 14900 Z"
         style="fill:#589fcb;fill-opacity:1;fill-rule:nonzero;stroke:none"
         id="path268" /><path
         d="m 14900,8582 v -208.8 c 0,-154.3 82.4,-222.8 184.1,-222.8 101.6,0 184,45 184,222.8 V 8582 H 14900"
         style="fill:#f4d818;fill-opacity:1;fill-rule:nonzero;stroke:none"
         id="path270" /><path
         d="m 15304.4,9248.3 c 0,-5.8 -4.6,-10.4 -10.2,-10.4 h -420.3 c -5.7,0 -10.2,4.6 -10.2,10.4 v 101.6 c 0,5.8 4.5,10.5 10.2,10.5 h 420.3 c 5.6,0 10.2,-4.7 10.2,-10.5 v -101.6"
         style="fill:#69b1dc;fill-opacity:1;fill-rule:nonzero;stroke:none"
         id="path272" /><path
         d="m 15268,8360 v 0.1 -0.1 m 0,1 c 0,0.1 0,0.1 0,0.1 0,0 0,0 0,-0.1 m 0,1 c 0,0.1 0,0.1 0,0.2 0,-0.1 0,-0.1 0,-0.2 m 0,1 c 0,0.1 0,0.2 0,0.2 0,0 0,-0.1 0,-0.2 m 0.1,1 c 0,0.1 0,0.2 0,0.4 0,-0.2 0,-0.3 0,-0.4 m 0,1 c 0,0.1 0,0.3 0,0.4 0,-0.1 0,-0.3 0,-0.4 m 0,1 c 0,0.2 0,0.3 0,0.4 0,-0.1 0,-0.2 0,-0.4 m 0,1.1 c 0,0.1 0,0.2 0,0.4 0,-0.2 0,-0.3 0,-0.4 m 0,1 c 0,0.1 0,0.2 0,0.3 0,-0.1 0,-0.2 0,-0.3 m 0,1 c 0,0.1 0,0.2 0,0.3 0,-0.1 0,-0.2 0,-0.3"
         style="fill:#86a9ae;fill-opacity:1;fill-rule:nonzero;stroke:none"
         id="path274" /><path
         d="m 15086.2,8582 h 181.902 v 611.602 H 15086.2 Z"
         style="fill:#4980a4;fill-opacity:1;fill-rule:nonzero;stroke:none"
         id="path276" /><path
         d="m 15086.2,9193.6 h 181.902 v 44.3008 H 15086.2 Z"
         style="fill:#3e7498;fill-opacity:1;fill-rule:nonzero;stroke:none"
         id="path278" /><path
         d="M 15086.2,8150.4 V 8582 h 181.9 v -208.8 c 0,-1.3 0,-2.6 0,-3.8 0,-0.1 0,-0.2 0,-0.3 0,-0.3 0,-0.5 0,-0.7 0,-0.1 0,-0.2 0,-0.3 0,-0.2 0,-0.4 0,-0.6 0,-0.2 0,-0.3 0,-0.4 0,-0.3 0,-0.5 0,-0.7 0,-0.1 0,-0.2 0,-0.4 0,-0.2 0,-0.4 0,-0.6 0,-0.1 0,-0.3 0,-0.4 0,-0.2 0,-0.4 0,-0.6 0,-0.2 0,-0.3 0,-0.4 -0.1,-0.2 -0.1,-0.5 -0.1,-0.8 0,0 0,-0.1 0,-0.2 0,-0.3 0,-0.5 0,-0.8 0,-0.1 0,-0.1 0,-0.2 0,-0.3 0,-0.6 0,-0.9 0,0 0,0 0,-0.1 0,-0.3 0,-0.6 0,-0.9 v -0.1 c -4,-165.6 -83.7,-208.9 -181.8,-209.6"
         style="fill:#a89b15;fill-opacity:1;fill-rule:nonzero;stroke:none"
         id="path280" /><path
         d="m 15294.2,9237.9 h -208 v 122.5 h 208 c 5.6,0 10.2,-4.7 10.2,-10.5 v -101.6 c 0,-5.8 -4.6,-10.4 -10.2,-10.4"
         style="fill:#4980a4;fill-opacity:1;fill-rule:nonzero;stroke:none"
         id="path282" /><path
         d="m 14282.8,8007.3 h 1602.6 v 738.6 h -1602.6 z m 1720.1,-115 h -1837.7 v 968.6 h 1837.7 v -968.6"
         style="fill:#1d2047;fill-opacity:1;fill-rule:nonzero;stroke:none"
         id="path284" /><path
         d="m 12443.3,7204.9 c -653.6,0 -623.3,-508.6 -623.3,-508.6 l -26.8,-4076.8 h 483.6 c 75.8,655 482,3319.2 505.3,4252 6,237.2 -77.4,333.4 -338.8,333.4"
         style="fill:#3758b0;fill-opacity:1;fill-rule:nonzero;stroke:none"
         id="path286" /><path
         d="m 11605.6,2619.5 -4,4073 c 0,0 30.3,508.9 -623.3,508.9 -261.4,0 -344.7,-96.3 -338.8,-333.5 23.4,-932.8 407.9,-3593.7 482.3,-4248.4 h 483.8"
         style="fill:#3758b0;fill-opacity:1;fill-rule:nonzero;stroke:none"
         id="path288" /><path
         d="m 11414.1,10556.1 -421.6,-147 -271.7,-522.16 -190.4,-3538.14 c 0,0 837,-265.2 894,-47 143.5,550.5 -10.3,4254.3 -10.3,4254.3"
         style="fill:#e7e3e2;fill-opacity:1;fill-rule:nonzero;stroke:none"
         id="path290" /><path
         d="m 12506.3,10402.1 -375.9,154 c 0,0 -244.9,-3360.4 -94.4,-4310.8 26.8,-169.3 828.1,101.2 828.1,101.2 l -110.8,3536.86 -247,518.74"
         style="fill:#e7e3e2;fill-opacity:1;fill-rule:nonzero;stroke:none"
         id="path292" /><path
         d="m 6075.48,7348.6 h 11198.6 v 538.801 H 6075.48 Z"
         style="fill:#69b1dc;fill-opacity:1;fill-rule:nonzero;stroke:none"
         id="path294" /><path
         d="M 17274.1,7348.6 H 6075.48 V 7583 H 17274.1 v -234.4"
         style="fill:#4693bf;fill-opacity:1;fill-rule:nonzero;stroke:none"
         id="path296" /><path
         d="M 8529.89,7169.4 H 8343.67 L 9253.91,4169.2 H 7088.59 l 910.43,3000.2 h -186.5 L 6303.68,2196.5 h 186.36 L 7034.57,3991 H 9308.03 L 9852.5,2196.5 h 186.4 L 8529.89,7169.4"
         style="fill:#272c60;fill-opacity:1;fill-rule:nonzero;stroke:none"
         id="path298" /><path
         d="M 7070.64,7349.4 V 7102 c 0,-54.7 32.88,-99.1 73.35,-99.1 h 2054.62 c 40.47,0 73.28,44.4 73.28,99.1 v 247.4 H 7070.64"
         style="fill:#272c60;fill-opacity:1;fill-rule:nonzero;stroke:none"
         id="path300" /><path
         d="m 15537,7169.4 h -186.3 L 16261,4169.2 h -2165.3 l 910.3,3000.2 h -186.3 l -1509,-4972.9 h 186.5 L 14041.6,3991 H 16315 l 544.6,-1794.5 h 186.3 L 15537,7169.4"
         style="fill:#272c60;fill-opacity:1;fill-rule:nonzero;stroke:none"
         id="path302" /><path
         d="M 14077.7,7349.4 V 7102 c 0,-54.7 32.8,-99.1 73.4,-99.1 h 2054.6 c 40.4,0 73.4,44.4 73.4,99.1 v 247.4 h -2201.4"
         style="fill:#272c60;fill-opacity:1;fill-rule:nonzero;stroke:none"
         id="path304" /><path
         d="m 11860.1,7635.8 c 0,0 -87,-64.3 -349.3,-114.2 -71.3,-13.6 -245.1,-0.1 -296.4,97.4 -6.9,13.3 -10.3,52.4 1,61.5 14.6,11.8 28.9,11.2 66.6,-8.5 69.9,-36.7 118.8,-37 165.8,-28.1 76,14.5 148.2,49.2 142.8,77.6 -5.2,27.4 -80,30.3 -102.7,39.3 -74.7,29.6 -40.6,102.1 35.2,80.4 204.2,-58.7 305.1,-38.5 305.1,-38.5 l 31.9,-166.9"
         style="fill:#f35c4b;fill-opacity:1;fill-rule:nonzero;stroke:none"
         id="path306" /><path
         d="m 11796,7855.5 1352.6,434.4 -403.8,1327.26 c 0,0 -29.6,233.04 -74.3,393.24 -55.8,200.6 -189.8,381.9 -164.2,391.7 97.4,37.5 310,0.3 424.3,-261.7 l 641.9,-1922.8 c 17,-49.8 12.3,-104.6 -12.9,-151 -25.1,-46.3 -68.5,-80.1 -119.6,-93 l -1583.7,-401.8 c -15.5,-3.9 -128,261.9 -60.3,283.7"
         style="fill:#d1cac8;fill-opacity:1;fill-rule:nonzero;stroke:none"
         id="path308" /><path
         d="m 11627.7,7655.1 c 0,0 87,-64.2 349.3,-114.3 71.2,-13.5 245,0 296.3,97.6 7,13.3 10.3,52.4 -1,61.5 -14.6,11.8 -28.9,11.1 -66.6,-8.7 -69.9,-36.6 -118.7,-36.9 -165.8,-27.9 -75.9,14.5 -148.2,49 -142.8,77.5 5.3,27.3 80,30.3 102.8,39.4 74.6,29.6 40.5,102.1 -35.3,80.3 -204.2,-58.8 -305.1,-38.4 -305.1,-38.4 l -31.8,-167"
         style="fill:#f35c4b;fill-opacity:1;fill-rule:nonzero;stroke:none"
         id="path310" /><path
         d="m 11691.7,7874.8 -1352.6,434.4 403.9,1327.23 c 0,0 29.5,233.08 74.2,393.27 55.9,200.7 189.9,381.9 164.2,391.7 -97.4,37.5 -310,0.3 -424.3,-261.7 L 9915.21,8237.1 c -17,-50 -12.3,-104.8 12.84,-151.1 25.17,-46.3 68.55,-80 119.65,-93.1 l 1583.7,-401.7 c 15.6,-4.1 128,261.9 60.3,283.6"
         style="fill:#d1cac8;fill-opacity:1;fill-rule:nonzero;stroke:none"
         id="path312" /><path
         d="m 11198.7,9779.84 c -13.5,0 -24.4,10.84 -24.4,24.21 0,10.73 -0.7,26.01 -1.8,45.05 -8.7,165.1 -11.9,581 270.4,711.8 12.1,5.7 80,3.7 67.6,-1.5 -312.4,-132 -297.8,-551.9 -289.5,-707.78 1,-20.04 1.8,-36.21 1.8,-47.57 0,-13.37 -10.8,-24.21 -24.1,-24.21"
         style="fill:#3758b0;fill-opacity:1;fill-rule:nonzero;stroke:none"
         id="path314" /><path
         d="m 12213.1,9623.89 c -1.1,0 -2.2,0.05 -3.3,0.19 -13.2,1.69 -22.5,13.85 -20.7,27.21 0.9,6.83 80.3,656.21 -213.1,919.51 -5.6,5 33.1,8.1 43.6,0 319,-243.5 221.3,-896.61 217.5,-925.9 -1.6,-12.2 -12.1,-21.01 -24,-21.01"
         style="fill:#3758b0;fill-opacity:1;fill-rule:nonzero;stroke:none"
         id="path316" /><path
         d="m 11042.6,9799.11 c 0,89.11 72.2,161.38 161.4,161.38 89.1,0 161.3,-72.27 161.3,-161.38 0,-89.09 -72.2,-161.33 -161.3,-161.33 -89.2,0 -161.4,72.24 -161.4,161.33"
         style="fill:#3758b0;fill-opacity:1;fill-rule:nonzero;stroke:none"
         id="path318" /><path
         d="m 11110.8,9799.11 c 0,51.4 41.7,93.18 93.2,93.18 51.4,0 93.1,-41.78 93.1,-93.18 0,-51.44 -41.7,-93.1 -93.1,-93.1 -51.5,0 -93.2,41.66 -93.2,93.1"
         style="fill:#272c60;fill-opacity:1;fill-rule:nonzero;stroke:none"
         id="path320" /><path
         d="m 11934.3,8760.9 c -27.1,0 -49.9,6.7 -68.4,20.2 -58.2,42.6 -54.9,138.5 -53.1,195.9 l 0.4,9.1 c 2,66.8 29.1,652.6 358.1,652.6 h 84.8 c 194.6,0 311,-218.4 336.6,-631.5 6.1,-98.5 -14.8,-170.7 -60.6,-208.8 -39.4,-32.9 -96,-40.3 -168.1,-22.4 l 7.8,31.4 c 61.5,-15.3 108.6,-10.1 139.6,15.9 47.4,39.4 52.9,120.7 49.1,182 -17.1,274.1 -83.7,601.01 -304.4,601.01 h -84.8 c -298.5,0 -323.9,-557.61 -325.9,-621.21 l -0.3,-9.1 c -1.7,-51 -4.5,-136.3 39.8,-168.8 26.2,-19.1 67.7,-18.8 123.4,1.1 l 10.9,-30.5 c -31.8,-11.3 -60.2,-16.9 -84.9,-16.9"
         style="fill:#3758b0;fill-opacity:1;fill-rule:nonzero;stroke:none"
         id="path322" /><path
         d="m 11851.2,9153.7 c -2.4,0 -4.7,0.2 -7.1,0.6 -22,3.9 -36.6,24.9 -32.8,46.8 53,297.8 180.8,461.76 360,461.76 h 84.8 c 119.2,0 274.5,-77.26 337.6,-445.66 3.8,-21.9 -11,-42.9 -33,-46.6 -22,-3.8 -42.9,11 -46.6,33 -29.5,172.7 -98.4,378.5 -258,378.5 h -84.8 c -173.6,0 -248.3,-214.8 -280.5,-395.1 -3.4,-19.6 -20.4,-33.3 -39.6,-33.3"
         style="fill:#272c5f;fill-opacity:1;fill-rule:nonzero;stroke:none"
         id="path324" /><path
         d="m 11990.3,8796.6 c -1.4,22.4 15.6,41.5 37.9,42.8 l 24.9,1.5 c 22.2,1.3 41.4,-15.7 42.8,-38 1.2,-22.2 -15.7,-41.4 -37.9,-42.7 l -25,-1.5 c -22.3,-1.3 -41.4,15.7 -42.7,37.9"
         style="fill:#272c5f;fill-opacity:1;fill-rule:nonzero;stroke:none"
         id="path326" /><path
         d="m 12404.8,8796.7 c 1.4,22.3 -15.6,41.4 -37.9,42.7 l -24.9,1.5 c -22.4,1.3 -41.4,-15.7 -42.8,-38 -1.2,-22.2 15.7,-41.4 38,-42.7 l 25,-1.5 c 22.2,-1.3 41.3,15.7 42.6,38"
         style="fill:#272c5f;fill-opacity:1;fill-rule:nonzero;stroke:none"
         id="path328" /><path
         d="m 12110.5,12175.6 c 0,0 -316.4,-286.2 -815.2,-108.9 0,0 53,-165.6 -60.7,-308.9 0,0 -32.6,-61.4 15.1,-263.3 33,-139.2 -121.5,-248.1 184.8,-754.4 166.5,-275.3 -63.3,-557 -134.2,-714 -70.8,-157 -202.5,460.7 -288.6,693.7 -86,232.9 -125.3,1164.6 65.8,1567.8 149.4,315.2 321.6,374.1 716.6,374.1 348.7,0 567.1,-75.3 665.8,-408.2 133.1,-448.8 167.2,-1141.3 5.1,-1591.9 -162.1,-450.7 -114,-549.4 -91.2,-663.38 24.9,-124.42 -577.8,234.28 -354.4,673.48 227.8,448.1 334.1,615.2 324,929.1 -10.1,314 -164.5,131.7 -232.9,574.8"
         style="fill:#1d2047;fill-opacity:1;fill-rule:nonzero;stroke:none"
         id="path330" /><path
         d="m 11275.5,11495.9 c 0,-101 66.5,-182.9 -34.5,-182.9 -101.1,0 -183,81.9 -183,182.9 0,101 81.9,182.9 183,182.9 101,0 34.5,-81.9 34.5,-182.9"
         style="fill:#f35c4b;fill-opacity:1;fill-rule:nonzero;stroke:none"
         id="path332" /><path
         d="m 11214,11390.7 c -58.1,0 -105.2,47.1 -105.2,105.2 0,58.2 47.1,105.2 105.2,105.2 58.1,0 19.8,-47 19.8,-105.2 0,-58.1 38.3,-105.2 -19.8,-105.2"
         style="fill:#f14c43;fill-opacity:1;fill-rule:nonzero;stroke:none"
         id="path334" /><path
         d="m 12268.9,11495.9 c 0,-101 -66.5,-182.9 34.5,-182.9 101.1,0 182.9,81.9 182.9,182.9 0,101 -81.8,182.9 -182.9,182.9 -101,0 -34.5,-81.9 -34.5,-182.9"
         style="fill:#f35c4b;fill-opacity:1;fill-rule:nonzero;stroke:none"
         id="path336" /><path
         d="m 12330.4,11390.7 c -58.1,0 -19.9,47.1 -19.9,105.2 0,58.2 -38.2,105.2 19.9,105.2 58.2,0 105.3,-47 105.3,-105.2 0,-58.1 -47.1,-105.2 -105.3,-105.2"
         style="fill:#f14c43;fill-opacity:1;fill-rule:nonzero;stroke:none"
         id="path338" /></g></g></svg>
