<?xml version="1.0" encoding="UTF-8" standalone="no"?>
<svg
   xmlns:dc="http://purl.org/dc/elements/1.1/"
   xmlns:cc="http://creativecommons.org/ns#"
   xmlns:rdf="http://www.w3.org/1999/02/22-rdf-syntax-ns#"
   xmlns:svg="http://www.w3.org/2000/svg"
   xmlns="http://www.w3.org/2000/svg"
   xmlns:sodipodi="http://sodipodi.sourceforge.net/DTD/sodipodi-0.dtd"
   xmlns:inkscape="http://www.inkscape.org/namespaces/inkscape"
   version="1.1"
   id="svg2"
   xml:space="preserve"
   width="893.33331"
   height="586.66669"
   viewBox="0 0 893.33331 586.66669"
   sodipodi:docname="2004.i203.002_paramedic_emergency_ambulance_cartoon_set-10.eps"><metadata
     id="metadata8"><rdf:RDF><cc:Work
         rdf:about=""><dc:format>image/svg+xml</dc:format><dc:type
           rdf:resource="http://purl.org/dc/dcmitype/StillImage" /></cc:Work></rdf:RDF></metadata><defs
     id="defs6"><clipPath
       clipPathUnits="userSpaceOnUse"
       id="clipPath46"><path
         d="m 1082.83,835.18 c -54.66,-12.149 -124.432,-20.969 -140.623,-11.86 -16.195,9.11 -31.402,126.469 -61.742,124.489 -26.434,-1.719 -2.942,-220.579 56.676,-222.707 43.711,-1.571 156.349,-32.903 156.349,-32.903 z"
         id="path44" /></clipPath><linearGradient
       x1="0"
       y1="0"
       x2="1"
       y2="0"
       gradientUnits="userSpaceOnUse"
       gradientTransform="matrix(0,339.304,339.304,0,981.597,687.66)"
       spreadMethod="pad"
       id="linearGradient52"><stop
         style="stop-opacity:1;stop-color:#ffb7a7"
         offset="0"
         id="stop48" /><stop
         style="stop-opacity:1;stop-color:#ff9595"
         offset="1"
         id="stop50" /></linearGradient><clipPath
       clipPathUnits="userSpaceOnUse"
       id="clipPath70"><path
         d="m 4368.99,845.582 c -25.88,183.768 -441.85,93.727 -676.19,63.02 -196.45,-25.743 -421.58,-79.422 -585.63,-78.204 -123.91,0.934 -225.03,2.082 -340.29,-111.429 h 1559.85 c 0,0 56.95,22.32 42.26,126.613 z"
         id="path68" /></clipPath><linearGradient
       x1="0"
       y1="0"
       x2="1"
       y2="0"
       gradientUnits="userSpaceOnUse"
       gradientTransform="matrix(1700.64,0,0,-1700.64,2741.87,838.4)"
       spreadMethod="pad"
       id="linearGradient78"><stop
         style="stop-opacity:1;stop-color:#ffb7a7"
         offset="0"
         id="stop72" /><stop
         style="stop-opacity:1;stop-color:#ffb7a7"
         offset="0.45454149"
         id="stop74" /><stop
         style="stop-opacity:1;stop-color:#ff9595"
         offset="1"
         id="stop76" /></linearGradient><clipPath
       clipPathUnits="userSpaceOnUse"
       id="clipPath88"><path
         d="m 4818.53,799.41 c 0,0 -30.72,151.602 -225.25,209.74 -66.96,-24.791 -108.26,-8.93 -210.07,93.55 0,0 -25.31,11.6 -39.81,-4.22 -63.59,-69.35 128.27,-265.71 150.11,-351.968 30.54,30.16 42.04,54.109 97.62,66.75 53.81,12.218 207.5,-6.973 227.4,-13.852 z"
         id="path86" /></clipPath><linearGradient
       x1="0"
       y1="0"
       x2="1"
       y2="0"
       gradientUnits="userSpaceOnUse"
       gradientTransform="matrix(414.975,-16.8615,-16.8615,-414.975,4318.95,931.14)"
       spreadMethod="pad"
       id="linearGradient96"><stop
         style="stop-opacity:1;stop-color:#ffb7a7"
         offset="0"
         id="stop90" /><stop
         style="stop-opacity:1;stop-color:#ff9595"
         offset="0.77275572"
         id="stop92" /><stop
         style="stop-opacity:1;stop-color:#ff9595"
         offset="1"
         id="stop94" /></linearGradient><clipPath
       clipPathUnits="userSpaceOnUse"
       id="clipPath108"><path
         d="m 4896.94,719.34 c -6.81,0 -13.69,0.629 -20.45,1.93 -58.27,11.16 -70.1,48.269 -75.32,79.75 -103.97,38.339 -163.23,102.351 -195.07,163.812 -38.87,75.038 -36.87,146.278 -25.47,162.278 11.63,9.39 42.26,17.2 76.24,25.15 -0.28,-1.24 -0.38,-2.6 -0.29,-4.07 1.52,-24.33 34.72,-34.71 54.19,-55.38 v 0 0 0 0 c -0.1,12.22 3.24,26.32 6.46,39.24 2.68,9.99 5.24,19.7 5.67,27.22 0.3,3.61 0.12,6.64 -0.74,8.93 25.48,7.1 46.68,15.01 55.56,24.63 0,0 9.05,51.66 28.88,51.66 10.96,0 29.98,-37.53 99.19,-52.91 7.44,-1.65 15.21,-2.35 23.27,-2.35 22.53,0 47.31,5.47 73.11,10.94 25.79,5.47 52.6,10.94 79.2,10.94 51.62,0 102.46,-20.6 143.53,-101.76 -102.71,-12.31 -187.74,-102.2 -247.98,-228.139 -44.7,-14.109 -84.31,-14.879 -76.87,-61.992 52.08,-7.438 68.19,-19.84 71.21,-41.367 0.73,-38 -35.69,-58.52 -74.32,-58.512"
         id="path106" /></clipPath><linearGradient
       x1="0"
       y1="0"
       x2="1"
       y2="0"
       gradientUnits="userSpaceOnUse"
       gradientTransform="matrix(678.659,0,0,-678.659,4578.51,981.91)"
       spreadMethod="pad"
       id="linearGradient114"><stop
         style="stop-opacity:1;stop-color:#ffb7a7"
         offset="0"
         id="stop110" /><stop
         style="stop-opacity:1;stop-color:#ff9595"
         offset="1"
         id="stop112" /></linearGradient><clipPath
       clipPathUnits="userSpaceOnUse"
       id="clipPath136"><path
         d="m 4710.77,1092.81 c -1.52,9.91 2.61,24.87 6.46,39.24 -3.22,-12.92 -6.56,-27.02 -6.46,-39.24 m 12.13,66.46 c 0.2,3.49 -0.05,6.51 -0.96,8.87 0.08,0.02 0.15,0.04 0.22,0.06 0.86,-2.29 1.04,-5.32 0.74,-8.93"
         id="path134" /></clipPath><linearGradient
       x1="0"
       y1="0"
       x2="1"
       y2="0"
       gradientUnits="userSpaceOnUse"
       gradientTransform="matrix(678.659,0,0,-678.659,4578.51,981.91)"
       spreadMethod="pad"
       id="linearGradient142"><stop
         style="stop-opacity:1;stop-color:#d09293"
         offset="0"
         id="stop138" /><stop
         style="stop-opacity:1;stop-color:#d07783"
         offset="1"
         id="stop140" /></linearGradient><clipPath
       clipPathUnits="userSpaceOnUse"
       id="clipPath190"><path
         d="m 4823.01,2879.66 c 0,0 -121.64,-142.65 -131.56,-233.81 38.96,-74.62 -51.17,-122.62 -125.52,-245.05 0,0 83.51,-55.55 260.79,-23.25 177.28,32.29 284.65,173.02 284.65,173.02 -105.48,70.96 -228.24,59.55 -264.58,132.29 -29.96,59.95 -31.38,129.4 -23.78,196.8 z"
         id="path188" /></clipPath><linearGradient
       x1="0"
       y1="0"
       x2="1"
       y2="0"
       gradientUnits="userSpaceOnUse"
       gradientTransform="matrix(-87.8245,482.153,482.153,87.8245,4856.67,2376.75)"
       spreadMethod="pad"
       id="linearGradient196"><stop
         style="stop-opacity:1;stop-color:#ffb7a7"
         offset="0"
         id="stop192" /><stop
         style="stop-opacity:1;stop-color:#ff9595"
         offset="1"
         id="stop194" /></linearGradient><clipPath
       clipPathUnits="userSpaceOnUse"
       id="clipPath208"><path
         d="m 4677.46,2607.95 c -66.96,0 -221.22,68.44 -324.06,313.99 -9.68,23.12 -115.52,270.86 169.65,327.89 0,0 66.95,-131.43 226.59,-135.65 0,0 31.22,-80.32 64.48,-80.31 5.32,0 10.71,2.06 16.02,6.85 0,0 -10.44,64.56 18.26,77.22 9.81,4.82 19.05,6.98 27.62,6.98 34.27,0 57.69,-34.51 62.08,-70.93 5.73,-47.52 -19.51,-95.78 -68.42,-110.39 10.54,-188.98 -93.97,-301.78 -170.35,-332.23 -5.5,-2.19 -12.9,-3.42 -21.87,-3.42 m -118.82,103.61 c 1.23,-1.2 21.05,-20.08 51.04,-20.08 10.17,0 21.51,2.17 33.69,7.94 49.28,23.33 63.49,79.37 63.49,79.37 v 0 0 0 0 c 0,0 -51.73,-3.35 -90.74,-21.81 -0.67,-0.32 -1.33,-0.64 -1.99,-0.96 -0.17,-0.08 -0.35,-0.17 -0.52,-0.25 -3.46,-1.64 -6.84,-3.47 -10.13,-5.44 -30.37,-17.64 -44.9,-38.71 -44.9,-38.71 l 0.06,-0.06"
         id="path206" /></clipPath><linearGradient
       x1="0"
       y1="0"
       x2="1"
       y2="0"
       gradientUnits="userSpaceOnUse"
       gradientTransform="matrix(-197.113,856.766,856.766,197.113,4731.12,2606.15)"
       spreadMethod="pad"
       id="linearGradient214"><stop
         style="stop-opacity:1;stop-color:#ffb7a7"
         offset="0"
         id="stop210" /><stop
         style="stop-opacity:1;stop-color:#ff9595"
         offset="1"
         id="stop212" /></linearGradient><clipPath
       clipPathUnits="userSpaceOnUse"
       id="clipPath234"><path
         d="m 4558.64,2711.56 -0.06,0.06 c 0,0 14.53,21.07 44.9,38.71 -25.59,-15.35 -44.9,-38.71 -44.9,-38.71 0,0 0.02,-0.02 0.06,-0.06 m 55.49,44.46 c 0.66,0.32 1.32,0.64 1.99,0.96 39.01,18.46 90.74,21.81 90.74,21.81 0,0 -62.09,-8.5 -92.73,-22.77"
         id="path232" /></clipPath><linearGradient
       x1="0"
       y1="0"
       x2="1"
       y2="0"
       gradientUnits="userSpaceOnUse"
       gradientTransform="matrix(-197.113,856.766,856.766,197.113,4731.12,2606.15)"
       spreadMethod="pad"
       id="linearGradient240"><stop
         style="stop-opacity:1;stop-color:#d09293"
         offset="0"
         id="stop236" /><stop
         style="stop-opacity:1;stop-color:#d07783"
         offset="1"
         id="stop238" /></linearGradient><clipPath
       clipPathUnits="userSpaceOnUse"
       id="clipPath290"><path
         d="m 5369.47,2002.52 c 0,0 95.89,-244.67 81.01,-254.59 -31.37,-20.91 -205.82,36.37 -424.86,66.13 -117.99,16.03 -168.63,-13.23 -168.63,-36.37 0,-23.15 94.23,0 120.68,-29.76 26.45,-29.76 16.54,-88.45 8.27,-124.81 -8.27,-36.37 -46.29,-90.1 -23.14,-101.67 11.76,-5.88 36.91,20.01 54.55,49.59 16.2,27.17 24.61,57 29.76,56.21 4.92,-0.76 -1.64,-26.29 -12.08,-52.36 -12.37,-30.91 -29.25,-57.58 -9.41,-65.02 16.27,-6.1 40.5,22.32 57.03,56.21 14.9,30.55 23.55,62 27.28,61.17 3.48,-0.78 0.45,-25.51 -6.62,-49.59 -8.02,-27.33 -21.49,-52.08 -6.61,-56.21 24.1,-6.7 47.94,14.87 69.43,84.31 125.64,-22.32 302.53,-181.85 446.36,-99.19 128.08,73.61 11.57,448.01 -42.98,585.22 z"
         id="path288" /></clipPath><linearGradient
       x1="0"
       y1="0"
       x2="1"
       y2="0"
       gradientUnits="userSpaceOnUse"
       gradientTransform="matrix(144.999,718.406,718.406,-144.999,5193.6,1352.85)"
       spreadMethod="pad"
       id="linearGradient296"><stop
         style="stop-opacity:1;stop-color:#ffb7a7"
         offset="0"
         id="stop292" /><stop
         style="stop-opacity:1;stop-color:#ff9595"
         offset="1"
         id="stop294" /></linearGradient><clipPath
       clipPathUnits="userSpaceOnUse"
       id="clipPath320"><path
         d="m 4718.13,1218.92 c 4.96,29.75 -249.63,111.59 -294.27,285.17 -47.93,186.42 76.05,379.4 76.05,379.4 l -225.66,39.67 c 0,0 -124.81,-235.57 -50.42,-468.67 74.39,-233.09 424.86,-374.44 438.09,-344.68 10.42,23.45 -76.05,57.86 -72.74,66.13 3.3,8.26 109.11,-44.64 114.07,-14.88 4.96,29.75 -92.58,59.51 -85.97,67.78 6.62,8.26 95.89,-39.68 100.85,-9.92 z"
         id="path318" /></clipPath><linearGradient
       x1="0"
       y1="0"
       x2="1"
       y2="0"
       gradientUnits="userSpaceOnUse"
       gradientTransform="matrix(156.59,775.83,775.83,-156.59,4374.64,1028.84)"
       spreadMethod="pad"
       id="linearGradient326"><stop
         style="stop-opacity:1;stop-color:#ffb7a7"
         offset="0"
         id="stop322" /><stop
         style="stop-opacity:1;stop-color:#ff9595"
         offset="1"
         id="stop324" /></linearGradient><clipPath
       clipPathUnits="userSpaceOnUse"
       id="clipPath396"><path
         d="m 3476.57,3220.75 c 0,0 8.95,-122.29 -10.28,-210.88 -19.15,-88.21 -54.67,-151.75 -99.93,-165.28 0,0 6.22,-117.83 230.74,-149.42 174.99,-24.62 221.78,95.34 221.78,95.34 -38.96,20.07 -92.69,74.44 -94.82,134.42 -2.37,67.03 42.15,81.56 42.15,81.56 l -171.19,224.33 z"
         id="path394" /></clipPath><linearGradient
       x1="0"
       y1="0"
       x2="1"
       y2="0"
       gradientUnits="userSpaceOnUse"
       gradientTransform="matrix(43.6709,555.988,-555.988,43.6709,3578.53,2638.21)"
       spreadMethod="pad"
       id="linearGradient402"><stop
         style="stop-opacity:1;stop-color:#ffb7a7"
         offset="0"
         id="stop398" /><stop
         style="stop-opacity:1;stop-color:#ff9595"
         offset="1"
         id="stop400" /></linearGradient><clipPath
       clipPathUnits="userSpaceOnUse"
       id="clipPath426"><path
         d="m 3826.03,2120.06 c 0,0 -129.87,-686.94 -206.76,-849.28 0,0 -116.2,-154.64 -70.06,-167.46 46.13,-12.81 68.35,70.06 83.73,70.06 15.38,0 12.81,-76.89 46.13,-76.89 33.33,0 30.76,75.18 56.4,80.31 25.63,5.13 30.75,-81.17 69.2,-70.92 38.45,10.26 3.67,71.98 7.69,94.85 9.1,51.75 185.45,595.07 228.98,844.14 z"
         id="path424" /></clipPath><linearGradient
       x1="0"
       y1="0"
       x2="1"
       y2="0"
       gradientUnits="userSpaceOnUse"
       gradientTransform="matrix(228.137,1031.57,1031.57,-228.137,3682.48,1095.81)"
       spreadMethod="pad"
       id="linearGradient434"><stop
         style="stop-opacity:1;stop-color:#ff9796"
         offset="0"
         id="stop428" /><stop
         style="stop-opacity:1;stop-color:#ffb7a7"
         offset="0.507992"
         id="stop430" /><stop
         style="stop-opacity:1;stop-color:#ff9595"
         offset="1"
         id="stop432" /></linearGradient><clipPath
       clipPathUnits="userSpaceOnUse"
       id="clipPath446"><path
         d="m 3409.94,2128.6 c 0,0 236.25,-681.55 308.99,-777.43 50.94,-67.16 132.25,-19.84 142.17,-69.43 8.32,-41.61 -102.56,-37.44 -102.56,-37.44 0,0 56.39,-112.78 7.68,-120.47 -48.7,-7.69 -64.08,99.96 -79.45,99.96 -15.38,0 -10.26,-107.65 -51.27,-110.21 -41.01,-2.57 -17.94,102.52 -35.88,102.52 -17.95,0 -48.93,-79 -76.9,-64.08 -38.45,20.51 19.65,79.46 19.65,99.97 0,20.5 -270.85,528.02 -365.68,784.34 z"
         id="path444" /></clipPath><linearGradient
       x1="0"
       y1="0"
       x2="1"
       y2="0"
       gradientUnits="userSpaceOnUse"
       gradientTransform="matrix(-353.344,922.143,922.143,353.344,3710.73,1159.02)"
       spreadMethod="pad"
       id="linearGradient452"><stop
         style="stop-opacity:1;stop-color:#ffb7a7"
         offset="0"
         id="stop448" /><stop
         style="stop-opacity:1;stop-color:#ff9595"
         offset="1"
         id="stop450" /></linearGradient><clipPath
       clipPathUnits="userSpaceOnUse"
       id="clipPath476"><path
         d="m 3475.36,3335.41 c 16.93,-16.25 2.27,-55.42 31.96,-54.99 36.62,0.52 33.61,129.2 92.58,231.44 23.42,40.6 75.27,118.79 209.15,103.6 109.39,-12.42 183.86,-68.89 197.75,-176.96 4.74,-36.85 -16.7,-140.19 -55.6,-265.54 -44.64,-143.83 -125.36,-256.03 -190.94,-267.82 -43.78,-7.86 -86.79,-4.95 -131.43,22.32 -61.77,37.75 -106.77,98.75 -139.87,240.59 -60.99,3.26 -90.42,61 -84.13,109.06 6.48,49.61 39.67,82.66 70.53,58.3 z"
         id="path474" /></clipPath><linearGradient
       x1="0"
       y1="0"
       x2="1"
       y2="0"
       gradientUnits="userSpaceOnUse"
       gradientTransform="matrix(87.0737,1115.82,-1115.82,87.0737,3669.18,2875.7)"
       spreadMethod="pad"
       id="linearGradient482"><stop
         style="stop-opacity:1;stop-color:#ffb7a7"
         offset="0"
         id="stop478" /><stop
         style="stop-opacity:1;stop-color:#ff9595"
         offset="1"
         id="stop480" /></linearGradient></defs><sodipodi:namedview
     pagecolor="#ffffff"
     bordercolor="#666666"
     borderopacity="1"
     objecttolerance="10"
     gridtolerance="10"
     guidetolerance="10"
     inkscape:pageopacity="0"
     inkscape:pageshadow="2"
     inkscape:window-width="640"
     inkscape:window-height="480"
     id="namedview4" /><g
     id="g10"
     inkscape:groupmode="layer"
     inkscape:label="ink_ext_XXXXXX"
     transform="matrix(1.3333333,0,0,-1.3333333,0,586.66667)"><g
       id="g12"
       transform="scale(0.1)"><path
         d="m 3156.15,1742.92 c 0,0 -23.89,-9.05 -37.56,-152.59 -13.67,-143.54 -62.27,-625.881 -75.19,-809.971 -13.67,-194.808 75.19,-235.82 177.72,-239.238 102.52,-3.41 195.53,72.199 246.06,218.731 68.36,198.218 150.38,444.288 150.38,444.288 0,0 126.45,-369.101 153.79,-475.05 27.34,-105.942 99.11,-181.129 228.98,-184.551 129.87,-3.418 198.22,116.199 191.39,218.731 -6.84,102.519 -109.37,850.99 -123.04,909.08 -13.67,58.1 -34.17,95.69 -34.17,95.69 l -878.36,-25.12"
         style="fill:#626376;fill-opacity:1;fill-rule:nonzero;stroke:none"
         id="path14" /><path
         d="m 3225.38,1171.32 -165.82,16.19 10.46,107.15 165.82,-16.2 -10.46,-107.14"
         style="fill:#8e92a5;fill-opacity:1;fill-rule:nonzero;stroke:none"
         id="path16" /><path
         d="m 4000.33,544.539 c 129.87,-3.418 198.22,116.199 191.39,218.731 -6.84,102.531 -109.37,850.98 -123.04,909.08 -13.67,58.1 -34.17,95.69 -34.17,95.69 l -417.11,-11.93 13.91,-477.68 -89.27,-9.92 75.52,-64.37 c 0,0 126.45,-369.101 153.79,-475.05 27.34,-105.942 99.11,-181.129 228.98,-184.551"
         style="fill:#474557;fill-opacity:1;fill-rule:nonzero;stroke:none"
         id="path18" /><path
         d="m 3999.92,1171.32 165.83,16.19 -10.47,107.15 -165.82,-16.2 10.46,-107.14"
         style="fill:#626376;fill-opacity:1;fill-rule:nonzero;stroke:none"
         id="path20" /><path
         d="m 5875.02,621.859 c 88.34,-15.23 257.03,-77.82 301.83,-44.808 44.81,33.019 -80.17,89.609 -148.56,127.34 -68.38,37.73 -106.11,103.757 -162.7,99.039 -56.6,-4.719 -56.6,-63.668 -122.62,-68.379 V 631.289 c 0,0 63.66,2.359 132.05,-9.43"
         style="fill:#363344;fill-opacity:1;fill-rule:nonzero;stroke:none"
         id="path22" /><path
         d="m 4752.98,1398.67 c 0,0 -390.5,-265.38 -503.52,-516.69 -70.37,-156.468 34.59,-314.41 172.93,-314.41 138.34,0 268.36,0 268.36,0 l 423.7,534.55 c 0,0 -56.59,364.72 -50.3,367.86 6.29,3.14 -311.17,-71.31 -311.17,-71.31"
         style="fill:#474557;fill-opacity:1;fill-rule:nonzero;stroke:none"
         id="path24" /><path
         d="m 4914.76,1385.68 -213.23,-230.41 56.6,-35.37 c 0,0 -200.92,-169.24 -225.31,-286.65 -27.54,-132.621 47.31,-265.68 188.79,-265.68 122.62,0 749.59,0 913.09,0 144.63,0 166.64,119.481 166.64,182.36 0,62.879 -72.32,194.929 -220.09,194.929 -147.78,0 -236.4,-12.57 -236.4,-12.57 0,0 160.64,51.582 221.48,198.431 74.68,180.27 -31.14,430.44 -31.14,430.44 -47.13,-3.65 -620.43,-175.48 -620.43,-175.48"
         style="fill:#626376;fill-opacity:1;fill-rule:nonzero;stroke:none"
         id="path26" /><path
         d="m 5799.8,721.5 c 1.07,10.211 1.54,19.871 1.54,28.43 0,62.879 -72.32,194.941 -220.09,194.941 -147.78,0 -236.4,-12.582 -236.4,-12.582 0,0 160.64,51.582 221.48,198.431 74.68,180.27 -31.14,430.44 -31.14,430.44 -7.48,-0.58 -28.25,-5.41 -57.8,-13.09 23.18,-36.57 124.94,-228.28 63.19,-407.06 -65.25,-188.85 -442.97,-188.85 -442.97,-236.932 0,-48.066 398.33,41.211 532.24,3.442 111.27,-31.379 160.28,-123.938 169.95,-186.02"
         style="fill:#474557;fill-opacity:1;fill-rule:nonzero;stroke:none"
         id="path28" /><path
         d="m 5026.48,1198.2 c 0,0 89.27,76.04 198.38,16.53 68.81,-37.54 89.27,-109.11 89.27,-109.11 0,0 95.88,-56.2 109.1,-171.929 17.71,-154.953 -52.9,-214.91 -59.51,-254.589 -6.61,-39.672 39.68,-62.821 39.68,-109.102 h -707.56 c 0,0 -33.06,165.309 46.29,261.199 79.36,95.883 284.35,367.001 284.35,367.001"
         style="fill:#b97953;fill-opacity:1;fill-rule:nonzero;stroke:none"
         id="path30" /><path
         d="m 4793.38,751.84 c 29.76,-34.711 52.9,-47.942 114.07,-49.59 61.17,-1.66 81,44.629 81,44.629 26.45,-36.359 61.17,-31.41 61.17,-31.41 -28.1,66.133 -14.88,142.172 -14.88,142.172 14.88,153.749 190.16,251.709 190.16,251.709 l -49.64,39.26 -200.74,-44.85 C 4907.57,1016.03 4791.05,890.309 4742.13,831.199 4662.78,735.309 4695.84,570 4695.84,570 c 18.19,148.781 97.54,181.84 97.54,181.84"
         style="fill:#985d3f;fill-opacity:1;fill-rule:nonzero;stroke:none"
         id="path32" /><path
         d="m 5317.52,1100.7 c -23.54,152.81 -226.71,218.28 -329.26,102.84 -6.88,-7.74 3.37,-17.55 11.21,-11.2 54.43,44.12 101.02,67.78 171.89,48.36 71.73,-19.65 114.01,-73.95 137.34,-142.43 1.93,-5.68 9.71,-3.31 8.82,2.43"
         style="fill:#b97953;fill-opacity:1;fill-rule:nonzero;stroke:none"
         id="path34" /><path
         d="m 5224.9,1109.35 c 0,0 9.05,81.41 -62.87,108.69 -56.02,21.25 -122.33,-11.58 -122.33,-11.58 l 185.2,-97.11"
         style="fill:#985d3f;fill-opacity:1;fill-rule:nonzero;stroke:none"
         id="path36" /><path
         d="m 937.141,725.102 c 0,0 -78.348,-18.782 -95.137,35.418 -26.34,85.019 -40.488,269.28 3.035,279.4 28.738,6.68 62.754,-128.541 77.934,-176.119 15.183,-47.563 14.168,-138.699 14.168,-138.699"
         style="fill:#363344;fill-opacity:1;fill-rule:nonzero;stroke:none"
         id="path38" /><g
         id="g40"><g
           id="g42"
           clip-path="url(#clipPath46)"><path
             d="m 1082.83,835.18 c -54.66,-12.149 -124.432,-20.969 -140.623,-11.86 -16.195,9.11 -31.402,126.469 -61.742,124.489 -26.434,-1.719 -2.942,-220.579 56.676,-222.707 43.711,-1.571 156.349,-32.903 156.349,-32.903 l -10.66,142.981"
             style="fill:url(#linearGradient52);fill-opacity:1;fill-rule:nonzero;stroke:none"
             id="path54" /></g></g><path
         d="m 3256.42,668.422 c 0,0 130.48,532.318 -56.85,529.938 -171.16,-14.83 -669.18,-31.62 -1168.93,-107.65 -347.72,-52.9 -784.16,-185.151 -1057.535,-221.519 -19.035,-50.703 -19.035,-105.812 0,-165.32 0,0 501.515,-109.109 1075.485,-3.301 203.33,37.469 603.22,-8.019 756.41,-28.218 144.24,-44.532 303.05,-41.954 451.42,-3.93"
         style="fill:#8a9ecb;fill-opacity:1;fill-rule:nonzero;stroke:none"
         id="path56" /><path
         d="m 3199.57,1198.36 -64.35,-5.15 C 2927.5,869.34 2312.15,974.16 2190.44,960.109 2061.49,945.23 1947.42,880.762 1689.53,870.84 1411.8,860.16 1289.92,887.98 1193.58,905.559 L 973.105,869.191 c -19.035,-50.703 -19.035,-105.812 0,-165.32 0,0 501.515,-109.109 1075.495,-3.301 203.32,37.481 603.21,-8.019 756.4,-28.218 144.24,-44.532 303.05,-41.954 451.42,-3.93 0,0 130.48,532.318 -56.85,529.938"
         style="fill:#6b80af;fill-opacity:1;fill-rule:nonzero;stroke:none"
         id="path58" /><path
         d="m 3247,632.461 c 220.85,39.961 426.59,76.57 595.58,68.109 94.97,-4.761 230.81,-13.23 363.06,-26.461 178.68,-17.859 283.78,56.731 314.09,107.942 25.94,61.25 -31.4,210.34 -144.43,330.599 -83.64,88.99 -217.75,148.34 -288.68,148.34 -88.59,0 -127.3,-24.8 -180.2,-41.33 -84.13,-32.97 -388.49,9.92 -699.8,-21.49 0,0 -92.29,-238.15 40.38,-565.709"
         style="fill:#f9e5e8;fill-opacity:1;fill-rule:nonzero;stroke:none"
         id="path60" /><path
         d="m 3994.04,1249.42 -3.7,-0.81 c -21.06,-5.89 -82.1,-29.6 -99.83,-33.72 7.9,-47.81 -2.52,-239.902 -266.78,-239.902 -272.28,0 -346.57,190.072 -364.01,227.852 -17.65,-1.34 -35.36,-2.88 -53.1,-4.67 0,0 -92.29,-238.15 40.38,-565.709 220.85,39.961 426.59,76.57 595.58,68.109 94.97,-4.761 230.81,-13.23 363.07,-26.461 178.67,-17.859 283.77,56.731 314.08,107.93 13.68,32.313 4.19,89.051 -24.41,153.102 -395.48,-26.282 -501.28,314.279 -501.28,314.279"
         style="fill:#e7c9ce;fill-opacity:1;fill-rule:nonzero;stroke:none"
         id="path62" /><g
         id="g64"><g
           id="g66"
           clip-path="url(#clipPath70)"><path
             d="m 4368.99,845.582 c -25.88,183.768 -441.85,93.727 -676.19,63.02 -196.45,-25.743 -421.58,-79.422 -585.63,-78.204 -123.91,0.934 -225.03,2.082 -340.29,-111.429 h 1559.85 c 0,0 56.95,22.32 42.26,126.613"
             style="fill:url(#linearGradient78);fill-opacity:1;fill-rule:nonzero;stroke:none"
             id="path80" /></g></g><g
         id="g82"><g
           id="g84"
           clip-path="url(#clipPath88)"><path
             d="m 4818.53,799.41 c 0,0 -30.72,151.602 -225.25,209.74 -66.96,-24.791 -108.26,-8.93 -210.07,93.55 0,0 -25.31,11.6 -39.81,-4.22 -63.59,-69.35 128.27,-265.71 150.11,-351.968 30.54,30.16 42.04,54.109 97.62,66.75 53.81,12.218 207.5,-6.973 227.4,-13.852"
             style="fill:url(#linearGradient96);fill-opacity:1;fill-rule:nonzero;stroke:none"
             id="path98" /></g></g><path
         d="m 4591.13,813.262 c 53.81,12.218 207.5,-6.973 227.4,-13.852 0,0 -30.72,151.602 -225.25,209.74 -16.6,-6.15 -31.62,-9.791 -46.39,-10.24 -23.41,-23.07 -75.12,-74.25 -72.6,-207.422 16.53,-28.109 19.21,-44.976 19.21,-44.976 30.55,30.16 42.05,54.109 97.63,66.75"
         style="fill:#d27a84;fill-opacity:1;fill-rule:nonzero;stroke:none"
         id="path100" /><g
         id="g102"><g
           id="g104"
           clip-path="url(#clipPath108)"><path
             d="m 4896.94,719.34 c -6.81,0 -13.69,0.629 -20.45,1.93 -58.27,11.16 -70.1,48.269 -75.32,79.75 -103.97,38.339 -163.23,102.351 -195.07,163.812 -38.87,75.038 -36.87,146.278 -25.47,162.278 11.63,9.39 42.26,17.2 76.24,25.15 -0.28,-1.24 -0.38,-2.6 -0.29,-4.07 1.52,-24.33 34.72,-34.71 54.19,-55.38 v 0 0 0 0 c -0.1,12.22 3.24,26.32 6.46,39.24 2.68,9.99 5.24,19.7 5.67,27.22 0.3,3.61 0.12,6.64 -0.74,8.93 25.48,7.1 46.68,15.01 55.56,24.63 0,0 9.05,51.66 28.88,51.66 10.96,0 29.98,-37.53 99.19,-52.91 7.44,-1.65 15.21,-2.35 23.27,-2.35 22.53,0 47.31,5.47 73.11,10.94 25.79,5.47 52.6,10.94 79.2,10.94 51.62,0 102.46,-20.6 143.53,-101.76 -102.71,-12.31 -187.74,-102.2 -247.98,-228.139 -44.7,-14.109 -84.31,-14.879 -76.87,-61.992 52.08,-7.438 68.19,-19.84 71.21,-41.367 0.73,-38 -35.69,-58.52 -74.32,-58.512"
             style="fill:url(#linearGradient114);fill-opacity:1;fill-rule:nonzero;stroke:none"
             id="path116" /></g></g><path
         d="m 4984.32,1186.62 c -26.06,-3.76 14.88,-29.75 9.92,-82.65 -3.59,-38.24 -23.14,-72.74 -23.14,-72.74 0,0 28.92,17.89 42.15,62.82 11.7,39.71 -10.34,95.27 -28.93,92.57"
         style="fill:#985d3f;fill-opacity:1;fill-rule:nonzero;stroke:none"
         id="path118" /><path
         d="m 4932.02,1068.14 c -34.7,39.55 -23.94,78.98 -14.58,92.73 -11.9,2.55 -26.87,-7.36 -28.87,-32.8 -1.97,-24.95 20.24,-52.69 43.45,-59.93"
         style="fill:#4e3a5e;fill-opacity:1;fill-rule:nonzero;stroke:none"
         id="path120" /><path
         d="m 4907.58,1157.66 -14.79,15.96 c 0,0 -19.59,-36.92 2.95,-72.75 l 11.84,56.79"
         style="fill:#4e3a5e;fill-opacity:1;fill-rule:nonzero;stroke:none"
         id="path122" /><path
         d="m 4710.77,1092.81 c -3.36,21.9 20.87,68.53 8.8,78.81 -8.42,7.17 -29.5,-5.48 -29.5,-5.48 0,0 -34.73,1.89 -33.49,-17.95 1.52,-24.33 34.72,-34.71 54.19,-55.38"
         style="fill:#d85d8e;fill-opacity:1;fill-rule:nonzero;stroke:none"
         id="path124" /><path
         d="m 4693.82,1168.17 c 4.07,2.42 10.93,5.8 17.49,5.8 0.94,0 1.87,-0.07 2.79,-0.22 -0.52,0.05 -1.05,0.07 -1.6,0.07 -6.39,0 -14.16,-3.37 -18.68,-5.65"
         style="fill:#3a374d;fill-opacity:1;fill-rule:nonzero;stroke:none"
         id="path126" /><path
         d="m 4721.94,1168.14 c -0.54,1.41 -1.31,2.59 -2.37,3.48 1.19,-0.79 2.03,-1.95 2.59,-3.42 -0.07,-0.02 -0.14,-0.04 -0.22,-0.06"
         style="fill:#504f68;fill-opacity:1;fill-rule:nonzero;stroke:none"
         id="path128" /><g
         id="g130"><g
           id="g132"
           clip-path="url(#clipPath136)"><path
             d="m 4710.77,1092.81 c -1.52,9.91 2.61,24.87 6.46,39.24 -3.22,-12.92 -6.56,-27.02 -6.46,-39.24 m 12.13,66.46 c 0.2,3.49 -0.05,6.51 -0.96,8.87 0.08,0.02 0.15,0.04 0.22,0.06 0.86,-2.29 1.04,-5.32 0.74,-8.93"
             style="fill:url(#linearGradient142);fill-opacity:1;fill-rule:nonzero;stroke:none"
             id="path144" /></g></g><path
         d="m 4710.77,1092.81 c 0,0 -19.01,56.59 -20.62,72.96 0,0 1.4,1.05 3.67,2.4 4.52,2.28 12.29,5.65 18.68,5.65 0.55,0 1.08,-0.02 1.6,-0.07 1.91,-0.32 3.77,-0.99 5.47,-2.13 v 0 c 1.06,-0.89 1.83,-2.07 2.37,-3.48 0.91,-2.36 1.16,-5.38 0.96,-8.87 -0.59,-7.28 -3.09,-16.87 -5.67,-27.22 -3.85,-14.37 -7.98,-29.33 -6.46,-39.24 v 0"
         style="fill:#b14a7d;fill-opacity:1;fill-rule:nonzero;stroke:none"
         id="path146" /><path
         d="m 4878.33,746.68 c -23.41,5.152 -39.87,20.718 -36.78,34.769 3.1,14.043 24.58,21.242 47.99,16.082 23.4,-5.16 39.86,-20.73 36.77,-34.769 -3.09,-14.043 -24.58,-21.242 -47.98,-16.082"
         style="fill:#d27a84;fill-opacity:1;fill-rule:nonzero;stroke:none"
         id="path148" /><path
         d="m 5226.08,1113.65 c -159.35,24.92 -271.76,-149.548 -251.55,-292.959 1.14,-8.082 13.81,-5.839 13.92,1.891 1.87,144.719 72.13,286.008 236.45,282.308 4.9,-0.12 6.25,7.97 1.18,8.76"
         style="fill:#985d3f;fill-opacity:1;fill-rule:nonzero;stroke:none"
         id="path150" /><path
         d="m 5303.6,1104.91 c 75.2,-40.69 133.05,-102.62 135.74,-193.351 2.56,-86.61 -46.88,-124.707 -85.73,-191.821 -27.39,-47.308 -14.76,-76.988 21.41,-117.879 5.14,-5.82 14.7,1.7 10.69,8.25 -47.05,76.871 18.96,123.161 47.18,187.102 19.49,44.168 27.36,94.961 18.78,142.719 -14.3,79.59 -68.93,146.37 -144.72,172.93 -4.66,1.64 -7.66,-5.62 -3.35,-7.95"
         style="fill:#b97953;fill-opacity:1;fill-rule:nonzero;stroke:none"
         id="path152" /><path
         d="m 4368.99,845.582 c -7.28,51.688 -45.42,81.707 -101.71,97.5 40.68,-20.98 78.46,-62.512 67.92,-101.562 -23.83,-88.27 -117.45,-90.188 -471.53,-90.188 -354.07,0 -667.29,17.27 -738.78,17.27 -71.5,0 -102.14,-15.352 -187.25,-11.512 -53.28,2.398 -100.25,18.91 -100.25,18.91 -23.11,-14.738 -46.5,-33.391 -70.51,-57.031 h 1559.85 c 0,0 56.95,22.32 42.26,126.613"
         style="fill:#d27a84;fill-opacity:1;fill-rule:nonzero;stroke:none"
         id="path154" /><path
         d="m 3605.34,1209.08 -62.61,-99.27 c 0,-26.45 42.98,-28.1 72.74,-6.61 0,0 13.22,-9.92 31.41,0 0,0 14.87,-31.41 39.67,-26.45 24.8,4.96 38.03,41.33 38.03,41.33 0,0 11.56,-18.19 46.28,-9.92 0,0 11.58,-26.45 47.95,-14.88 36.37,11.57 21.48,64.47 13.22,97.53 -1.53,6.11 -2.09,11.75 -2,16.91 -56.75,-2.9 -134.56,-0.4 -224.69,1.36"
         style="fill:#dabeb5;fill-opacity:1;fill-rule:nonzero;stroke:none"
         id="path156" /><path
         d="m 5533.13,1561.67 c -199.54,-145.22 -544.08,-221.04 -753.4,-154.18 l -20.18,92.04 c 258.17,-49.85 510.18,6.39 753.4,154.18 l 20.18,-92.04"
         style="fill:#363344;fill-opacity:1;fill-rule:nonzero;stroke:none"
         id="path158" /><path
         d="m 5074.38,1435.89 c 0,-37.66 -41.63,-68.19 -92.99,-68.19 -51.35,0 -92.99,30.53 -92.99,68.19 0,37.67 41.64,68.2 92.99,68.2 51.36,0 92.99,-30.53 92.99,-68.2"
         style="fill:#a5adbc;fill-opacity:1;fill-rule:nonzero;stroke:none"
         id="path160" /><path
         d="m 5380.39,1434.94 -66.02,-21.51 -45.08,138.31 66.01,21.52 45.09,-138.32"
         style="fill:#626376;fill-opacity:1;fill-rule:nonzero;stroke:none"
         id="path162" /><path
         d="m 5047.89,2860.77 c 56.5,-9.17 111.69,2.95 167.99,-1.32 71.95,-5.46 219.9,-67.97 137.27,-162.65 -7.84,-8.99 5.48,-22.21 13.1,-13.1 37.09,44.28 36.85,106.17 -11.06,143.19 -87.4,67.54 -205.13,47.9 -306.53,39.58 -3,-0.25 -4.23,-5.14 -0.77,-5.7"
         style="fill:#926466;fill-opacity:1;fill-rule:nonzero;stroke:none"
         id="path164" /><path
         d="m 5347.85,2688.53 c 36.64,-37.41 69.82,-74.88 88.96,-124.32 19.32,-49.95 36.97,-135.78 -10.62,-174.69 -6.97,-5.69 2.03,-16.98 9.53,-12.36 44.59,27.49 38.42,95.72 29.91,140.79 -13.28,70.36 -55.59,133 -110.44,177.92 -5.07,4.16 -12.11,-2.47 -7.34,-7.34"
         style="fill:#926466;fill-opacity:1;fill-rule:nonzero;stroke:none"
         id="path166" /><path
         d="m 4910.23,2945.4 c 0,0 12.89,-43.56 79.73,-63.38 84.23,-24.98 239.36,21.68 321.77,-55.07 82.39,-76.75 46.85,-128.02 46.85,-128.02 0,0 150.65,-172.69 43.54,-336.39 -107.11,-163.71 -583.77,44.39 -583.77,44.39 l -78.6,434.06 170.48,104.41"
         style="fill:#926466;fill-opacity:1;fill-rule:nonzero;stroke:none"
         id="path168" /><path
         d="m 4741.17,2841.87 c -0.03,-2.22 -0.07,-4.66 -0.12,-8.03 l 57.96,-320.11 c 69.77,-10.76 629.98,-92.96 629.98,-92.96 0,0 -52.9,162.01 -294.27,216.56 -185.83,42.01 -226.48,115.72 -209.95,166.15 18.89,57.62 53.72,62.95 129.51,70.47 -23.81,0.64 -45.83,2.58 -64.32,8.07 -45.18,13.4 -65.42,37.4 -73.98,51.7 l -124.17,-60.85 -50.64,-31"
         style="fill:#80545a;fill-opacity:1;fill-rule:nonzero;stroke:none"
         id="path170" /><path
         d="m 4282.19,3331.86 c -111.21,-147.23 -124.24,-468.9 125.56,-472.64 6.48,-0.09 8.13,10.12 1.56,11.51 -235.71,49.96 -217.11,286.83 -117.68,455.61 3.67,6.23 -5.32,10.98 -9.44,5.52"
         style="fill:#926466;fill-opacity:1;fill-rule:nonzero;stroke:none"
         id="path172" /><path
         d="m 4257.39,2010.76 c 0,0 158.21,370.33 320.83,434.52 l 14.26,-426.23 -66.12,-130.6 -268.97,122.31"
         style="fill:#474557;fill-opacity:1;fill-rule:nonzero;stroke:none"
         id="path174" /><path
         d="m 4855.55,2814.97 c 0,0 156.79,83.61 148.57,338.15 -9.91,307.49 -332.28,426.52 -448.83,332.29 -84.31,44.63 -304,-55.98 -329.81,-286 -28.93,-257.89 158.71,-327.33 158.71,-327.33 l 471.36,-57.11"
         style="fill:#926466;fill-opacity:1;fill-rule:nonzero;stroke:none"
         id="path176" /><path
         d="m 4523.05,3253.96 c 0,0 92.58,-123.88 266.58,-110.76 110.87,8.37 145.06,57.04 145.06,57.04 0,0 -3.72,-71.92 -58.27,-90.51 -54.56,-18.6 -32.24,-91.76 -32.24,-91.76 l -104.15,-27.27 c -107.63,77.57 -178.79,165.66 -216.98,263.26"
         style="fill:#80545a;fill-opacity:1;fill-rule:nonzero;stroke:none"
         id="path178" /><path
         d="m 4370.96,2883.65 c 0,0 -112.41,107.46 -76.04,254.59 43.39,175.55 219.87,110.76 219.87,110.76 l -143.83,-365.35"
         style="fill:#80545a;fill-opacity:1;fill-rule:nonzero;stroke:none"
         id="path180" /><path
         d="m 4815.26,2825.21 5.42,119.58 54.55,180.13 c 0,0 96.16,1.87 80.85,-116.49 -6.54,-50.64 -60.93,-86.34 -60.93,-86.34 0,0 -5.06,-36.37 7.3,-72.74 l -45.57,-38.36 -41.62,14.22"
         style="fill:#80545a;fill-opacity:1;fill-rule:nonzero;stroke:none"
         id="path182" /><g
         id="g184"><g
           id="g186"
           clip-path="url(#clipPath190)"><path
             d="m 4823.01,2879.66 c 0,0 -121.64,-142.65 -131.56,-233.81 38.96,-74.62 -51.17,-122.62 -125.52,-245.05 0,0 83.51,-55.55 260.79,-23.25 177.28,32.29 284.65,173.02 284.65,173.02 -105.48,70.96 -228.24,59.55 -264.58,132.29 -29.96,59.95 -31.38,129.4 -23.78,196.8"
             style="fill:url(#linearGradient196);fill-opacity:1;fill-rule:nonzero;stroke:none"
             id="path198" /></g></g><path
         d="m 4860.38,2697.78 c -24.5,88.27 -7.77,245.05 -7.77,245.05 0,0 -174.82,-186.94 -184.74,-278.09 13.33,-10.79 31.56,-46.8 28.48,-78.23 0,0 116.78,-128.42 306.7,12.33 -66.91,20.95 -124.33,32.87 -142.67,98.94"
         style="fill:#d27a84;fill-opacity:1;fill-rule:nonzero;stroke:none"
         id="path200" /><g
         id="g202"><g
           id="g204"
           clip-path="url(#clipPath208)"><path
             d="m 4677.46,2607.95 c -66.96,0 -221.22,68.44 -324.06,313.99 -9.68,23.12 -115.52,270.86 169.65,327.89 0,0 66.95,-131.43 226.59,-135.65 0,0 31.22,-80.32 64.48,-80.31 5.32,0 10.71,2.06 16.02,6.85 0,0 -10.44,64.56 18.26,77.22 9.81,4.82 19.05,6.98 27.62,6.98 34.27,0 57.69,-34.51 62.08,-70.93 5.73,-47.52 -19.51,-95.78 -68.42,-110.39 10.54,-188.98 -93.97,-301.78 -170.35,-332.23 -5.5,-2.19 -12.9,-3.42 -21.87,-3.42 m -118.82,103.61 c 1.23,-1.2 21.05,-20.08 51.04,-20.08 10.17,0 21.51,2.17 33.69,7.94 49.28,23.33 63.49,79.37 63.49,79.37 v 0 0 0 0 c 0,0 -51.73,-3.35 -90.74,-21.81 -0.67,-0.32 -1.33,-0.64 -1.99,-0.96 -0.17,-0.08 -0.35,-0.17 -0.52,-0.25 -3.46,-1.64 -6.84,-3.47 -10.13,-5.44 -30.37,-17.64 -44.9,-38.71 -44.9,-38.71 l 0.06,-0.06"
             style="fill:url(#linearGradient214);fill-opacity:1;fill-rule:nonzero;stroke:none"
             id="path216" /></g></g><path
         d="m 4910.82,3044.34 c 2.46,-22.06 -9.12,-41.46 -25.86,-43.33 -16.73,-1.86 -32.29,14.52 -34.75,36.58 -2.46,22.06 9.11,41.46 25.85,43.33 16.74,1.86 32.3,-14.51 34.76,-36.58"
         style="fill:#d27a84;fill-opacity:1;fill-rule:nonzero;stroke:none"
         id="path218" /><path
         d="m 4532.23,2918.81 c -5.79,35.11 -28.31,67.54 -63.09,86.54 19.92,-4.83 37.52,-16.04 51.57,-30.26 13.75,-14.19 25.63,-31.89 29.71,-51.59 8.36,-37.09 -2.73,-74.46 -22.62,-107.95 18.91,-9.86 42.96,-15.46 67.58,-12.47 -38.95,-14.97 -68.42,-9.25 -103.24,1.69 27.5,34.53 47.67,73.44 40.09,114.04"
         style="fill:#d27a84;fill-opacity:1;fill-rule:nonzero;stroke:none"
         id="path220" /><path
         d="m 4538.63,3034.79 c 4.78,-15.67 48.63,-6.34 90.04,11.42 39.16,16.79 72.31,34.2 73.23,44.92 0.63,7.41 -38.85,-6.3 -79.66,-19.84 -44,-14.6 -88.05,-21.96 -83.61,-36.5"
         style="fill:#926466;fill-opacity:1;fill-rule:nonzero;stroke:none"
         id="path222" /><path
         d="m 4447.44,2990.85 c 5.34,-15.28 -14.77,-30.17 -41.82,-49.09 -23.13,-16.18 -52.09,-28.11 -58.93,-17.92 -7.69,11.47 22.23,23.94 44.34,40.71 29.39,22.28 51.17,41.3 56.41,26.3"
         style="fill:#926466;fill-opacity:1;fill-rule:nonzero;stroke:none"
         id="path224" /><path
         d="m 4706.86,2778.79 c 0,0 -62.79,-8.6 -93.25,-23.02 -30.45,-14.41 -55.03,-44.15 -55.03,-44.15 0,0 35.51,-35.53 84.79,-12.2 49.28,23.33 63.49,79.37 63.49,79.37"
         style="fill:#d85d8e;fill-opacity:1;fill-rule:nonzero;stroke:none"
         id="path226" /><g
         id="g228"><g
           id="g230"
           clip-path="url(#clipPath234)"><path
             d="m 4558.64,2711.56 -0.06,0.06 c 0,0 14.53,21.07 44.9,38.71 -25.59,-15.35 -44.9,-38.71 -44.9,-38.71 0,0 0.02,-0.02 0.06,-0.06 m 55.49,44.46 c 0.66,0.32 1.32,0.64 1.99,0.96 39.01,18.46 90.74,21.81 90.74,21.81 0,0 -62.09,-8.5 -92.73,-22.77"
             style="fill:url(#linearGradient240);fill-opacity:1;fill-rule:nonzero;stroke:none"
             id="path242" /></g></g><path
         d="m 4558.94,2711.29 -0.3,0.27 c -0.04,0.04 -0.06,0.06 -0.06,0.06 0,0 19.31,23.36 44.9,38.71 3.36,1.95 6.91,3.86 10.65,5.69 30.64,14.27 92.73,22.77 92.73,22.77 v 0 0 c 0,0 -43.32,-31.28 -78.66,-47.3 -38.75,-17.56 -69.26,-20.2 -69.26,-20.2"
         style="fill:#b14a7d;fill-opacity:1;fill-rule:nonzero;stroke:none"
         id="path244" /><path
         d="m 4524.71,2415.95 c 51.25,46.15 110.55,88.72 110.55,88.72 l 127.5,-37.92 220.3,154.36 c 0,0 179.24,-19.6 257.47,-57.66 97.61,-47.49 142.17,-214.69 228.13,-483.47 85.97,-268.78 86.38,-371.69 46.7,-414.3 -39.67,-42.61 -205.4,-147.54 -425.27,-180.6 -177.85,-26.75 -283.8,-13.41 -335.59,18.18 -68.79,41.96 -164.1,296.81 -211.61,416.6 -76.04,191.77 -99.4,422.96 -18.18,496.09"
         style="fill:#626376;fill-opacity:1;fill-rule:nonzero;stroke:none"
         id="path246" /><path
         d="m 5485.36,2026.18 -13.39,19.32 -214.91,-13.22 c 0,0 85.96,-300.88 -261.2,-413.29 -143.33,-46.42 -240.47,-48.04 -305.77,-34.26 22.48,-39.21 44.55,-69.36 64.41,-81.47 51.78,-31.59 157.74,-44.93 335.59,-18.18 219.87,33.06 385.6,137.99 425.28,180.6 36.9,39.63 39.02,131.62 -30.01,360.5"
         style="fill:#474557;fill-opacity:1;fill-rule:nonzero;stroke:none"
         id="path248" /><path
         d="m 5001.07,1468.17 c -1.39,3.24 -140.34,326.31 -195.34,546.33 -45.91,183.6 -48.9,363.88 -48.92,365.68 l 10.25,0.16 c 0.02,-1.8 3.01,-180.94 48.61,-363.34 54.82,-219.24 193.42,-541.54 194.83,-544.76 l -9.43,-4.07"
         style="fill:#474557;fill-opacity:1;fill-rule:nonzero;stroke:none"
         id="path250" /><path
         d="m 4982.32,2623.65 30.07,-6.16 -172.01,-273.95 -53.31,55.28 -27.17,-32.34 -31.94,28.39 -50.69,-84.09 -63.35,176.98 21.34,16.91 114.91,-25.46 232.15,144.44"
         style="fill:#474557;fill-opacity:1;fill-rule:nonzero;stroke:none"
         id="path252" /><path
         d="m 4915.01,2673.65 -164.84,-194.44 87.67,-91.24 156.02,236.12 -78.85,49.56"
         style="fill:#a5adbc;fill-opacity:1;fill-rule:nonzero;stroke:none"
         id="path254" /><path
         d="m 4750.17,2479.21 -74.03,-123.48 -58.92,152.92 49.55,74.02 83.4,-103.46"
         style="fill:#a5adbc;fill-opacity:1;fill-rule:nonzero;stroke:none"
         id="path256" /><path
         d="m 5415.79,736.199 -0.77,0.02 c -322.14,24.25 -570.95,217.222 -652.11,333.171 -3.15,4.5 -2.05,10.68 2.43,13.81 4.48,3.11 10.66,2.09 13.81,-2.42 79.08,-112.979 322.04,-301.042 637.36,-324.768 5.46,-0.41 9.57,-5.18 9.15,-10.641 -0.39,-5.199 -4.75,-9.172 -9.87,-9.172"
         style="fill:#dbf4ff;fill-opacity:1;fill-rule:nonzero;stroke:none"
         id="path258" /><path
         d="m 4883.74,1209.89 c 2.82,-78.43 -62.64,-155.64 -155.97,-175.79 -91.62,-19.78 -188.32,11.1 -203.1,68.95 -15.47,60.55 50.31,90.12 138.16,120.18 88.05,30.13 217.84,72.29 220.91,-13.34"
         style="fill:#dbf4ff;fill-opacity:1;fill-rule:nonzero;stroke:none"
         id="path260" /><path
         d="m 4845.14,1252.5 c -48.69,35.55 -139.99,60.2 -200.57,31.64 -31.03,-14.62 -58.86,-37.73 -80.44,-63.29 -25.81,-36.18 -36.27,-77.71 -25.06,-102.04 24.6,-53.35 102.41,-76.77 182.12,-58.4 92.01,21.2 147.09,99.78 140.08,163.92 -1.02,9.28 -6.9,18.92 -16.13,28.17"
         style="fill:#bce2f4;fill-opacity:1;fill-rule:nonzero;stroke:none"
         id="path262" /><path
         d="m 4845.15,1252.5 c -39.48,28.82 -106.77,49.95 -163.19,41.9 141.09,-7.15 132.75,-169.16 8.02,-203.65 -65.37,-18.09 -132.31,8.75 -155,52.06 -0.1,-8.95 0.97,-17.23 4.09,-24 24.6,-53.35 102.41,-76.76 182.12,-58.4 92.01,21.2 147.09,99.78 140.08,163.92 -1.01,9.28 -6.9,18.92 -16.12,28.17"
         style="fill:#a3d5ec;fill-opacity:1;fill-rule:nonzero;stroke:none"
         id="path264" /><path
         d="m 5159.6,1730.21 c 55.91,-107.51 -13.56,-254.37 -155.18,-328.02 -141.61,-73.64 -301.73,-46.19 -357.64,61.32 -55.91,107.51 13.56,254.36 155.17,328.01 141.61,73.64 301.73,46.2 357.65,-61.31"
         style="fill:#739cd0;fill-opacity:1;fill-rule:nonzero;stroke:none"
         id="path266" /><path
         d="m 4718.91,1394.94 c -22.72,-20.25 -62.6,-12.59 -89.05,17.1 -26.46,29.7 -29.48,70.18 -6.75,90.43 22.73,20.25 62.6,12.6 89.05,-17.1 26.46,-29.69 29.48,-70.18 6.75,-90.43"
         style="fill:#bce2f4;fill-opacity:1;fill-rule:nonzero;stroke:none"
         id="path268" /><path
         d="m 5050.72,1736.47 c 36.42,-70.03 -15.15,-168.99 -115.2,-221.03 -100.04,-52.05 -210.67,-37.46 -247.09,32.56 -36.42,70.03 15.16,169 115.21,221.04 100.04,52.04 210.67,37.46 247.08,-32.57"
         style="fill:#8cb9dd;fill-opacity:1;fill-rule:nonzero;stroke:none"
         id="path270" /><path
         d="m 4730.37,1453.52 c -2.31,-8.58 -6.48,-16.31 -13.11,-22.21 -22.73,-20.25 -62.6,-12.59 -89.06,17.1 -8.73,9.81 -14.66,20.81 -18.2,31.86 -5.61,-20.84 1.11,-47.19 19.86,-68.23 26.45,-29.69 66.33,-37.35 89.05,-17.1 15.22,13.56 18.64,36.18 11.46,58.58"
         style="fill:#8cb9dd;fill-opacity:1;fill-rule:nonzero;stroke:none"
         id="path272" /><path
         d="m 4689.48,1412.09 c -12.69,-11.3 -34.94,-7.03 -49.7,9.54 -14.77,16.57 -16.45,39.17 -3.77,50.47 12.69,11.3 34.94,7.03 49.7,-9.54 14.76,-16.57 16.45,-39.17 3.77,-50.47"
         style="fill:#739cd0;fill-opacity:1;fill-rule:nonzero;stroke:none"
         id="path274" /><path
         d="m 4612.75,1323.77 c -26.15,75.94 12.48,121.54 36.54,135.03 l 25.26,-44.95 -12.63,22.47 13.05,-22.24 c -3.29,-2.02 -31.46,-21.23 -13.48,-73.5 l -48.74,-16.81"
         style="fill:#739cd0;fill-opacity:1;fill-rule:nonzero;stroke:none"
         id="path276" /><path
         d="m 4730.14,1296.42 c 5.72,-16.87 -23.07,-41.88 -64.3,-55.85 -41.23,-13.98 -79.29,-11.64 -85.01,5.24 -5.72,16.87 23.07,41.88 64.3,55.86 41.22,13.98 79.29,11.63 85.01,-5.25"
         style="fill:#739cd0;fill-opacity:1;fill-rule:nonzero;stroke:none"
         id="path278" /><path
         d="m 4710.15,1306.73 c 15.6,-58.28 -106.54,-89.4 -121.93,-34.65 l -8.78,36.3 c -3.59,12.62 3.74,25.76 16.36,29.35 l 76.21,21.66 c 12.63,3.59 25.77,-3.74 29.36,-16.37 l 8.78,-36.29"
         style="fill:#8cb9dd;fill-opacity:1;fill-rule:nonzero;stroke:none"
         id="path280" /><path
         d="m 4710.15,1306.73 -8.78,36.3 c -3.59,12.62 -16.73,19.95 -29.36,16.36 l -76.21,-21.66 c -1.25,-0.35 -2.19,-1.18 -3.33,-1.71 l 38.24,10.86 c 12.63,3.59 25.77,-3.73 29.36,-16.36 l 4.95,-20.46 c 7.29,-41.79 -42.14,-63.7 -69.51,-51.04 25.47,-37.33 131.74,-10.77 114.64,47.71"
         style="fill:#739cd0;fill-opacity:1;fill-rule:nonzero;stroke:none"
         id="path282" /><g
         id="g284"><g
           id="g286"
           clip-path="url(#clipPath290)"><path
             d="m 5369.47,2002.52 c 0,0 95.89,-244.67 81.01,-254.59 -31.37,-20.91 -205.82,36.37 -424.86,66.13 -117.99,16.03 -168.63,-13.23 -168.63,-36.37 0,-23.15 94.23,0 120.68,-29.76 26.45,-29.76 16.54,-88.45 8.27,-124.81 -8.27,-36.37 -46.29,-90.1 -23.14,-101.67 11.76,-5.88 36.91,20.01 54.55,49.59 16.2,27.17 24.61,57 29.76,56.21 4.92,-0.76 -1.64,-26.29 -12.08,-52.36 -12.37,-30.91 -29.25,-57.58 -9.41,-65.02 16.27,-6.1 40.5,22.32 57.03,56.21 14.9,30.55 23.55,62 27.28,61.17 3.48,-0.78 0.45,-25.51 -6.62,-49.59 -8.02,-27.33 -21.49,-52.08 -6.61,-56.21 24.1,-6.7 47.94,14.87 69.43,84.31 125.64,-22.32 302.53,-181.85 446.36,-99.19 128.08,73.61 11.57,448.01 -42.98,585.22 l -200.04,-89.27"
             style="fill:url(#linearGradient296);fill-opacity:1;fill-rule:nonzero;stroke:none"
             id="path298" /></g></g><path
         d="M 5571.16,2171.14 5283.51,2045.5 c -69.3,187.25 -331.83,442.99 -183.31,506.84 213.06,91.6 421.44,-209.9 470.96,-381.2"
         style="fill:#626376;fill-opacity:1;fill-rule:nonzero;stroke:none"
         id="path300" /><path
         d="m 5302.21,2255.12 c 43.96,-42.87 113.83,-42.51 156.06,0.8 42.23,43.3 40.83,113.16 -3.13,156.03 -43.96,42.86 -113.84,42.51 -156.06,-0.8 -42.23,-43.31 -40.83,-113.17 3.13,-156.03"
         style="fill:#474557;fill-opacity:1;fill-rule:nonzero;stroke:none"
         id="path302" /><path
         d="m 5304.68,2267.71 c 41.19,-40.15 107.13,-39.32 147.28,1.86 40.16,41.19 39.33,107.13 -1.86,147.28 -41.18,40.16 -107.11,39.33 -147.27,-1.85 -40.16,-41.19 -39.33,-107.13 1.85,-147.29"
         style="fill:#8a9ecb;fill-opacity:1;fill-rule:nonzero;stroke:none"
         id="path304" /><path
         d="m 5317.95,2281.33 c 33.6,-32.74 87.57,-32.04 120.39,1.53 15.88,16.29 24.47,37.76 24.18,60.49 -0.28,22.75 -9.41,44.01 -25.69,59.87 -16.02,15.63 -37.08,24.2 -59.42,24.2 l -1.09,-0.02 c -22.73,-0.28 -44.01,-9.41 -59.87,-25.68 -15.89,-16.28 -24.48,-37.77 -24.18,-60.52 0.29,-22.73 9.41,-44.01 25.68,-59.87 z m 59.42,-34.07 c -23.94,0 -47.9,8.95 -66.34,26.95 -37.54,36.62 -38.3,96.92 -1.71,134.43 17.72,18.19 41.49,28.38 66.88,28.7 l 1.21,0.01 c 24.94,0 48.47,-9.56 66.35,-27.01 18.19,-17.72 28.38,-41.46 28.69,-66.85 0.31,-25.39 -9.27,-49.39 -26.99,-67.56 -18.6,-19.09 -43.33,-28.67 -68.09,-28.67"
         style="fill:#bfcee2;fill-opacity:1;fill-rule:nonzero;stroke:none"
         id="path306" /><path
         d="m 5404.64,2303.23 -66.96,65.29 12.49,12.8 66.95,-65.29 -12.48,-12.8"
         style="fill:#bfcee2;fill-opacity:1;fill-rule:nonzero;stroke:none"
         id="path308" /><path
         d="m 5332.01,2324.63 -3.32,17.53 94.1,17.78 3.32,-17.53 -94.1,-17.78"
         style="fill:#bfcee2;fill-opacity:1;fill-rule:nonzero;stroke:none"
         id="path310" /><path
         d="m 5378.49,2293.59 -17.6,2.86 15.41,94.51 17.6,-2.86 -15.41,-94.51"
         style="fill:#bfcee2;fill-opacity:1;fill-rule:nonzero;stroke:none"
         id="path312" /><g
         id="g314"><g
           id="g316"
           clip-path="url(#clipPath320)"><path
             d="m 4718.13,1218.92 c 4.96,29.75 -249.63,111.59 -294.27,285.17 -47.93,186.42 76.05,379.4 76.05,379.4 l -225.66,39.67 c 0,0 -124.81,-235.57 -50.42,-468.67 74.39,-233.09 424.86,-374.44 438.09,-344.68 10.42,23.45 -76.05,57.86 -72.74,66.13 3.3,8.26 109.11,-44.64 114.07,-14.88 4.96,29.75 -92.58,59.51 -85.97,67.78 6.62,8.26 95.89,-39.68 100.85,-9.92"
             style="fill:url(#linearGradient326);fill-opacity:1;fill-rule:nonzero;stroke:none"
             id="path328" /></g></g><path
         d="m 4705.17,1930.41 -150.42,-41.27 -41.62,117.1 159.43,43.04 32.61,-118.87"
         style="fill:#474557;fill-opacity:1;fill-rule:nonzero;stroke:none"
         id="path330" /><path
         d="m 5207.39,2060.39 -209.56,-54.44 -30.82,118.64 209.56,54.44 30.82,-118.64"
         style="fill:#474557;fill-opacity:1;fill-rule:nonzero;stroke:none"
         id="path332" /><path
         d="m 5126.94,2186.43 -150.52,-39.11 -11.38,43.78 150.53,39.1 11.37,-43.77"
         style="fill:#f9e5e8;fill-opacity:1;fill-rule:nonzero;stroke:none"
         id="path334" /><path
         d="m 4697.5,3026.39 c 0,0 -4.84,-9.05 -12.84,-20.62 -7.87,-11.66 -19.94,-25.18 -34.48,-33.02 -1.7,-0.83 -3.91,-2.35 -5.16,-2.7 -2.11,-0.75 -4.81,-2.1 -6.39,-2.36 -3.16,-0.74 -6.91,-1.95 -10.61,-1.98 -7.27,-0.35 -14.76,0.64 -20.89,3.38 -12.53,4.98 -20.69,11.61 -20.69,11.61 0,0 2.52,-10.41 14.84,-21.12 6.22,-4.86 15.07,-10.32 26.08,-11.33 5.39,-0.51 11.07,-0.41 17.16,1.21 3.12,0.67 4.78,1.54 7.26,2.3 3.39,1.09 5.25,2.37 7.94,3.61 20.15,10.8 31.01,31.14 35.03,45.72 4.23,14.98 2.75,25.3 2.75,25.3"
         style="fill:#4e3a5e;fill-opacity:1;fill-rule:nonzero;stroke:none"
         id="path336" /><path
         d="m 4683.96,2988.54 c 0,0 26.14,-3.76 26.89,-1.1 0.75,2.66 -22.57,11.34 -22.57,11.34 l -4.32,-10.24"
         style="fill:#4e3a5e;fill-opacity:1;fill-rule:nonzero;stroke:none"
         id="path338" /><path
         d="m 4689.38,3001.22 c 0,0 27.67,3.13 27.75,5.09 0.08,1.95 -26.13,5.97 -26.13,5.97 l -1.62,-11.06"
         style="fill:#4e3a5e;fill-opacity:1;fill-rule:nonzero;stroke:none"
         id="path340" /><path
         d="m 4387.87,2888.72 c 0,0 0.68,-9.44 10.86,-19.85 5.15,-4.66 13.08,-10.2 23.06,-10.8 4.85,-0.28 10.02,-0.15 14.76,1.31 1.77,0.48 5.73,1.71 7.29,2.55 2.01,0.98 3.54,1.35 6.08,2.97 18.42,11.21 25.42,29.24 28.5,42.04 2.88,13.12 1.27,22.07 1.27,22.07 0,0 -4.62,-7.08 -11.55,-17.7 -3.15,-5.17 -7.79,-10.48 -12.35,-15.76 -4.56,-5.05 -10.3,-10.4 -15.33,-13.22 -12.54,-7.67 -24.81,-9.16 -35.38,-4.33 -10.41,4.38 -17.21,10.72 -17.21,10.72"
         style="fill:#4e3a5e;fill-opacity:1;fill-rule:nonzero;stroke:none"
         id="path342" /><path
         d="m 4416.05,2861.61 c 0,0 -19.94,-17.07 -22.03,-15.23 -2.09,1.84 12.79,21.55 12.79,21.55 l 9.24,-6.32"
         style="fill:#4e3a5e;fill-opacity:1;fill-rule:nonzero;stroke:none"
         id="path344" /><path
         d="m 4404.55,2869.4 c 0,0 -25.01,-12.07 -26.15,-10.47 -1.14,1.6 18.73,18.93 18.73,18.93 l 7.42,-8.46"
         style="fill:#4e3a5e;fill-opacity:1;fill-rule:nonzero;stroke:none"
         id="path346" /><path
         d="m 4519.59,3245.11 c 37.76,-99.53 145.03,-191.33 256.59,-164.17 8.56,2.09 4.83,14.49 -3.59,13.02 -121.18,-21.06 -184.15,67.35 -243.31,155.24 -3.13,4.66 -11.94,1.87 -9.69,-4.09"
         style="fill:#80545a;fill-opacity:1;fill-rule:nonzero;stroke:none"
         id="path348" /><path
         d="m 5612.49,1506.57 c 128.08,73.61 11.57,448.01 -42.98,585.22 l -200.04,-89.27 c 0,0 16,-40.87 33.88,-89.76 78.54,23.63 164.51,60 164.51,60 0,0 155.39,-357.08 23.14,-449.66 -118.35,-82.85 -321.54,132.26 -424.87,82.66 125.64,-22.32 302.53,-181.85 446.36,-99.19"
         style="fill:#d27a84;fill-opacity:1;fill-rule:nonzero;stroke:none"
         id="path350" /><path
         d="m 5602.18,2199.62 c -116.15,-54.28 -259.72,-113.25 -344.45,-158.17 l 47.02,-105.6 c 77.28,17.79 224.85,73.05 337.55,154.45 l -40.12,109.32"
         style="fill:#a5adbc;fill-opacity:1;fill-rule:nonzero;stroke:none"
         id="path352" /><path
         d="m 4423.86,1504.09 c -34.33,133.53 19.42,270.03 52.75,336.96 l -209.26,67.86 c -6.61,-14.22 -17.11,-38.51 -28.03,-70.78 0,0 57.25,-42.26 149.83,-73.67 0,0 -33.23,-169.11 27.27,-290.13 89.27,-178.54 297.57,-230.62 295.09,-252.93 -0.34,-3.13 1.42,-4.88 4.18,-5.93 0.77,1.19 2.16,1.8 2.44,3.45 4.96,29.75 -249.63,111.59 -294.27,285.17"
         style="fill:#d27a84;fill-opacity:1;fill-rule:nonzero;stroke:none"
         id="path354" /><path
         d="m 4537.93,1890.1 c -88.36,61.54 -187.04,103.63 -284.99,135.14 l -43.62,-107.05 c 68.33,-48.03 183.88,-87.91 287.71,-126.42 l 40.9,98.33"
         style="fill:#a5adbc;fill-opacity:1;fill-rule:nonzero;stroke:none"
         id="path356" /><path
         d="m 4690.3,1942.82 -157.31,-43.17 -28.48,103.82 157.3,43.16 28.49,-103.81"
         style="fill:#8e92a5;fill-opacity:1;fill-rule:nonzero;stroke:none"
         id="path358" /><path
         d="m 5192.51,2072.79 -209.56,-54.44 -27.07,104.2 209.57,54.43 27.06,-104.19"
         style="fill:#8e92a5;fill-opacity:1;fill-rule:nonzero;stroke:none"
         id="path360" /><path
         d="m 632.129,815.77 h -68.504 v -97.481 h 68.504 v 97.481"
         style="fill:#ff7b39;fill-opacity:1;fill-rule:nonzero;stroke:none"
         id="path362" /><path
         d="m 1874.01,815.77 h -68.5 v -97.481 h 68.5 v 97.481"
         style="fill:#ff7b39;fill-opacity:1;fill-rule:nonzero;stroke:none"
         id="path364" /><path
         d="m 3115.9,815.77 h -68.51 v -97.481 h 68.51 v 97.481"
         style="fill:#ff7b39;fill-opacity:1;fill-rule:nonzero;stroke:none"
         id="path366" /><path
         d="m 4357.78,815.77 h -68.5 v -97.481 h 68.5 v 97.481"
         style="fill:#ff7b39;fill-opacity:1;fill-rule:nonzero;stroke:none"
         id="path368" /><path
         d="m 5599.66,815.77 h -68.5 v -97.481 h 68.5 v 97.481"
         style="fill:#ff7b39;fill-opacity:1;fill-rule:nonzero;stroke:none"
         id="path370" /><path
         d="M 5445.09,540.121 H 718.195 c -85.367,0 -154.57,101.578 -154.57,186.949 H 5599.66 c 0,-85.371 -69.2,-186.949 -154.57,-186.949"
         style="fill:#ffc900;fill-opacity:1;fill-rule:nonzero;stroke:none"
         id="path372" /><path
         d="M 5610.97,783.281 H 552.316 c -21.343,0 -38.644,17.301 -38.644,38.641 0,21.34 17.301,38.637 38.644,38.637 H 5610.97 c 21.35,0 38.64,-17.297 38.64,-38.637 0,-21.34 -17.29,-38.641 -38.64,-38.641"
         style="fill:#ffc900;fill-opacity:1;fill-rule:nonzero;stroke:none"
         id="path374" /><path
         d="M 5610.97,809.73 H 552.316 c -16.695,0 -30.921,10.59 -36.32,25.418 -1.5,-4.128 -2.316,-8.589 -2.316,-13.226 0,-21.34 17.293,-38.641 38.636,-38.641 H 5610.97 c 21.34,0 38.65,17.301 38.65,38.641 0,4.637 -0.82,9.098 -2.33,13.226 -5.4,-14.828 -19.62,-25.418 -36.32,-25.418"
         style="fill:#ff7b39;fill-opacity:1;fill-rule:nonzero;stroke:none"
         id="path376" /><path
         d="M 5537.97,727.07 C 5518.23,656.371 5459.69,589.719 5390.54,589.719 H 663.641 c -20.411,0 -39.891,5.812 -57.731,15.82 28.176,-38.148 68.063,-65.418 112.285,-65.418 H 5445.09 c 85.37,0 154.57,101.578 154.57,186.949 h -61.69"
         style="fill:#ff7b39;fill-opacity:1;fill-rule:nonzero;stroke:none"
         id="path378" /><path
         d="m 4034.51,1768.04 c -227.78,-114.85 -675.99,-128.25 -878.36,-25.12 l -5.24,97.26 c 255.04,-93.92 606.73,-81.5 878.36,25.13 l 5.24,-97.27"
         style="fill:#363344;fill-opacity:1;fill-rule:nonzero;stroke:none"
         id="path380" /><path
         d="m 3665.06,1685.31 h -92.57 c -7.31,0 -13.23,5.92 -13.23,13.22 v 40.11 c 0,7.3 5.92,13.23 13.23,13.23 h 92.57 c 7.3,0 13.22,-5.93 13.22,-13.23 v -40.11 c 0,-7.3 -5.92,-13.22 -13.22,-13.22 z m -140.52,83.28 v -100.01 c 0,-7.3 5.93,-13.22 13.23,-13.22 h 162.01 c 7.3,0 13.22,5.92 13.22,13.22 v 100.01 c 0,7.31 -5.92,13.23 -13.22,13.23 h -162.01 c -7.3,0 -13.23,-5.92 -13.23,-13.23"
         style="fill:#8e92a5;fill-opacity:1;fill-rule:nonzero;stroke:none"
         id="path382" /><path
         d="m 4051.21,3457.3 c 0,0 9.92,-81 -61.16,-114.07 l -3.31,94.23 64.47,19.84"
         style="fill:#985d3f;fill-opacity:1;fill-rule:nonzero;stroke:none"
         id="path384" /><path
         d="m 3484.18,3105.18 c 0,0 -137.08,24.76 -125.64,310.8 9.92,247.97 84.23,320.58 130.52,317.27 0,0 26.45,89.27 165.32,95.89 138.86,6.61 439.18,-125.57 443.12,-279.26 2.48,-96.71 -90.92,-119.03 -90.92,-119.03 l -522.4,-325.67"
         style="fill:#b97953;fill-opacity:1;fill-rule:nonzero;stroke:none"
         id="path386" /><path
         d="m 4097.5,3536.66 c 0,0 -59.51,-53.73 -171.1,-41.34 -111.59,12.4 -193.42,143.83 -270.3,123.99 -76.87,-19.83 -81.83,-156.22 -178.54,-193.42 -64.91,-24.96 -100.78,1.46 -117.34,21.54 -0.68,-10.14 -1.25,-20.61 -1.68,-31.45 -11.44,-286.04 125.64,-310.8 125.64,-310.8 l 482.72,247.97 39.68,77.7 c 85.96,24.8 90.92,105.81 90.92,105.81"
         style="fill:#985d3f;fill-opacity:1;fill-rule:nonzero;stroke:none"
         id="path388" /><g
         id="g390"><g
           id="g392"
           clip-path="url(#clipPath396)"><path
             d="m 3476.57,3220.75 c 0,0 8.95,-122.29 -10.28,-210.88 -19.15,-88.21 -54.67,-151.75 -99.93,-165.28 0,0 6.22,-117.83 230.74,-149.42 174.99,-24.62 221.78,95.34 221.78,95.34 -38.96,20.07 -92.69,74.44 -94.82,134.42 -2.37,67.03 42.15,81.56 42.15,81.56 l -171.19,224.33 -118.45,-10.07"
             style="fill:url(#linearGradient402);fill-opacity:1;fill-rule:nonzero;stroke:none"
             id="path404" /></g></g><path
         d="m 3457.36,2752.75 c 162.52,24.85 258.88,130.72 266.7,172.18 -2.06,58.24 31.21,76.8 40,80.68 l 0.88,2.55 -43.87,57.5 -192.18,160.68 -52.32,-5.59 c 0,0 8.95,-122.29 -10.28,-210.88 -19.15,-88.21 -42.25,-123.84 -83.27,-153.32 0,0 -35.96,-48.48 74.34,-103.8"
         style="fill:#d27a84;fill-opacity:1;fill-rule:nonzero;stroke:none"
         id="path406" /><path
         d="m 3074.16,2713.02 c 51.67,59.04 296.12,129.6 296.12,129.6 l 222.34,-112.59 194.11,118.84 c 0,0 235.81,-69.21 297.33,-133.29 61.52,-64.08 -7.69,-402.42 -20.51,-517.77 -12.81,-115.35 -484.44,-156.36 -484.44,-156.36 0,0 -438.31,48.71 -451.12,143.55 -12.82,94.83 -89.72,487 -53.83,528.02"
         style="fill:#626376;fill-opacity:1;fill-rule:nonzero;stroke:none"
         id="path408" /><path
         d="m 3619.43,1788.98 c -0.09,1.78 -9.58,179.3 -12.12,295.93 -2.55,116.54 -17.78,549.23 -17.94,553.59 l 10.25,0.36 c 0.16,-4.37 15.39,-437.12 17.93,-553.71 2.53,-116.48 12.03,-293.84 12.13,-295.62 l -10.25,-0.55"
         style="fill:#474557;fill-opacity:1;fill-rule:nonzero;stroke:none"
         id="path410" /><path
         d="m 4044.76,2277.27 c -594.66,-225.56 -919.34,0 -919.34,0 0,0 -27.34,-355.43 3.42,-413.53 4.1,-7.75 11.64,-15.8 22.09,-23.92 l -0.02,0.36 c 255.04,-93.92 605.6,-85.06 878.36,25.13 l 0.08,-1.58 c 8.92,8.98 15.32,18.14 18.83,27.35 27.34,71.77 -3.42,386.19 -3.42,386.19"
         style="fill:#474557;fill-opacity:1;fill-rule:nonzero;stroke:none"
         id="path412" /><path
         d="m 3619.43,1778.24 c -0.11,2.27 -12.07,227.22 -14.61,343.88 -0.49,22.31 -1.39,53.51 -2.6,93.49 l 10.25,0.32 c 1.21,-40.03 2.11,-71.26 2.6,-93.58 2.52,-116.5 14.49,-341.31 14.61,-343.56 l -10.25,-0.55"
         style="fill:#363344;fill-opacity:1;fill-rule:nonzero;stroke:none"
         id="path414" /><path
         d="m 3881.57,2290.09 h -166.61 v 107.65 h 166.61 v -107.65"
         style="fill:#8e92a5;fill-opacity:1;fill-rule:nonzero;stroke:none"
         id="path416" /><path
         d="m 3474.02,2290.09 h -166.61 v 107.65 h 166.61 v -107.65"
         style="fill:#8e92a5;fill-opacity:1;fill-rule:nonzero;stroke:none"
         id="path418" /><g
         id="g420"><g
           id="g422"
           clip-path="url(#clipPath426)"><path
             d="m 3826.03,2120.06 c 0,0 -129.87,-686.94 -206.76,-849.28 0,0 -116.2,-154.64 -70.06,-167.46 46.13,-12.81 68.35,70.06 83.73,70.06 15.38,0 12.81,-76.89 46.13,-76.89 33.33,0 30.76,75.18 56.4,80.31 25.63,5.13 30.75,-81.17 69.2,-70.92 38.45,10.26 3.67,71.98 7.69,94.85 9.1,51.75 185.45,595.07 228.98,844.14 l -215.31,75.19"
             style="fill:url(#linearGradient434);fill-opacity:1;fill-rule:nonzero;stroke:none"
             id="path436" /></g></g><path
         d="m 3812.36,1200.73 0.24,1.25 0.03,0.14 0.19,0.96 0.22,1.04 0.18,0.79 0.13,0.6 c 0.24,1.04 0.5,2.14 0.79,3.35 l 0.07,0.26 c 0.47,1.92 1.01,4.06 1.62,6.39 l 0.23,0.89 c 0.82,3.11 1.75,6.58 2.79,10.37 l 0.37,1.32 c 34.53,124.91 182.72,591.36 222.12,816.78 l -215.31,75.19 c 0,0 -6.1,-32.28 -16.44,-84.47 53.76,-24.74 95.53,-39.89 156.49,-55.39 -22.32,-268.64 -171.11,-691.85 -171.11,-691.85 l -61.99,-37.2 c 0,0 18.79,-83.3 25.46,-97.13 l 1.03,-2.17 0.03,-0.05 c 10.28,-21.77 21.94,-52.15 45.17,-45.92 38.45,10.26 3.67,71.98 7.69,94.85"
         style="fill:#d27a84;fill-opacity:1;fill-rule:nonzero;stroke:none"
         id="path438" /><g
         id="g440"><g
           id="g442"
           clip-path="url(#clipPath446)"><path
             d="m 3409.94,2128.6 c 0,0 236.25,-681.55 308.99,-777.43 50.94,-67.16 132.25,-19.84 142.17,-69.43 8.32,-41.61 -102.56,-37.44 -102.56,-37.44 0,0 56.39,-112.78 7.68,-120.47 -48.7,-7.69 -64.08,99.96 -79.45,99.96 -15.38,0 -10.26,-107.65 -51.27,-110.21 -41.01,-2.57 -17.94,102.52 -35.88,102.52 -17.95,0 -48.93,-79 -76.9,-64.08 -38.45,20.51 19.65,79.46 19.65,99.97 0,20.5 -270.85,528.02 -365.68,784.34 l 233.25,92.27"
             style="fill:url(#linearGradient452);fill-opacity:1;fill-rule:nonzero;stroke:none"
             id="path454" /></g></g><path
         d="m 3104.92,2730.96 c -87.15,-38.45 -135.86,-205.06 -5.13,-610.04 l 317.84,117.9 c 0,0 -136.19,570.02 -312.71,492.14"
         style="fill:#626376;fill-opacity:1;fill-rule:nonzero;stroke:none"
         id="path456" /><path
         d="m 4035.31,2745.46 c 91.18,-27.55 159.79,-187 79.33,-604.88 l -329.83,78.35 c 0,0 65.81,582.35 250.5,526.53"
         style="fill:#626376;fill-opacity:1;fill-rule:nonzero;stroke:none"
         id="path458" /><path
         d="m 4043.6,2742.57 c 64.37,-80.91 76.34,-339.11 -14.52,-581.66 l 85.56,-20.33 c 78.01,405.12 15.9,567.34 -71.04,601.99"
         style="fill:#474557;fill-opacity:1;fill-rule:nonzero;stroke:none"
         id="path460" /><path
         d="m 3764.48,2234.47 c 159.45,-23.05 266.43,-60.52 364.68,-88.01 l -32.68,-121.35 c -113.41,5.55 -240.56,48.65 -356.58,85.07 l 24.58,124.29"
         style="fill:#a5adbc;fill-opacity:1;fill-rule:nonzero;stroke:none"
         id="path462" /><path
         d="m 3368.84,2842.14 -39.08,-12.45 189.21,-257.46 50.63,70.01 26.6,-33.46 21.36,35.03 46.14,-66.65 158.22,260.44 -23.67,8.4 -205.63,-115.97 -223.78,112.11"
         style="fill:#474557;fill-opacity:1;fill-rule:nonzero;stroke:none"
         id="path464" /><path
         d="m 3397.66,2929.45 194.96,-199.42 -67.14,-106.62 -179.8,225.74 51.98,80.3"
         style="fill:#a5adbc;fill-opacity:1;fill-rule:nonzero;stroke:none"
         id="path466" /><path
         d="m 3745.17,2920.48 -153.86,-190.45 67.14,-106.62 143.66,226.74 -56.94,70.33"
         style="fill:#a5adbc;fill-opacity:1;fill-rule:nonzero;stroke:none"
         id="path468" /><g
         id="g470"><g
           id="g472"
           clip-path="url(#clipPath476)"><path
             d="m 3475.36,3335.41 c 16.93,-16.25 2.27,-55.42 31.96,-54.99 36.62,0.52 33.61,129.2 92.58,231.44 23.42,40.6 75.27,118.79 209.15,103.6 109.39,-12.42 183.86,-68.89 197.75,-176.96 4.74,-36.85 -16.7,-140.19 -55.6,-265.54 -44.64,-143.83 -125.36,-256.03 -190.94,-267.82 -43.78,-7.86 -86.79,-4.95 -131.43,22.32 -61.77,37.75 -106.77,98.75 -139.87,240.59 -60.99,3.26 -90.42,61 -84.13,109.06 6.48,49.61 39.67,82.66 70.53,58.3"
             style="fill:url(#linearGradient482);fill-opacity:1;fill-rule:nonzero;stroke:none"
             id="path484" /></g></g><path
         d="m 3863.68,3291.1 c -2.22,19.9 31.22,19.86 72.11,24.17 27.38,2.88 59.33,8.56 62.46,-4.73 3.58,-15.21 -9.7,-33.19 -53.34,-40.54 -42.38,-7.13 -78.31,-5.04 -81.23,21.1"
         style="fill:#985d3f;fill-opacity:1;fill-rule:nonzero;stroke:none"
         id="path486" /><path
         d="m 3792.1,3316.7 c 10.15,18.34 -26.59,30.56 -68.39,52.5 -42.71,22.43 -67.52,41.94 -78.9,26.34 -8.93,-12.24 -8.04,-36.63 51.35,-67.98 40.06,-21.15 80.61,-38.57 95.94,-10.86"
         style="fill:#985d3f;fill-opacity:1;fill-rule:nonzero;stroke:none"
         id="path488" /><path
         d="m 3656.27,3317.79 c 0,0 2.35,-9.95 8.62,-21.27 5.81,-11.93 17.41,-21.28 31.74,-25.77 1.6,-0.39 4.34,-1.11 4.95,-1.41 2.15,-0.38 4.84,-1.06 6.51,-1.19 2.8,-0.14 6.41,-0.44 9.94,-0.25 6.87,0.72 14.16,1.64 20.16,4.14 12.18,4.47 21.17,9.51 21.17,9.51 0,0 -2.24,-10.39 -13.65,-21.23 -5.75,-5.02 -13.5,-11.22 -23.88,-13.59 -5.05,-1.49 -10.54,-2.04 -16.9,-1.58 l -7.18,0.84 c -3.92,0.7 -5.61,1.53 -8.49,2.39 -10.43,3.45 -20.37,10.14 -26.8,18.71 -6.38,8.67 -8.89,18.21 -9.96,25.85 -1.28,15.81 3.77,24.85 3.77,24.85"
         style="fill:#634a64;fill-opacity:1;fill-rule:nonzero;stroke:none"
         id="path490" /><path
         d="m 3866.58,3256.43 c 0,0 4.18,-7.42 10.09,-15.41 6.3,-8.31 14.51,-14.18 24.27,-16.56 4.08,-1.15 6.23,-1.15 8.46,-1.54 2.66,-0.32 5.29,-0.37 7.86,-0.1 5.21,0.13 10.54,1.53 14.88,3.79 9.21,3.93 15.68,9.14 15.68,9.14 0,0 0.09,-8.43 -7.42,-18.91 -3.99,-4.79 -9.82,-10.26 -17.9,-13.66 -4.08,-1.43 -8.47,-2.38 -13.03,-2.83 -4.96,-0.17 -10.1,0.46 -13.14,1.08 -9.42,1.76 -18.32,6.73 -23.99,13.75 -6.09,6.7 -7.79,14.89 -8.79,20.98 -1.52,12.75 3.03,20.27 3.03,20.27"
         style="fill:#634a64;fill-opacity:1;fill-rule:nonzero;stroke:none"
         id="path492" /><path
         d="m 3629.66,3558.15 c 115.72,79.35 132.25,-59.52 300.87,-89.27 120.26,-21.23 119.03,89.27 119.03,89.27 l -138.04,108.28 -218.22,-7.44 -63.64,-100.84"
         style="fill:#b97953;fill-opacity:1;fill-rule:nonzero;stroke:none"
         id="path494" /><path
         d="m 3437.84,3784.79 c 5.35,-36.2 37.34,-65.13 72.06,-73.04 11.14,-2.55 15.87,14.77 4.71,17.1 -33.22,6.97 -53.96,27.79 -66.44,58.78 -2.59,6.44 -11.34,4 -10.33,-2.84"
         style="fill:#b97953;fill-opacity:1;fill-rule:nonzero;stroke:none"
         id="path496" /><path
         d="m 3505.76,3845.39 c -40.06,-32.62 -25.54,-102.23 9.55,-132.37 8.2,-7.05 20.15,4.6 11.99,11.99 -36.62,33.15 -32.76,75.08 -15.57,116.9 1.51,3.68 -3.57,5.43 -5.97,3.48"
         style="fill:#b97953;fill-opacity:1;fill-rule:nonzero;stroke:none"
         id="path498" /><path
         d="m 3508.29,3754.35 c 82.76,152.89 248.83,80.28 348.94,-3.35 6.65,-5.55 14.68,2.73 9.39,9.39 -50.53,63.73 -134.12,104.95 -216.04,98.9 -58.15,-4.3 -139.42,-36.3 -150.35,-101.54 -0.77,-4.6 5.5,-8.11 8.06,-3.4"
         style="fill:#b97953;fill-opacity:1;fill-rule:nonzero;stroke:none"
         id="path500" /><path
         d="m 3927.64,3497.8 c -105.19,11.69 -184.06,126.64 -258.15,123.46 -25.65,-16.11 -34.58,-38.88 -39.83,-63.11 115.72,79.35 132.25,-59.52 300.87,-89.27 61.76,-10.9 105.42,8.79 106.22,35.93 -21.08,-6.38 -58.12,-12.67 -109.11,-7.01"
         style="fill:#985d3f;fill-opacity:1;fill-rule:nonzero;stroke:none"
         id="path502" /><path
         d="m 3867.87,3363.14 c 1.33,-22.04 -2.19,-47.89 -16.61,-67.41 -14.11,-19.2 -27.99,-34.91 -33.47,-55.3 -1.3,-5.78 -2.64,-9.05 -3,-15.06 -1.07,-6.1 -0.1,-10.07 -0.12,-14.59 1.08,-9.65 4.25,-19.01 8.87,-27.81 9.18,-17.46 24.73,-33.07 40.5,-44.69 l 12.68,-9.35 -9.26,-11.77 c -4,-4.07 -7.13,-6.35 -10.9,-8.97 -3.62,-2.51 -7.43,-4.66 -11.27,-6.64 -7.77,-3.86 -16.1,-6.53 -24.51,-7.79 -16.89,-2.8 -33.65,1.1 -47.37,8.1 -1.03,0.52 -1.43,1.77 -0.91,2.79 l 2.29,1.09 c 14.61,-2.84 29.32,-1.71 41.42,4.13 6.08,2.79 11.6,6.51 16.41,10.94 2.37,2.27 4.65,4.58 6.66,7.07 1.92,2.31 4.12,5.41 4.9,7.16 l 3.18,-20.93 -0.55,0.4 c -19.79,15.81 -35.39,34.62 -45.5,58.02 -4.89,11.6 -8.02,24.24 -8.3,37.14 0.22,6.72 0.77,14.11 2.28,19.04 0.98,5.23 3.55,12.6 5.29,17.66 4.44,11.32 10.66,22.07 18.08,31.38 7.35,9.38 15.56,17.27 22.23,25.61 13.8,16.48 19.34,37.29 20.41,60.02 0.08,1.81 1.62,3.21 3.43,3.13 1.68,-0.08 3.01,-1.42 3.12,-3.07 l 0.02,-0.3"
         style="fill:#d27a84;fill-opacity:1;fill-rule:nonzero;stroke:none"
         id="path504" /><path
         d="m 3831.57,3349.41 c 0,0 1.33,-3.42 2.33,-8.64 0.49,-5.26 0.73,-12.39 -0.35,-19.62 -0.93,-7.31 -5.13,-13.84 -8.19,-18.37 -3.27,-4.58 -7.11,-6.07 -6.82,-6.27 -1.59,-0.83 -3.55,-0.21 -4.37,1.37 l -0.1,2.8 c 0,0 1.32,3.02 3.23,7.09 2.29,3.97 3.32,9.94 5.14,15.76 1.82,5.88 2.57,12.23 2.83,17 0.58,4.82 0.97,8.04 0.97,8.04 0.09,1.52 1.4,2.68 2.92,2.6 1.05,-0.07 1.99,-0.87 2.41,-1.76"
         style="fill:#d27a84;fill-opacity:1;fill-rule:nonzero;stroke:none"
         id="path506" /><path
         d="m 3710.74,3020.61 c 0,0 14.14,2.59 27.09,-1.97 6.55,-1.76 12.84,-4.8 16.95,-8.18 4.23,-3.19 6.2,-6.65 6.3,-6.43 1.57,-2.45 0.85,-5.71 -1.6,-7.27 -0.92,-0.59 -2.08,-0.86 -3.1,-0.82 0,0 -3.46,0.09 -8.01,1.02 -4.63,0.79 -10.34,2.58 -16.06,4.82 -11.58,3.62 -22.94,10.69 -22.94,10.69 -2.12,1.19 -2.86,3.87 -1.66,5.98 0.63,1.12 1.87,1.89 3.03,2.16"
         style="fill:#d27a84;fill-opacity:1;fill-rule:nonzero;stroke:none"
         id="path508" /><path
         d="m 3669.06,3065.25 c 0,0 9.28,1.69 23.17,2.83 13.94,0.87 32.62,0.54 51.3,-2.4 18.65,-2.76 37.32,-8.54 50.18,-16.15 6.5,-3.73 11.47,-7.49 14.7,-10.64 3.26,-2.97 5.11,-4.66 5.11,-4.66 3.5,-3.19 3.75,-8.62 0.56,-12.11 -2.74,-3 -7.1,-3.61 -10.49,-1.73 l -0.96,0.53 c 0,0 -7.15,3.97 -18.59,8.6 -11.54,4.51 -27.84,9.34 -44.84,13.09 -16.97,3.73 -34.48,6.6 -47.71,8.63 -13.28,2.06 -22.13,3.44 -22.13,3.44 -2.94,0.36 -5.02,3.04 -4.66,5.97 0.29,2.32 2.2,4.14 4.36,4.6"
         style="fill:#d27a84;fill-opacity:1;fill-rule:nonzero;stroke:none"
         id="path510" /><path
         d="m 3475.91,3253.96 c 2.67,-23.93 -1.1,-42.67 -13.81,-44.09 -12.71,-1.41 -25.17,16.84 -27.84,40.77 -2.67,23.94 5.47,44.49 18.18,45.91 12.72,1.42 20.81,-18.65 23.47,-42.59"
         style="fill:#d27a84;fill-opacity:1;fill-rule:nonzero;stroke:none"
         id="path512" /><path
         d="m 3050.99,2286.48 c 29.32,-38.38 64.06,-31.91 77.6,14.44 13.54,46.35 0.75,115.03 -28.56,153.4 -29.31,38.38 -64.05,31.91 -77.6,-14.44 -13.54,-46.35 -0.75,-115.03 28.56,-153.4"
         style="fill:#474557;fill-opacity:1;fill-rule:nonzero;stroke:none"
         id="path514" /><path
         d="m 3047.55,2299.94 c 27.46,-35.95 60.16,-29.37 73.03,14.71 12.88,44.08 1.06,108.95 -26.4,144.9 -27.46,35.94 -60.16,29.36 -73.04,-14.72 -12.87,-44.08 -1.05,-108.94 26.41,-144.89"
         style="fill:#6d88a4;fill-opacity:1;fill-rule:nonzero;stroke:none"
         id="path516" /><path
         d="m 3040.12,2299.1 c 27.47,-35.95 60.17,-29.36 73.04,14.72 12.88,44.07 1.06,108.94 -26.4,144.89 -27.47,35.95 -60.16,29.36 -73.04,-14.71 -12.88,-44.08 -1.06,-108.95 26.4,-144.9"
         style="fill:#8a9ecb;fill-opacity:1;fill-rule:nonzero;stroke:none"
         id="path518" /><path
         d="m 3041.12,2309.53 c 10.54,-13.77 22,-20.34 32.53,-18.33 10.72,2 19.4,12.62 24.47,29.91 10.83,37.13 0.84,91.95 -22.28,122.21 -10.5,13.75 -22.03,20.3 -32.53,18.33 -10.72,-2 -19.4,-12.62 -24.46,-29.91 -10.84,-37.12 -0.85,-91.95 22.27,-122.21 z m 28.83,-25.74 c -11.7,0 -23.76,7.46 -34.44,21.44 -24.3,31.85 -34.82,89.48 -23.43,128.51 5.82,19.97 16.46,32.35 29.94,34.87 13.46,2.31 27.25,-5.02 39.43,-20.99 24.32,-31.84 34.82,-89.48 23.43,-128.5 -5.82,-19.97 -16.46,-32.35 -29.94,-34.88 -1.66,-0.29 -3.33,-0.45 -4.99,-0.45"
         style="fill:#bfcee2;fill-opacity:1;fill-rule:nonzero;stroke:none"
         id="path520" /><path
         d="m 3076.8,2341 -50.76,53.22 9.19,8.77 50.76,-53.22 -9.19,-8.77"
         style="fill:#bfcee2;fill-opacity:1;fill-rule:nonzero;stroke:none"
         id="path522" /><path
         d="m 3039.44,2351.72 -7.59,10.17 40.72,30.38 7.59,-10.17 -40.72,-30.38"
         style="fill:#bfcee2;fill-opacity:1;fill-rule:nonzero;stroke:none"
         id="path524" /><path
         d="m 3059.25,2324.26 -18.93,92.93 12.44,2.54 18.93,-92.93 -12.44,-2.54"
         style="fill:#bfcee2;fill-opacity:1;fill-rule:nonzero;stroke:none"
         id="path526" /><path
         d="m 4143.89,2288.06 c -26.63,-40.29 -61.73,-36.21 -78.4,9.11 -16.68,45.31 -8.62,114.71 18.01,154.99 26.62,40.29 61.72,36.21 78.4,-9.1 16.67,-45.32 8.61,-114.71 -18.01,-155"
         style="fill:#474557;fill-opacity:1;fill-rule:nonzero;stroke:none"
         id="path528" /><path
         d="m 4146.4,2301.73 c -24.94,-37.74 -58.01,-33.41 -73.87,9.69 -15.86,43.09 -8.49,108.61 16.45,146.36 24.94,37.74 58.01,33.4 73.87,-9.69 15.85,-43.1 8.49,-108.62 -16.45,-146.36"
         style="fill:#6d88a4;fill-opacity:1;fill-rule:nonzero;stroke:none"
         id="path530" /><path
         d="m 4153.86,2301.4 c -24.93,-37.74 -58.01,-33.4 -73.87,9.69 -15.85,43.09 -8.49,108.62 16.45,146.36 24.94,37.74 58.01,33.4 73.87,-9.69 15.86,-43.09 8.49,-108.62 -16.45,-146.36"
         style="fill:#8a9ecb;fill-opacity:1;fill-rule:nonzero;stroke:none"
         id="path532" /><path
         d="m 4137.27,2463.49 c -9.86,0 -20.03,-7.24 -28.89,-20.66 -21.01,-31.76 -27.23,-87.14 -13.87,-123.44 6.22,-16.9 15.61,-26.91 26.44,-28.16 10.57,-0.96 21.64,6.06 31.2,20.51 21.01,31.79 27.23,87.16 13.87,123.44 -6.22,16.9 -15.61,26.92 -26.44,28.17 z m -13.99,-179.46 c -1.03,0 -2.09,0.06 -3.15,0.17 -13.61,1.59 -25.05,13.23 -32.23,32.77 -14.06,38.12 -7.51,96.35 14.57,129.77 11.09,16.79 24.28,25.27 37.93,23.63 13.61,-1.58 25.05,-13.22 32.23,-32.76 14.07,-38.12 7.51,-96.33 -14.57,-129.78 -10.23,-15.47 -22.47,-23.8 -34.78,-23.8"
         style="fill:#bfcee2;fill-opacity:1;fill-rule:nonzero;stroke:none"
         id="path534" /><path
         d="m 4114.42,2340.71 -9.78,8.1 47.01,56.56 9.77,-8.09 -47,-56.57"
         style="fill:#bfcee2;fill-opacity:1;fill-rule:nonzero;stroke:none"
         id="path536" /><path
         d="m 4150.94,2353.94 -42.7,27.53 6.89,10.68 42.69,-27.54 -6.88,-10.67"
         style="fill:#bfcee2;fill-opacity:1;fill-rule:nonzero;stroke:none"
         id="path538" /><path
         d="m 4133.06,2325.2 -12.59,1.68 12.53,94.01 12.6,-1.68 -12.54,-94.01"
         style="fill:#bfcee2;fill-opacity:1;fill-rule:nonzero;stroke:none"
         id="path540" /><path
         d="m 3328.78,2762.97 c -80,-26.38 -158.12,-64.13 -234.3,-113.57 l -37.52,64.86 c 59.72,50.54 138.74,87.76 234.3,113.58 l 37.52,-64.87"
         style="fill:#474557;fill-opacity:1;fill-rule:nonzero;stroke:none"
         id="path542" /><path
         d="m 3394.91,1999.21 c 0,0 212.47,-554.06 287.65,-648.04 26.45,-33.06 74,-30.25 74,-30.25 -13.3,5.93 -26.23,15.22 -37.63,30.25 -72.74,95.88 -308.99,777.43 -308.99,777.43 l -233.26,-92.27 c 10.66,-28.79 23.54,-60.76 38,-94.84 66.97,14.91 128.46,33.27 180.23,57.72"
         style="fill:#d27a84;fill-opacity:1;fill-rule:nonzero;stroke:none"
         id="path544" /><path
         d="m 3820.39,2770.93 c 80.35,-25.32 158.96,-62.02 235.78,-110.45 l 32.16,65.53 c -60.39,49.74 -139.89,85.91 -235.79,110.45 l -32.15,-65.53"
         style="fill:#474557;fill-opacity:1;fill-rule:nonzero;stroke:none"
         id="path546" /><path
         d="m 3417.63,2238.82 c 0,0 -29.6,123.88 -79.09,248.24 l 16.47,-271.46 62.62,23.22"
         style="fill:#474557;fill-opacity:1;fill-rule:nonzero;stroke:none"
         id="path548" /><path
         d="m 3435.92,2256.72 c -155.46,-42.28 -257.09,-92.49 -351.26,-131.73 l 47.21,-116.48 c 111.88,19.32 232.85,77.57 343.58,127.84 l -39.53,120.37"
         style="fill:#a5adbc;fill-opacity:1;fill-rule:nonzero;stroke:none"
         id="path550" /></g></g></svg>
